<ttFont>
<head>
    <!-- Most of this table will be recalculated by the compiler -->
    <tableVersion value="1.0"/>
    <fontRevision value="0.0"/>
    <checkSumAdjustment value="0x88860dd4"/>
    <magicNumber value="0x5f0f3cf5"/>
    <flags value="00000000 00000000"/>
    <unitsPerEm value="2048"/>
    <created value="Tue Mar 19 19:46:27 2002"/>
    <modified value="Tue Jul  7 19:38:52 2009"/>
    <xMin value="57"/>
    <yMin value="-528"/>
    <xMax value="1789"/>
    <yMax value="1263"/>
    <macStyle value="00000000 00000000"/>
    <lowestRecPPEM value="8"/>
    <fontDirectionHint value="1"/>
    <indexToLocFormat value="0"/>
    <glyphDataFormat value="0"/>
  </head>
    <TTGlyph name=".notdef" xMin="128" yMin="0" xMax="896" yMax="1263">
      <contour>
        <pt x="128" y="0" on="1"/>
        <pt x="128" y="1263" on="1"/>
        <pt x="896" y="1263" on="1"/>
        <pt x="896" y="0" on="1"/>
      </contour>
      <contour>
        <pt x="256" y="128" on="1"/>
        <pt x="768" y="128" on="1"/>
        <pt x="768" y="1135" on="1"/>
        <pt x="256" y="1135" on="1"/>
      </contour>
    </TTGlyph>
    <TTGlyph name="A" xMin="157" yMin="-144" xMax="1675" yMax="853">
      <contour>
        <pt x="1675" y="261" on="1"/>
        <pt x="613" y="261" on="1"/>
        <pt x="1128" y="-144" on="1"/>
        <pt x="795" y="-141" on="1"/>
        <pt x="157" y="357" on="1"/>
        <pt x="792" y="853" on="1"/>
        <pt x="1126" y="853" on="1"/>
        <pt x="613" y="452" on="1"/>
        <pt x="1675" y="452" on="1"/>
      </contour>
    </TTGlyph>
    <TTGlyph name="AE" xMin="244" yMin="-294" xMax="1611" yMax="1065">
      <contour>
        <pt x="1277" y="292" on="0"/>
        <pt x="1209" y="203" on="1"/>
        <pt x="1154" y="131" on="0"/>
        <pt x="1084" y="94" on="1"/>
        <pt x="1008" y="56" on="0"/>
        <pt x="928" y="56" on="1"/>
        <pt x="818" y="56" on="0"/>
        <pt x="724" y="123" on="1"/>
        <pt x="657" y="173" on="0"/>
        <pt x="615" y="248" on="1"/>
        <pt x="597" y="283" on="0"/>
        <pt x="595" y="292" on="1"/>
        <pt x="588" y="322" on="1"/>
        <pt x="581" y="343" on="0"/>
        <pt x="581" y="364" on="1"/>
        <pt x="581" y="403" on="1"/>
        <pt x="586" y="453" on="1"/>
        <pt x="597" y="509" on="1"/>
        <pt x="620" y="562" on="1"/>
        <pt x="643" y="604" on="1"/>
        <pt x="705" y="676" on="1"/>
        <pt x="723" y="696" on="0"/>
        <pt x="771" y="716" on="1"/>
        <pt x="854" y="752" on="0"/>
        <pt x="928" y="752" on="1"/>
        <pt x="980" y="752" on="1"/>
        <pt x="1030" y="738" on="1"/>
        <pt x="1094" y="707" on="1"/>
        <pt x="1129" y="687" on="1"/>
        <pt x="1253" y="575" on="0"/>
        <pt x="1253" y="524" on="1"/>
        <pt x="1263" y="506" on="0"/>
        <pt x="1263" y="480" on="1"/>
        <pt x="1277" y="463" on="0"/>
        <pt x="1277" y="403" on="1"/>
      </contour>
      <contour>
        <pt x="244" y="-198" on="1"/>
        <pt x="1510" y="1065" on="1"/>
        <pt x="1611" y="1065" on="1"/>
        <pt x="1609" y="957" on="1"/>
        <pt x="353" y="-294" on="1"/>
        <pt x="256" y="-294" on="1"/>
      </contour>
    </TTGlyph>
    <TTGlyph name="Aacute" xMin="179" yMin="-390" xMax="1625" yMax="1067">
      <contour>
        <pt x="609" y="999" on="1"/>
        <pt x="637" y="1011" on="1"/>
        <pt x="679" y="1025" on="1"/>
        <pt x="715" y="1036" on="1"/>
        <pt x="782" y="1052" on="1"/>
        <pt x="827" y="1058" on="1"/>
        <pt x="878" y="1063" on="1"/>
        <pt x="905" y="1064" on="1"/>
        <pt x="988" y="1067" on="0"/>
        <pt x="1107" y="1036" on="1"/>
        <pt x="1130" y="1030" on="1"/>
        <pt x="1154" y="1021" on="1"/>
        <pt x="1199" y="1002" on="1"/>
        <pt x="1246" y="977" on="1"/>
        <pt x="1295" y="947" on="1"/>
        <pt x="1450" y="852" on="0"/>
        <pt x="1563" y="632" on="1"/>
        <pt x="1586" y="565" on="1"/>
        <pt x="1607" y="487" on="1"/>
        <pt x="1615" y="448" on="1"/>
        <pt x="1619" y="412" on="1"/>
        <pt x="1625" y="358" on="0"/>
        <pt x="1625" y="337" on="1"/>
        <pt x="1625" y="142" on="0"/>
        <pt x="1511" y="-55" on="1"/>
        <pt x="1495" y="-83" on="0"/>
        <pt x="1455" y="-129" on="1"/>
        <pt x="1408" y="-183" on="0"/>
        <pt x="1376" y="-213" on="1"/>
        <pt x="1343" y="-237" on="1"/>
        <pt x="1302" y="-264" on="1"/>
        <pt x="1195" y="-326" on="1"/>
        <pt x="1033" y="-390" on="0"/>
        <pt x="905" y="-390" on="1"/>
        <pt x="793" y="-390" on="0"/>
        <pt x="703" y="-360" on="1"/>
        <pt x="637" y="-350" on="0"/>
        <pt x="607" y="-328" on="1"/>
        <pt x="575" y="-315" on="0"/>
        <pt x="515" y="-275" on="1"/>
        <pt x="334" y="-155" on="0"/>
        <pt x="247" y="41" on="1"/>
        <pt x="232" y="75" on="1"/>
        <pt x="221" y="111" on="1"/>
        <pt x="209" y="146" on="1"/>
        <pt x="199" y="188" on="1"/>
        <pt x="187" y="261" on="1"/>
        <pt x="183" y="339" on="1"/>
        <pt x="179" y="421" on="0"/>
        <pt x="211" y="541" on="1"/>
        <pt x="234" y="625" on="0"/>
        <pt x="299" y="731" on="1"/>
        <pt x="412" y="915" on="0"/>
      </contour>
      <contour>
        <pt x="649" y="918" on="1"/>
        <pt x="483" y="854" on="0"/>
        <pt x="372" y="679" on="1"/>
        <pt x="357" y="655" on="0"/>
        <pt x="332" y="600" on="1"/>
        <pt x="301" y="508" on="1"/>
        <pt x="292" y="481" on="0"/>
        <pt x="282" y="417" on="1"/>
        <pt x="275" y="371" on="0"/>
        <pt x="275" y="335" on="1"/>
        <pt x="275" y="267" on="1"/>
        <pt x="278" y="235" on="1"/>
        <pt x="283" y="207" on="1"/>
        <pt x="301" y="143" on="1"/>
        <pt x="312" y="104" on="0"/>
        <pt x="326" y="78" on="1"/>
        <pt x="366" y="4" on="1"/>
        <pt x="392" y="-36" on="1"/>
        <pt x="425" y="-77" on="1"/>
        <pt x="478" y="-143" on="0"/>
        <pt x="557" y="-193" on="1"/>
        <pt x="631" y="-240" on="0"/>
        <pt x="726" y="-273" on="1"/>
        <pt x="763" y="-286" on="0"/>
        <pt x="813" y="-291" on="1"/>
        <pt x="860" y="-296" on="1"/>
        <pt x="904" y="-298" on="1"/>
        <pt x="946" y="-300" on="0"/>
        <pt x="1017" y="-286" on="1"/>
        <pt x="1096" y="-270" on="0"/>
        <pt x="1159" y="-244" on="1"/>
        <pt x="1328" y="-173" on="0"/>
        <pt x="1434" y="-5" on="1"/>
        <pt x="1463" y="41" on="0"/>
        <pt x="1476" y="72" on="1"/>
        <pt x="1493" y="113" on="1"/>
        <pt x="1509" y="159" on="1"/>
        <pt x="1533" y="228" on="0"/>
        <pt x="1533" y="337" on="1"/>
        <pt x="1533" y="402" on="1"/>
        <pt x="1521" y="466" on="1"/>
        <pt x="1518" y="489" on="1"/>
        <pt x="1506" y="536" on="1"/>
        <pt x="1498" y="566" on="0"/>
        <pt x="1481" y="594" on="1"/>
        <pt x="1408" y="763" on="0"/>
        <pt x="1090" y="972" on="0"/>
        <pt x="906" y="972" on="1"/>
        <pt x="853" y="972" on="0"/>
        <pt x="775" y="960" on="1"/>
        <pt x="711" y="942" on="1"/>
      </contour>
      <contour>
        <pt x="767" y="651" on="1"/>
        <pt x="798" y="662" on="1"/>
        <pt x="838" y="675" on="1"/>
        <pt x="883" y="684" on="0"/>
        <pt x="908" y="684" on="1"/>
        <pt x="1009" y="684" on="0"/>
        <pt x="1094" y="626" on="1"/>
        <pt x="1176" y="571" on="0"/>
        <pt x="1221" y="477" on="1"/>
        <pt x="1236" y="432" on="1"/>
        <pt x="1241" y="408" on="1"/>
        <pt x="1246" y="372" on="1"/>
        <pt x="1249" y="336" on="1"/>
        <pt x="1256" y="254" on="0"/>
        <pt x="1194" y="148" on="1"/>
        <pt x="1177" y="119" on="0"/>
        <pt x="1131" y="75" on="1"/>
        <pt x="1112" y="57" on="0"/>
        <pt x="1047" y="17" on="1"/>
        <pt x="1015" y="5" on="1"/>
        <pt x="972" y="-5" on="1"/>
        <pt x="933" y="-10" on="1"/>
        <pt x="908" y="-10" on="1"/>
        <pt x="797" y="-10" on="0"/>
        <pt x="721" y="43" on="1"/>
        <pt x="640" y="99" on="0"/>
        <pt x="595" y="194" on="1"/>
        <pt x="572" y="266" on="1"/>
        <pt x="563" y="294" on="0"/>
        <pt x="563" y="334" on="1"/>
        <pt x="563" y="378" on="0"/>
        <pt x="575" y="428" on="1"/>
        <pt x="590" y="472" on="1"/>
        <pt x="600" y="494" on="1"/>
        <pt x="613" y="515" on="1"/>
        <pt x="663" y="595" on="0"/>
      </contour>
    </TTGlyph>
    <TTGlyph name="Acircumflex" xMin="136" yMin="-443" xMax="1729" yMax="1150">
      <contour>
        <pt x="1729" y="-50" on="1"/>
        <pt x="1337" y="-443" on="1"/>
        <pt x="136" y="758" on="1"/>
        <pt x="528" y="1150" on="1"/>
        <pt x="617" y="1062" on="1"/>
        <pt x="356" y="802" on="1"/>
        <pt x="1381" y="-222" on="1"/>
        <pt x="1641" y="38" on="1"/>
      </contour>
    </TTGlyph>
    <TTGlyph name="Adieresis" xMin="214" yMin="-352" xMax="1618" yMax="1054">
      <contour>
        <pt x="1415" y="-145" on="1"/>
        <pt x="1207" y="-352" on="0"/>
        <pt x="629" y="-352" on="0"/>
        <pt x="422" y="-145" on="1"/>
        <pt x="214" y="63" on="0"/>
        <pt x="214" y="640" on="0"/>
        <pt x="422" y="848" on="1"/>
        <pt x="628" y="1054" on="0"/>
        <pt x="1207" y="1053" on="0"/>
        <pt x="1413" y="846" on="1"/>
        <pt x="1618" y="642" on="0"/>
        <pt x="1618" y="59" on="0"/>
      </contour>
      <contour>
        <pt x="1480" y="464" on="1"/>
        <pt x="1446" y="639" on="0"/>
        <pt x="1314" y="760" on="1"/>
        <pt x="1150" y="911" on="0"/>
        <pt x="686" y="911" on="0"/>
        <pt x="523" y="762" on="1"/>
        <pt x="394" y="643" on="0"/>
        <pt x="364" y="463" on="1"/>
      </contour>
      <contour>
        <pt x="362" y="244" on="1"/>
        <pt x="398" y="57" on="0"/>
        <pt x="524" y="-59" on="1"/>
        <pt x="686" y="-210" on="0"/>
        <pt x="1152" y="-207" on="0"/>
        <pt x="1315" y="-56" on="1"/>
        <pt x="1449" y="68" on="0"/>
        <pt x="1477" y="245" on="1"/>
      </contour>
    </TTGlyph>
    <TTGlyph name="Agrave" xMin="190" yMin="-397" xMax="1638" yMax="1031">
      <contour>
        <pt x="1523" y="340" on="1"/>
        <pt x="1523" y="229" on="0"/>
        <pt x="1512" y="178" on="1"/>
        <pt x="1504" y="141" on="1"/>
        <pt x="1495" y="106" on="1"/>
        <pt x="1471" y="50" on="1"/>
        <pt x="1418" y="-64" on="1"/>
        <pt x="1404" y="-94" on="0"/>
        <pt x="1377" y="-122" on="1"/>
        <pt x="1333" y="-168" on="1"/>
        <pt x="1321" y="-181" on="0"/>
        <pt x="1283" y="-208" on="1"/>
        <pt x="1259" y="-225" on="0"/>
        <pt x="1237" y="-238" on="1"/>
        <pt x="1187" y="-267" on="1"/>
        <pt x="1161" y="-278" on="1"/>
        <pt x="1133" y="-291" on="1"/>
        <pt x="1084" y="-314" on="0"/>
        <pt x="1034" y="-321" on="1"/>
        <pt x="985" y="-328" on="1"/>
        <pt x="935" y="-331" on="1"/>
        <pt x="812" y="-338" on="0"/>
        <pt x="708" y="-291" on="1"/>
        <pt x="651" y="-265" on="1"/>
        <pt x="601" y="-238" on="1"/>
        <pt x="554" y="-207" on="1"/>
        <pt x="508" y="-170" on="1"/>
        <pt x="453" y="-116" on="1"/>
        <pt x="407" y="-64" on="1"/>
        <pt x="368" y="-7" on="1"/>
        <pt x="339" y="50" on="1"/>
        <pt x="319" y="91" on="1"/>
        <pt x="311" y="116" on="1"/>
        <pt x="291" y="186" on="1"/>
        <pt x="278" y="257" on="1"/>
        <pt x="265" y="340" on="1"/>
      </contour>
      <contour>
        <pt x="1564" y="611" on="1"/>
        <pt x="1601" y="530" on="0"/>
        <pt x="1612" y="465" on="1"/>
        <pt x="1624" y="391" on="1"/>
        <pt x="1628" y="317" on="1"/>
        <pt x="1638" y="129" on="0"/>
        <pt x="1516" y="-69" on="1"/>
        <pt x="1472" y="-140" on="0"/>
        <pt x="1384" y="-224" on="1"/>
        <pt x="1314" y="-291" on="0"/>
        <pt x="1209" y="-338" on="1"/>
        <pt x="1131" y="-365" on="1"/>
        <pt x="1066" y="-386" on="1"/>
        <pt x="994" y="-397" on="1"/>
        <pt x="916" y="-397" on="1"/>
        <pt x="702" y="-397" on="0"/>
        <pt x="533" y="-287" on="1"/>
        <pt x="370" y="-181" on="0"/>
        <pt x="264" y="24" on="1"/>
        <pt x="239" y="86" on="1"/>
        <pt x="216" y="166" on="1"/>
        <pt x="204" y="241" on="1"/>
        <pt x="200" y="316" on="1"/>
        <pt x="190" y="505" on="0"/>
        <pt x="428" y="893" on="0"/>
        <pt x="619" y="971" on="1"/>
        <pt x="653" y="985" on="1"/>
        <pt x="690" y="999" on="1"/>
        <pt x="727" y="1011" on="1"/>
        <pt x="767" y="1020" on="1"/>
        <pt x="819" y="1028" on="1"/>
        <pt x="835" y="1031" on="1"/>
        <pt x="912" y="1031" on="1"/>
        <pt x="970" y="1031" on="0"/>
        <pt x="1021" y="1024" on="1"/>
        <pt x="1085" y="1015" on="0"/>
        <pt x="1114" y="1002" on="1"/>
        <pt x="1195" y="983" on="0"/>
        <pt x="1299" y="918" on="1"/>
        <pt x="1471" y="811" on="0"/>
      </contour>
      <contour>
        <pt x="1523" y="371" on="1"/>
        <pt x="1523" y="453" on="1"/>
        <pt x="1523" y="496" on="0"/>
        <pt x="1519" y="511" on="1"/>
        <pt x="1517" y="544" on="0"/>
        <pt x="1508" y="553" on="1"/>
        <pt x="1505" y="566" on="0"/>
        <pt x="1495" y="586" on="1"/>
        <pt x="1474" y="630" on="1"/>
        <pt x="1451" y="670" on="1"/>
        <pt x="1434" y="699" on="0"/>
        <pt x="1397" y="742" on="1"/>
        <pt x="1342" y="805" on="0"/>
        <pt x="1255" y="864" on="1"/>
        <pt x="1099" y="969" on="0"/>
        <pt x="907" y="965" on="1"/>
        <pt x="863" y="964" on="1"/>
        <pt x="844" y="964" on="0"/>
        <pt x="837" y="960" on="1"/>
        <pt x="817" y="957" on="0"/>
        <pt x="776" y="942" on="1"/>
        <pt x="758" y="940" on="1"/>
        <pt x="738" y="935" on="1"/>
        <pt x="684" y="916" on="1"/>
        <pt x="647" y="900" on="1"/>
        <pt x="480" y="828" on="0"/>
        <pt x="374" y="660" on="1"/>
        <pt x="271" y="497" on="0"/>
        <pt x="271" y="310" on="1"/>
        <pt x="271" y="273" on="1"/>
        <pt x="271" y="257" on="0"/>
        <pt x="278" y="237" on="1"/>
        <pt x="287" y="175" on="1"/>
        <pt x="292" y="144" on="0"/>
        <pt x="306" y="112" on="1"/>
        <pt x="315" y="81" on="1"/>
        <pt x="330" y="46" on="1"/>
        <pt x="398" y="-114" on="0"/>
        <pt x="571" y="-225" on="1"/>
        <pt x="749" y="-338" on="0"/>
        <pt x="921" y="-331" on="1"/>
        <pt x="1005" y="-328" on="1"/>
        <pt x="1025" y="-324" on="1"/>
        <pt x="1037" y="-324" on="0"/>
        <pt x="1040" y="-322" on="1"/>
        <pt x="1050" y="-322" on="0"/>
        <pt x="1059" y="-317" on="1"/>
        <pt x="1092" y="-310" on="1"/>
        <pt x="1113" y="-305" on="0"/>
        <pt x="1122" y="-300" on="1"/>
        <pt x="1183" y="-273" on="1"/>
        <pt x="1261" y="-238" on="0"/>
        <pt x="1328" y="-175" on="1"/>
        <pt x="1350" y="-154" on="0"/>
        <pt x="1392" y="-105" on="1"/>
        <pt x="1448" y="-23" on="1"/>
        <pt x="1467" y="15" on="1"/>
        <pt x="1486" y="59" on="1"/>
        <pt x="1500" y="97" on="1"/>
        <pt x="1513" y="139" on="1"/>
        <pt x="1532" y="225" on="1"/>
        <pt x="1533" y="250" on="1"/>
        <pt x="1535" y="269" on="1"/>
        <pt x="1537" y="318" on="1"/>
        <pt x="1537" y="345" on="1"/>
      </contour>
    </TTGlyph>
    <TTGlyph name="Aring" xMin="65" yMin="-402" xMax="1765" yMax="1012">
      <contour>
        <pt x="65" y="1012" on="1"/>
        <pt x="210" y="1012" on="1"/>
        <pt x="496" y="-6" on="1"/>
        <pt x="901" y="1012" on="1"/>
        <pt x="929" y="1012" on="1"/>
        <pt x="1329" y="-6" on="1"/>
        <pt x="1621" y="1012" on="1"/>
        <pt x="1765" y="1012" on="1"/>
        <pt x="1361" y="-402" on="1"/>
        <pt x="1334" y="-402" on="1"/>
        <pt x="916" y="668" on="1"/>
        <pt x="490" y="-402" on="1"/>
        <pt x="463" y="-402" on="1"/>
      </contour>
    </TTGlyph>
    <TTGlyph name="Atilde" xMin="208" yMin="-385" xMax="1656" yMax="1043">
      <contour>
        <pt x="323" y="306" on="1"/>
        <pt x="323" y="417" on="0"/>
        <pt x="334" y="468" on="1"/>
        <pt x="342" y="505" on="1"/>
        <pt x="351" y="540" on="1"/>
        <pt x="375" y="596" on="1"/>
        <pt x="428" y="710" on="1"/>
        <pt x="442" y="740" on="0"/>
        <pt x="469" y="768" on="1"/>
        <pt x="513" y="814" on="1"/>
        <pt x="525" y="827" on="0"/>
        <pt x="563" y="854" on="1"/>
        <pt x="587" y="871" on="0"/>
        <pt x="609" y="884" on="1"/>
        <pt x="659" y="913" on="1"/>
        <pt x="685" y="924" on="1"/>
        <pt x="713" y="937" on="1"/>
        <pt x="762" y="960" on="0"/>
        <pt x="812" y="967" on="1"/>
        <pt x="861" y="974" on="1"/>
        <pt x="911" y="977" on="1"/>
        <pt x="1034" y="984" on="0"/>
        <pt x="1138" y="937" on="1"/>
        <pt x="1195" y="911" on="1"/>
        <pt x="1245" y="884" on="1"/>
        <pt x="1292" y="853" on="1"/>
        <pt x="1338" y="816" on="1"/>
        <pt x="1393" y="762" on="1"/>
        <pt x="1439" y="710" on="1"/>
        <pt x="1478" y="653" on="1"/>
        <pt x="1507" y="596" on="1"/>
        <pt x="1527" y="555" on="1"/>
        <pt x="1535" y="530" on="1"/>
        <pt x="1555" y="460" on="1"/>
        <pt x="1568" y="389" on="1"/>
        <pt x="1581" y="306" on="1"/>
      </contour>
      <contour>
        <pt x="282" y="35" on="1"/>
        <pt x="245" y="116" on="0"/>
        <pt x="234" y="181" on="1"/>
        <pt x="222" y="255" on="1"/>
        <pt x="218" y="329" on="1"/>
        <pt x="208" y="517" on="0"/>
        <pt x="330" y="715" on="1"/>
        <pt x="374" y="786" on="0"/>
        <pt x="462" y="870" on="1"/>
        <pt x="532" y="937" on="0"/>
        <pt x="637" y="984" on="1"/>
        <pt x="715" y="1011" on="1"/>
        <pt x="780" y="1032" on="1"/>
        <pt x="852" y="1043" on="1"/>
        <pt x="930" y="1043" on="1"/>
        <pt x="1144" y="1043" on="0"/>
        <pt x="1313" y="933" on="1"/>
        <pt x="1476" y="827" on="0"/>
        <pt x="1582" y="622" on="1"/>
        <pt x="1607" y="560" on="1"/>
        <pt x="1630" y="480" on="1"/>
        <pt x="1642" y="405" on="1"/>
        <pt x="1646" y="330" on="1"/>
        <pt x="1656" y="141" on="0"/>
        <pt x="1418" y="-247" on="0"/>
        <pt x="1227" y="-325" on="1"/>
        <pt x="1193" y="-339" on="1"/>
        <pt x="1156" y="-353" on="1"/>
        <pt x="1119" y="-365" on="1"/>
        <pt x="1079" y="-374" on="1"/>
        <pt x="1027" y="-382" on="1"/>
        <pt x="1011" y="-385" on="1"/>
        <pt x="934" y="-385" on="1"/>
        <pt x="876" y="-385" on="0"/>
        <pt x="825" y="-378" on="1"/>
        <pt x="761" y="-369" on="0"/>
        <pt x="732" y="-356" on="1"/>
        <pt x="651" y="-337" on="0"/>
        <pt x="547" y="-272" on="1"/>
        <pt x="375" y="-165" on="0"/>
      </contour>
      <contour>
        <pt x="323" y="275" on="1"/>
        <pt x="323" y="193" on="1"/>
        <pt x="323" y="150" on="0"/>
        <pt x="327" y="135" on="1"/>
        <pt x="329" y="102" on="0"/>
        <pt x="338" y="93" on="1"/>
        <pt x="341" y="80" on="0"/>
        <pt x="351" y="60" on="1"/>
        <pt x="372" y="16" on="1"/>
        <pt x="395" y="-24" on="1"/>
        <pt x="412" y="-53" on="0"/>
        <pt x="449" y="-96" on="1"/>
        <pt x="504" y="-159" on="0"/>
        <pt x="591" y="-218" on="1"/>
        <pt x="747" y="-323" on="0"/>
        <pt x="939" y="-319" on="1"/>
        <pt x="983" y="-318" on="1"/>
        <pt x="1002" y="-318" on="0"/>
        <pt x="1009" y="-314" on="1"/>
        <pt x="1029" y="-311" on="0"/>
        <pt x="1070" y="-296" on="1"/>
        <pt x="1088" y="-294" on="1"/>
        <pt x="1108" y="-289" on="1"/>
        <pt x="1162" y="-270" on="1"/>
        <pt x="1199" y="-254" on="1"/>
        <pt x="1366" y="-182" on="0"/>
        <pt x="1472" y="-14" on="1"/>
        <pt x="1575" y="149" on="0"/>
        <pt x="1575" y="336" on="1"/>
        <pt x="1575" y="373" on="1"/>
        <pt x="1575" y="389" on="0"/>
        <pt x="1568" y="409" on="1"/>
        <pt x="1559" y="471" on="1"/>
        <pt x="1554" y="502" on="0"/>
        <pt x="1540" y="534" on="1"/>
        <pt x="1531" y="565" on="1"/>
        <pt x="1516" y="600" on="1"/>
        <pt x="1448" y="760" on="0"/>
        <pt x="1275" y="871" on="1"/>
        <pt x="1097" y="984" on="0"/>
        <pt x="925" y="977" on="1"/>
        <pt x="841" y="974" on="1"/>
        <pt x="821" y="970" on="1"/>
        <pt x="809" y="970" on="0"/>
        <pt x="806" y="968" on="1"/>
        <pt x="796" y="968" on="0"/>
        <pt x="787" y="963" on="1"/>
        <pt x="754" y="956" on="1"/>
        <pt x="733" y="951" on="0"/>
        <pt x="724" y="946" on="1"/>
        <pt x="663" y="919" on="1"/>
        <pt x="585" y="884" on="0"/>
        <pt x="518" y="821" on="1"/>
        <pt x="496" y="800" on="0"/>
        <pt x="454" y="751" on="1"/>
        <pt x="398" y="669" on="1"/>
        <pt x="379" y="631" on="1"/>
        <pt x="360" y="587" on="1"/>
        <pt x="346" y="549" on="1"/>
        <pt x="333" y="507" on="1"/>
        <pt x="314" y="421" on="1"/>
        <pt x="313" y="396" on="1"/>
        <pt x="311" y="377" on="1"/>
        <pt x="309" y="328" on="1"/>
        <pt x="309" y="301" on="1"/>
      </contour>
    </TTGlyph>
    <TTGlyph name="B" xMin="310" yMin="-528" xMax="1528" yMax="1201">
      <contour>
        <pt x="430" y="316" on="1"/>
        <pt x="910" y="-359" on="1"/>
        <pt x="1400" y="327" on="1"/>
        <pt x="918" y="1018" on="1"/>
      </contour>
      <contour>
        <pt x="310" y="327" on="1"/>
        <pt x="917" y="1201" on="1"/>
        <pt x="1528" y="327" on="1"/>
        <pt x="917" y="-528" on="1"/>
      </contour>
    </TTGlyph>
    <TTGlyph name="C" xMin="306" yMin="-311" xMax="1544" yMax="1034">
      <contour>
        <pt x="397" y="892" on="0"/>
        <pt x="683" y="1034" on="0"/>
        <pt x="860" y="1034" on="1"/>
        <pt x="1154" y="1034" on="0"/>
        <pt x="1544" y="650" on="0"/>
        <pt x="1544" y="369" on="1"/>
        <pt x="1544" y="102" on="0"/>
        <pt x="1383" y="-87" on="1"/>
        <pt x="1191" y="-311" on="0"/>
        <pt x="859" y="-311" on="1"/>
        <pt x="684" y="-311" on="0"/>
        <pt x="401" y="-177" on="0"/>
        <pt x="306" y="-55" on="1"/>
        <pt x="406" y="21" on="1"/>
        <pt x="585" y="-189" on="0"/>
        <pt x="851" y="-189" on="1"/>
        <pt x="1093" y="-189" on="0"/>
        <pt x="1411" y="123" on="0"/>
        <pt x="1411" y="358" on="1"/>
        <pt x="1411" y="513" on="0"/>
        <pt x="1269" y="761" on="0"/>
        <pt x="1010" y="908" on="0"/>
        <pt x="859" y="908" on="1"/>
        <pt x="720" y="908" on="0"/>
        <pt x="489" y="795" on="0"/>
        <pt x="406" y="687" on="1"/>
        <pt x="306" y="764" on="1"/>
      </contour>
    </TTGlyph>
    <TTGlyph name="Ccedilla" xMin="330" yMin="-169" xMax="1445" yMax="903">
      <contour>
        <pt x="1305" y="-169" on="1"/>
        <pt x="1305" y="753" on="1"/>
        <pt x="330" y="753" on="1"/>
        <pt x="330" y="903" on="1"/>
        <pt x="1445" y="903" on="1"/>
        <pt x="1445" y="-169" on="1"/>
      </contour>
      <contour>
        <pt x="972" y="-169" on="1"/>
        <pt x="972" y="402" on="1"/>
        <pt x="338" y="402" on="1"/>
        <pt x="338" y="551" on="1"/>
        <pt x="1112" y="551" on="1"/>
        <pt x="1112" y="-169" on="1"/>
      </contour>
    </TTGlyph>
    <TTGlyph name="D" xMin="257" yMin="-321" xMax="1581" yMax="989">
      <contour>
        <pt x="1581" y="-321" on="1"/>
        <pt x="257" y="-321" on="1"/>
        <pt x="257" y="989" on="1"/>
        <pt x="1581" y="989" on="1"/>
      </contour>
      <contour>
        <pt x="1375" y="869" on="1"/>
        <pt x="395" y="869" on="1"/>
        <pt x="919" y="405" on="1"/>
      </contour>
      <contour>
        <pt x="1426" y="-219" on="1"/>
        <pt x="914" y="274" on="1"/>
        <pt x="412" y="-219" on="1"/>
      </contour>
      <contour>
        <pt x="1494" y="-142" on="1"/>
        <pt x="1494" y="819" on="1"/>
        <pt x="1008" y="350" on="1"/>
      </contour>
      <contour>
        <pt x="361" y="-124" on="1"/>
        <pt x="836" y="342" on="1"/>
        <pt x="361" y="763" on="1"/>
      </contour>
    </TTGlyph>
    <TTGlyph name="E" xMin="529" yMin="-390" xMax="1372" yMax="1081">
      <contour>
        <pt x="529" y="1081" on="1"/>
        <pt x="1372" y="1081" on="1"/>
        <pt x="1372" y="936" on="1"/>
        <pt x="676" y="936" on="1"/>
        <pt x="676" y="476" on="1"/>
        <pt x="1366" y="476" on="1"/>
        <pt x="1366" y="332" on="1"/>
        <pt x="676" y="332" on="1"/>
        <pt x="676" y="-245" on="1"/>
        <pt x="1366" y="-245" on="1"/>
        <pt x="1366" y="-390" on="1"/>
        <pt x="529" y="-390" on="1"/>
      </contour>
    </TTGlyph>
    <TTGlyph name="Eacute" xMin="405" yMin="-203" xMax="1477" yMax="912">
      <contour>
        <pt x="1477" y="-203" on="1"/>
        <pt x="405" y="-203" on="1"/>
        <pt x="405" y="912" on="1"/>
        <pt x="555" y="912" on="1"/>
        <pt x="555" y="-63" on="1"/>
        <pt x="1477" y="-63" on="1"/>
      </contour>
      <contour>
        <pt x="1477" y="130" on="1"/>
        <pt x="757" y="130" on="1"/>
        <pt x="757" y="904" on="1"/>
        <pt x="906" y="904" on="1"/>
        <pt x="906" y="270" on="1"/>
        <pt x="1477" y="270" on="1"/>
      </contour>
    </TTGlyph>
    <TTGlyph name="Ecircumflex" xMin="57" yMin="-474" xMax="1767" yMax="1154">
      <contour>
        <pt x="913" y="1012" on="1"/>
        <pt x="187" y="-474" on="1"/>
        <pt x="57" y="-471" on="1"/>
        <pt x="851" y="1154" on="1"/>
        <pt x="975" y="1154" on="1"/>
        <pt x="1767" y="-471" on="1"/>
        <pt x="1637" y="-474" on="1"/>
      </contour>
      <contour>
        <pt x="909" y="379" on="1"/>
        <pt x="1371" y="-421" on="1"/>
        <pt x="1241" y="-421" on="1"/>
        <pt x="913" y="187" on="1"/>
        <pt x="585" y="-421" on="1"/>
        <pt x="455" y="-421" on="1"/>
      </contour>
    </TTGlyph>
    <TTGlyph name="Edieresis" xMin="174" yMin="-351" xMax="1574" yMax="1049">
      <contour>
        <pt x="1574" y="-351" on="1"/>
        <pt x="174" y="1049" on="1"/>
        <pt x="1574" y="1049" on="1"/>
      </contour>
      <contour>
        <pt x="1434" y="-3" on="1"/>
        <pt x="1434" y="907" on="1"/>
        <pt x="529" y="907" on="1"/>
      </contour>
    </TTGlyph>
    <TTGlyph name="Egrave" xMin="262" yMin="-370" xMax="1662" yMax="1030">
      <contour>
        <pt x="262" y="1030" on="1"/>
        <pt x="1662" y="1030" on="1"/>
        <pt x="262" y="-370" on="1"/>
      </contour>
      <contour>
        <pt x="1307" y="887" on="1"/>
        <pt x="402" y="887" on="1"/>
        <pt x="402" y="-23" on="1"/>
      </contour>
    </TTGlyph>
    <TTGlyph name="Eth" xMin="466" yMin="-430" xMax="1362" yMax="1103">
      <contour>
        <pt x="831" y="-430" on="1"/>
        <pt x="831" y="65" on="1"/>
        <pt x="466" y="65" on="1"/>
        <pt x="466" y="207" on="1"/>
        <pt x="831" y="207" on="1"/>
        <pt x="831" y="502" on="1"/>
        <pt x="466" y="502" on="1"/>
        <pt x="466" y="643" on="1"/>
        <pt x="831" y="643" on="1"/>
        <pt x="831" y="1103" on="1"/>
        <pt x="997" y="1103" on="1"/>
        <pt x="997" y="643" on="1"/>
        <pt x="1362" y="643" on="1"/>
        <pt x="1362" y="502" on="1"/>
        <pt x="997" y="502" on="1"/>
        <pt x="997" y="207" on="1"/>
        <pt x="1362" y="207" on="1"/>
        <pt x="1362" y="65" on="1"/>
        <pt x="997" y="65" on="1"/>
        <pt x="997" y="-429" on="1"/>
      </contour>
    </TTGlyph>
    <TTGlyph name="F" xMin="460" yMin="-331" xMax="1425" yMax="1033">
      <contour>
        <pt x="460" y="-331" on="1"/>
        <pt x="460" y="1033" on="1"/>
        <pt x="1425" y="1033" on="1"/>
        <pt x="1425" y="872" on="1"/>
        <pt x="649" y="872" on="1"/>
        <pt x="649" y="449" on="1"/>
        <pt x="1321" y="449" on="1"/>
        <pt x="1321" y="288" on="1"/>
        <pt x="649" y="288" on="1"/>
        <pt x="649" y="-331" on="1"/>
      </contour>
    </TTGlyph>
    <TTGlyph name="G" xMin="192" yMin="-383" xMax="1636" yMax="1062">
      <contour>
        <pt x="481" y="772" on="1"/>
        <pt x="302" y="593" on="0"/>
        <pt x="302" y="85" on="0"/>
        <pt x="481" y="-94" on="1"/>
        <pt x="657" y="-270" on="0"/>
        <pt x="1171" y="-269" on="0"/>
        <pt x="1347" y="-93" on="1"/>
        <pt x="1526" y="86" on="0"/>
        <pt x="1527" y="593" on="0"/>
        <pt x="1348" y="772" on="1"/>
        <pt x="1170" y="951" on="0"/>
        <pt x="659" y="951" on="0"/>
      </contour>
      <contour>
        <pt x="404" y="849" on="1"/>
        <pt x="616" y="1062" on="0"/>
        <pt x="1212" y="1061" on="0"/>
        <pt x="1424" y="849" on="1"/>
        <pt x="1636" y="637" on="0"/>
        <pt x="1635" y="41" on="0"/>
        <pt x="1424" y="-170" on="1"/>
        <pt x="1212" y="-382" on="0"/>
        <pt x="617" y="-383" on="0"/>
        <pt x="405" y="-170" on="1"/>
        <pt x="193" y="41" on="0"/>
        <pt x="192" y="637" on="0"/>
      </contour>
      <contour>
        <pt x="436" y="726" on="1"/>
        <pt x="821" y="339" on="1"/>
        <pt x="437" y="-45" on="1"/>
        <pt x="458" y="-69" on="1"/>
        <pt x="481" y="-94" on="1"/>
        <pt x="505" y="-117" on="1"/>
        <pt x="530" y="-137" on="1"/>
        <pt x="914" y="246" on="1"/>
        <pt x="1298" y="-136" on="1"/>
        <pt x="1345" y="-94" on="1"/>
        <pt x="1374" y="-65" on="1"/>
        <pt x="1390" y="-44" on="1"/>
        <pt x="1007" y="340" on="1"/>
        <pt x="1391" y="724" on="1"/>
        <pt x="1357" y="761" on="1"/>
        <pt x="1327" y="792" on="1"/>
        <pt x="1301" y="818" on="1"/>
        <pt x="915" y="432" on="1"/>
        <pt x="530" y="816" on="1"/>
        <pt x="470" y="761" on="1"/>
      </contour>
    </TTGlyph>
    <TTGlyph name="H" xMin="527" yMin="-103" xMax="1301" yMax="797">
      <contour>
        <pt x="1301" y="-103" on="1"/>
        <pt x="1130" y="-103" on="1"/>
        <pt x="1130" y="273" on="1"/>
        <pt x="698" y="273" on="1"/>
        <pt x="698" y="-103" on="1"/>
        <pt x="527" y="-103" on="1"/>
        <pt x="527" y="797" on="1"/>
        <pt x="698" y="797" on="1"/>
        <pt x="698" y="430" on="1"/>
        <pt x="1130" y="430" on="1"/>
        <pt x="1130" y="797" on="1"/>
        <pt x="1301" y="797" on="1"/>
      </contour>
    </TTGlyph>
    <TTGlyph name="I" xMin="232" yMin="-323" xMax="1634" yMax="1021">
      <contour>
        <pt x="909" y="296" on="1"/>
        <pt x="232" y="-317" on="1"/>
        <pt x="232" y="1016" on="1"/>
        <pt x="909" y="402" on="1"/>
        <pt x="1634" y="1021" on="1"/>
        <pt x="1634" y="-323" on="1"/>
      </contour>
    </TTGlyph>
    <TTGlyph name="Iacute" xMin="213" yMin="-325" xMax="1613" yMax="1075">
      <contour>
        <pt x="213" y="-325" on="1"/>
        <pt x="1613" y="1075" on="1"/>
        <pt x="1613" y="-325" on="1"/>
      </contour>
      <contour>
        <pt x="560" y="-185" on="1"/>
        <pt x="1470" y="-185" on="1"/>
        <pt x="1470" y="720" on="1"/>
      </contour>
    </TTGlyph>
    <TTGlyph name="Icircumflex" xMin="239" yMin="-355" xMax="1639" yMax="1045">
      <contour>
        <pt x="239" y="-355" on="1"/>
        <pt x="239" y="1045" on="1"/>
        <pt x="1639" y="-355" on="1"/>
      </contour>
      <contour>
        <pt x="382" y="690" on="1"/>
        <pt x="382" y="-215" on="1"/>
        <pt x="1292" y="-215" on="1"/>
      </contour>
    </TTGlyph>
    <TTGlyph name="Idieresis" xMin="271" yMin="-203" xMax="1561" yMax="852">
      <contour>
        <pt x="271" y="852" on="1"/>
        <pt x="385" y="852" on="1"/>
        <pt x="917" y="445" on="1"/>
        <pt x="1437" y="852" on="1"/>
        <pt x="1561" y="852" on="1"/>
        <pt x="1561" y="-203" on="1"/>
        <pt x="1437" y="-203" on="1"/>
        <pt x="917" y="233" on="1"/>
        <pt x="385" y="-203" on="1"/>
        <pt x="271" y="-203" on="1"/>
      </contour>
      <contour>
        <pt x="385" y="-47" on="1"/>
        <pt x="851" y="344" on="1"/>
        <pt x="385" y="695" on="1"/>
      </contour>
      <contour>
        <pt x="975" y="344" on="1"/>
        <pt x="1437" y="-27" on="1"/>
        <pt x="1437" y="695" on="1"/>
      </contour>
    </TTGlyph>
    <TTGlyph name="Igrave" xMin="380" yMin="-327" xMax="1435" yMax="963">
      <contour>
        <pt x="1435" y="963" on="1"/>
        <pt x="1435" y="849" on="1"/>
        <pt x="1028" y="317" on="1"/>
        <pt x="1435" y="-203" on="1"/>
        <pt x="1435" y="-327" on="1"/>
        <pt x="380" y="-327" on="1"/>
        <pt x="380" y="-203" on="1"/>
        <pt x="816" y="317" on="1"/>
        <pt x="380" y="849" on="1"/>
        <pt x="380" y="963" on="1"/>
      </contour>
      <contour>
        <pt x="536" y="849" on="1"/>
        <pt x="927" y="383" on="1"/>
        <pt x="1278" y="849" on="1"/>
      </contour>
      <contour>
        <pt x="927" y="259" on="1"/>
        <pt x="556" y="-203" on="1"/>
        <pt x="1278" y="-203" on="1"/>
      </contour>
    </TTGlyph>
    <TTGlyph name="J" xMin="444" yMin="-210" xMax="1436" yMax="998">
      <contour>
        <pt x="977" y="998" on="1"/>
        <pt x="1436" y="998" on="1"/>
        <pt x="1436" y="926" on="1"/>
        <pt x="1390" y="926" on="1"/>
        <pt x="1344" y="926" on="0"/>
        <pt x="1305" y="907" on="0"/>
        <pt x="1285" y="866" on="0"/>
        <pt x="1285" y="825" on="1"/>
        <pt x="1285" y="198" on="1"/>
        <pt x="1285" y="56" on="0"/>
        <pt x="1192" y="-105" on="0"/>
        <pt x="988" y="-210" on="0"/>
        <pt x="850" y="-210" on="1"/>
        <pt x="667" y="-210" on="0"/>
        <pt x="444" y="-17" on="0"/>
        <pt x="444" y="110" on="1"/>
        <pt x="444" y="174" on="0"/>
        <pt x="503" y="244" on="0"/>
        <pt x="546" y="244" on="1"/>
        <pt x="581" y="244" on="0"/>
        <pt x="626" y="193" on="0"/>
        <pt x="626" y="152" on="1"/>
        <pt x="626" y="140" on="0"/>
        <pt x="620" y="103" on="1"/>
        <pt x="612" y="65" on="0"/>
        <pt x="612" y="50" on="1"/>
        <pt x="612" y="-13" on="0"/>
        <pt x="742" y="-116" on="0"/>
        <pt x="845" y="-116" on="1"/>
        <pt x="930" y="-116" on="0"/>
        <pt x="1066" y="-41" on="0"/>
        <pt x="1125" y="71" on="0"/>
        <pt x="1125" y="177" on="1"/>
        <pt x="1125" y="798" on="1"/>
        <pt x="1125" y="861" on="0"/>
        <pt x="1106" y="904" on="0"/>
        <pt x="1063" y="926" on="0"/>
        <pt x="1005" y="926" on="1"/>
        <pt x="977" y="926" on="1"/>
      </contour>
    </TTGlyph>
    <TTGlyph name="K" xMin="247" yMin="-359" xMax="1591" yMax="1043">
      <contour>
        <pt x="866" y="366" on="1"/>
        <pt x="253" y="1043" on="1"/>
        <pt x="1586" y="1043" on="1"/>
        <pt x="972" y="366" on="1"/>
        <pt x="1591" y="-359" on="1"/>
        <pt x="247" y="-359" on="1"/>
      </contour>
    </TTGlyph>
    <TTGlyph name="L" xMin="464" yMin="-178" xMax="1394" yMax="862">
      <contour>
        <pt x="1394" y="-178" on="1"/>
        <pt x="464" y="-178" on="1"/>
        <pt x="464" y="862" on="1"/>
        <pt x="594" y="862" on="1"/>
        <pt x="594" y="-48" on="1"/>
        <pt x="1394" y="-48" on="1"/>
      </contour>
    </TTGlyph>
    <TTGlyph name="M" xMin="447" yMin="-274" xMax="1379" yMax="943">
      <contour>
        <pt x="582" y="-274" on="1"/>
        <pt x="447" y="-274" on="1"/>
        <pt x="447" y="943" on="1"/>
        <pt x="582" y="943" on="1"/>
      </contour>
      <contour>
        <pt x="981" y="-274" on="1"/>
        <pt x="845" y="-274" on="1"/>
        <pt x="845" y="943" on="1"/>
        <pt x="981" y="943" on="1"/>
      </contour>
      <contour>
        <pt x="1379" y="-274" on="1"/>
        <pt x="1243" y="-274" on="1"/>
        <pt x="1243" y="943" on="1"/>
        <pt x="1379" y="943" on="1"/>
      </contour>
    </TTGlyph>
    <TTGlyph name="N" xMin="122" yMin="-433" xMax="1675" yMax="1120">
      <contour>
        <pt x="233" y="761" on="1"/>
        <pt x="1316" y="-321" on="1"/>
        <pt x="1205" y="-433" on="1"/>
        <pt x="122" y="650" on="1"/>
      </contour>
      <contour>
        <pt x="592" y="1120" on="1"/>
        <pt x="1675" y="37" on="1"/>
        <pt x="1564" y="-74" on="1"/>
        <pt x="481" y="1009" on="1"/>
      </contour>
    </TTGlyph>
    <TTGlyph name="Ntilde" xMin="152" yMin="10" xMax="1696" yMax="732">
      <contour>
        <pt x="1696" y="500" on="1"/>
        <pt x="152" y="500" on="1"/>
        <pt x="152" y="732" on="1"/>
        <pt x="1696" y="732" on="1"/>
      </contour>
      <contour>
        <pt x="1696" y="10" on="1"/>
        <pt x="152" y="10" on="1"/>
        <pt x="152" y="242" on="1"/>
        <pt x="1696" y="242" on="1"/>
      </contour>
    </TTGlyph>
    <TTGlyph name="O" xMin="182" yMin="-396" xMax="1666" yMax="1070">
      <contour>
        <pt x="182" y="336" on="1"/>
        <pt x="182" y="625" on="0"/>
        <pt x="398" y="850" on="1"/>
        <pt x="505" y="961" on="0"/>
        <pt x="772" y="1070" on="0"/>
        <pt x="924" y="1070" on="1"/>
        <pt x="1224" y="1070" on="0"/>
        <pt x="1666" y="636" on="0"/>
        <pt x="1666" y="336" on="1"/>
        <pt x="1666" y="36" on="0"/>
        <pt x="1225" y="-396" on="0"/>
        <pt x="924" y="-396" on="1"/>
        <pt x="621" y="-396" on="0"/>
        <pt x="182" y="33" on="0"/>
      </contour>
    </TTGlyph>
    <TTGlyph name="OE" xMin="403" yMin="-518" xMax="1465" yMax="1172">
      <contour>
        <pt x="1465" y="1" on="1"/>
        <pt x="1220" y="-217" on="1"/>
        <pt x="1032" y="-217" on="1"/>
        <pt x="1032" y="-518" on="1"/>
        <pt x="836" y="-518" on="1"/>
        <pt x="836" y="-217" on="1"/>
        <pt x="647" y="-217" on="1"/>
        <pt x="403" y="27" on="1"/>
        <pt x="403" y="602" on="1"/>
        <pt x="647" y="844" on="1"/>
        <pt x="836" y="844" on="1"/>
        <pt x="836" y="1172" on="1"/>
        <pt x="1032" y="1172" on="1"/>
        <pt x="1032" y="844" on="1"/>
        <pt x="1222" y="844" on="1"/>
        <pt x="1465" y="602" on="1"/>
      </contour>
      <contour>
        <pt x="1255" y="52" on="1"/>
        <pt x="1255" y="559" on="1"/>
        <pt x="1190" y="634" on="1"/>
        <pt x="1045" y="634" on="1"/>
        <pt x="1045" y="-8" on="1"/>
        <pt x="1179" y="-8" on="1"/>
        <pt x="1238" y="52" on="1"/>
      </contour>
      <contour>
        <pt x="836" y="-8" on="1"/>
        <pt x="836" y="634" on="1"/>
        <pt x="689" y="634" on="1"/>
        <pt x="613" y="577" on="1"/>
        <pt x="613" y="71" on="1"/>
        <pt x="691" y="-8" on="1"/>
      </contour>
    </TTGlyph>
    <TTGlyph name="Oacute" xMin="602" yMin="-409" xMax="1166" yMax="1123">
      <contour>
        <pt x="759" y="1123" on="1"/>
        <pt x="759" y="-409" on="1"/>
        <pt x="602" y="-409" on="1"/>
        <pt x="602" y="1123" on="1"/>
      </contour>
      <contour>
        <pt x="1166" y="1123" on="1"/>
        <pt x="1166" y="-409" on="1"/>
        <pt x="1009" y="-409" on="1"/>
        <pt x="1009" y="1123" on="1"/>
      </contour>
    </TTGlyph>
    <TTGlyph name="Ocircumflex" xMin="371" yMin="-307" xMax="1545" yMax="869">
      <contour>
        <pt x="371" y="-307" on="1"/>
        <pt x="371" y="869" on="1"/>
        <pt x="1545" y="-306" on="1"/>
      </contour>
    </TTGlyph>
    <TTGlyph name="Odieresis" xMin="336" yMin="-224" xMax="1515" yMax="952">
      <contour>
        <pt x="336" y="-224" on="1"/>
        <pt x="336" y="952" on="1"/>
        <pt x="1515" y="952" on="1"/>
      </contour>
    </TTGlyph>
    <TTGlyph name="Ograve" xMin="390" yMin="-236" xMax="1428" yMax="930">
      <contour>
        <pt x="1428" y="-236" on="1"/>
        <pt x="390" y="-236" on="1"/>
        <pt x="390" y="930" on="1"/>
        <pt x="718" y="930" on="1"/>
        <pt x="718" y="65" on="1"/>
        <pt x="1428" y="65" on="1"/>
      </contour>
    </TTGlyph>
    <TTGlyph name="Oslash" xMin="172" yMin="-198" xMax="1674" yMax="901">
      <contour>
        <pt x="925" y="901" on="1"/>
        <pt x="919" y="824" on="1"/>
        <pt x="398" y="401" on="1"/>
        <pt x="1674" y="401" on="1"/>
        <pt x="1674" y="289" on="1"/>
        <pt x="398" y="289" on="1"/>
        <pt x="924" y="-119" on="1"/>
        <pt x="924" y="-198" on="1"/>
        <pt x="854" y="-198" on="1"/>
        <pt x="172" y="348" on="1"/>
        <pt x="857" y="900" on="1"/>
      </contour>
    </TTGlyph>
    <TTGlyph name="Otilde" xMin="307" yMin="-249" xMax="1481" yMax="936">
      <contour>
        <pt x="307" y="-249" on="1"/>
        <pt x="1481" y="936" on="1"/>
        <pt x="1481" y="-249" on="1"/>
      </contour>
    </TTGlyph>
    <TTGlyph name="P" xMin="309" yMin="-310" xMax="1526" yMax="962">
      <contour>
        <pt x="1095" y="962" on="1"/>
        <pt x="1095" y="506" on="1"/>
        <pt x="1526" y="506" on="1"/>
        <pt x="1526" y="145" on="1"/>
        <pt x="1095" y="145" on="1"/>
        <pt x="1095" y="-310" on="1"/>
        <pt x="717" y="-310" on="1"/>
        <pt x="717" y="145" on="1"/>
        <pt x="309" y="145" on="1"/>
        <pt x="309" y="506" on="1"/>
        <pt x="717" y="506" on="1"/>
        <pt x="717" y="962" on="1"/>
      </contour>
    </TTGlyph>
    <TTGlyph name="Q" xMin="232" yMin="-309" xMax="1596" yMax="1023">
      <contour>
        <pt x="915" y="594" on="1"/>
        <pt x="1011" y="594" on="0"/>
        <pt x="1152" y="451" on="0"/>
        <pt x="1152" y="355" on="1"/>
        <pt x="1152" y="260" on="0"/>
        <pt x="1010" y="118" on="0"/>
        <pt x="915" y="118" on="1"/>
        <pt x="817" y="118" on="0"/>
        <pt x="676" y="257" on="0"/>
        <pt x="676" y="355" on="1"/>
        <pt x="676" y="451" on="0"/>
        <pt x="745" y="523" on="1"/>
        <pt x="752" y="533" on="0"/>
        <pt x="759" y="538" on="1"/>
        <pt x="778" y="552" on="1"/>
        <pt x="822" y="575" on="1"/>
        <pt x="898" y="594" on="0"/>
      </contour>
      <contour>
        <pt x="915" y="911" on="1"/>
        <pt x="798" y="911" on="0"/>
        <pt x="702" y="872" on="1"/>
        <pt x="599" y="830" on="0"/>
        <pt x="512" y="748" on="1"/>
        <pt x="343" y="589" on="0"/>
        <pt x="343" y="356" on="1"/>
        <pt x="343" y="124" on="0"/>
        <pt x="514" y="-38" on="1"/>
        <pt x="682" y="-198" on="0"/>
        <pt x="915" y="-198" on="1"/>
        <pt x="1149" y="-198" on="0"/>
        <pt x="1485" y="123" on="0"/>
        <pt x="1485" y="356" on="1"/>
        <pt x="1485" y="579" on="0"/>
        <pt x="1316" y="748" on="1"/>
        <pt x="1153" y="911" on="0"/>
      </contour>
      <contour>
        <pt x="915" y="1023" on="1"/>
        <pt x="1195" y="1023" on="0"/>
        <pt x="1395" y="831" on="1"/>
        <pt x="1596" y="636" on="0"/>
        <pt x="1596" y="357" on="1"/>
        <pt x="1596" y="78" on="0"/>
        <pt x="1195" y="-309" on="0"/>
        <pt x="915" y="-309" on="1"/>
        <pt x="630" y="-309" on="0"/>
        <pt x="430" y="-115" on="1"/>
        <pt x="342" y="-30" on="0"/>
        <pt x="232" y="234" on="0"/>
        <pt x="232" y="357" on="1"/>
        <pt x="232" y="637" on="0"/>
        <pt x="634" y="1023" on="0"/>
      </contour>
    </TTGlyph>
    <TTGlyph name="R" xMin="203" yMin="-493" xMax="1671" yMax="1164">
      <contour>
        <pt x="932" y="1164" on="1"/>
        <pt x="1671" y="346" on="1"/>
        <pt x="932" y="-493" on="1"/>
        <pt x="203" y="346" on="1"/>
      </contour>
      <contour>
        <pt x="596" y="644" on="1"/>
        <pt x="325" y="345" on="1"/>
        <pt x="596" y="33" on="1"/>
        <pt x="884" y="344" on="1"/>
      </contour>
      <contour>
        <pt x="924" y="1027" on="1"/>
        <pt x="660" y="722" on="1"/>
        <pt x="943" y="416" on="1"/>
        <pt x="1216" y="713" on="1"/>
      </contour>
      <contour>
        <pt x="1296" y="644" on="1"/>
        <pt x="1035" y="342" on="1"/>
        <pt x="1302" y="45" on="1"/>
        <pt x="1566" y="345" on="1"/>
      </contour>
      <contour>
        <pt x="941" y="270" on="1"/>
        <pt x="648" y="-46" on="1"/>
        <pt x="924" y="-363" on="1"/>
        <pt x="1223" y="-43" on="1"/>
      </contour>
    </TTGlyph>
    <TTGlyph name="S" xMin="214" yMin="-363" xMax="1635" yMax="1045">
      <contour>
        <pt x="1635" y="1045" on="1"/>
        <pt x="1635" y="-363" on="1"/>
        <pt x="214" y="-363" on="1"/>
        <pt x="214" y="1045" on="1"/>
      </contour>
    </TTGlyph>
    <TTGlyph name="Scaron" xMin="246" yMin="-326" xMax="1637" yMax="1001">
      <contour>
        <pt x="1637" y="927" on="1"/>
        <pt x="1594" y="894" on="0"/>
        <pt x="1518" y="829" on="1"/>
        <pt x="1468" y="781" on="1"/>
        <pt x="1411" y="724" on="1"/>
        <pt x="1288" y="590" on="1"/>
        <pt x="1168" y="441" on="1"/>
        <pt x="1106" y="359" on="1"/>
        <pt x="1050" y="282" on="1"/>
        <pt x="946" y="130" on="1"/>
        <pt x="900" y="57" on="1"/>
        <pt x="855" y="-18" on="1"/>
        <pt x="778" y="-166" on="1"/>
        <pt x="704" y="-215" on="1"/>
        <pt x="631" y="-269" on="1"/>
        <pt x="614" y="-280" on="1"/>
        <pt x="604" y="-289" on="1"/>
        <pt x="571" y="-326" on="1"/>
        <pt x="508" y="-150" on="1"/>
        <pt x="480" y="-88" on="1"/>
        <pt x="451" y="-26" on="1"/>
        <pt x="423" y="28" on="1"/>
        <pt x="396" y="72" on="1"/>
        <pt x="371" y="108" on="1"/>
        <pt x="368" y="118" on="0"/>
        <pt x="363" y="120" on="1"/>
        <pt x="351" y="135" on="1"/>
        <pt x="324" y="158" on="1"/>
        <pt x="295" y="175" on="1"/>
        <pt x="246" y="198" on="1"/>
        <pt x="370" y="328" on="0"/>
        <pt x="466" y="328" on="1"/>
        <pt x="499" y="328" on="0"/>
        <pt x="545" y="275" on="1"/>
        <pt x="595" y="217" on="0"/>
        <pt x="643" y="118" on="1"/>
        <pt x="662" y="79" on="1"/>
        <pt x="656" y="68" on="1"/>
        <pt x="667" y="85" on="1"/>
        <pt x="687" y="118" on="1"/>
        <pt x="736" y="189" on="1"/>
        <pt x="761" y="225" on="0"/>
        <pt x="836" y="326" on="1"/>
        <pt x="876" y="379" on="0"/>
        <pt x="930" y="439" on="1"/>
        <pt x="991" y="506" on="1"/>
        <pt x="1069" y="588" on="1"/>
        <pt x="1123" y="645" on="0"/>
        <pt x="1202" y="715" on="1"/>
        <pt x="1265" y="771" on="1"/>
        <pt x="1324" y="820" on="1"/>
        <pt x="1382" y="866" on="1"/>
        <pt x="1449" y="915" on="1"/>
        <pt x="1589" y="1001" on="1"/>
      </contour>
    </TTGlyph>
    <TTGlyph name="T" xMin="350" yMin="-187" xMax="1438" yMax="871">
      <contour>
        <pt x="1438" y="871" on="1"/>
        <pt x="1438" y="665" on="1"/>
        <pt x="997" y="665" on="1"/>
        <pt x="997" y="-187" on="1"/>
        <pt x="791" y="-187" on="1"/>
        <pt x="791" y="665" on="1"/>
        <pt x="350" y="665" on="1"/>
        <pt x="350" y="871" on="1"/>
      </contour>
    </TTGlyph>
    <TTGlyph name="Thorn" xMin="202" yMin="-338" xMax="1681" yMax="1071">
      <contour>
        <pt x="202" y="362" on="1"/>
        <pt x="1681" y="1071" on="1"/>
        <pt x="1681" y="-338" on="1"/>
      </contour>
      <contour>
        <pt x="1581" y="927" on="1"/>
        <pt x="402" y="362" on="1"/>
        <pt x="1581" y="-195" on="1"/>
      </contour>
    </TTGlyph>
    <TTGlyph name="U" xMin="359" yMin="-238" xMax="1499" yMax="902">
      <contour>
        <pt x="464" y="-133" on="1"/>
        <pt x="1388" y="-133" on="1"/>
        <pt x="1388" y="785" on="1"/>
      </contour>
      <contour>
        <pt x="359" y="902" on="1"/>
        <pt x="1499" y="902" on="1"/>
        <pt x="1499" y="-238" on="1"/>
        <pt x="359" y="-238" on="1"/>
      </contour>
    </TTGlyph>
    <TTGlyph name="Uacute" xMin="316" yMin="-408" xMax="1492" yMax="1028">
      <contour>
        <pt x="1492" y="203" on="1"/>
        <pt x="902" y="-408" on="1"/>
        <pt x="316" y="203" on="1"/>
        <pt x="814" y="203" on="1"/>
        <pt x="814" y="1028" on="1"/>
        <pt x="975" y="1028" on="1"/>
        <pt x="973" y="203" on="1"/>
      </contour>
      <contour>
        <pt x="1317" y="122" on="1"/>
        <pt x="504" y="122" on="1"/>
        <pt x="912" y="-302" on="1"/>
      </contour>
    </TTGlyph>
    <TTGlyph name="Ucircumflex" xMin="316" yMin="-324" xMax="1492" yMax="1112">
      <contour>
        <pt x="973" y="501" on="1"/>
        <pt x="975" y="-324" on="1"/>
        <pt x="814" y="-324" on="1"/>
        <pt x="814" y="501" on="1"/>
        <pt x="316" y="501" on="1"/>
        <pt x="902" y="1112" on="1"/>
        <pt x="1492" y="501" on="1"/>
      </contour>
      <contour>
        <pt x="902" y="1007" on="1"/>
        <pt x="494" y="582" on="1"/>
        <pt x="1307" y="582" on="1"/>
      </contour>
    </TTGlyph>
    <TTGlyph name="Udieresis" xMin="325" yMin="-3" xMax="1517" yMax="838">
      <contour>
        <pt x="876" y="452" on="1"/>
        <pt x="876" y="517" on="1"/>
        <pt x="876" y="624" on="0"/>
        <pt x="800" y="683" on="1"/>
        <pt x="772" y="705" on="0"/>
        <pt x="725" y="725" on="1"/>
        <pt x="664" y="741" on="0"/>
        <pt x="644" y="741" on="1"/>
        <pt x="570" y="741" on="0"/>
        <pt x="493" y="687" on="1"/>
        <pt x="455" y="661" on="0"/>
        <pt x="417" y="576" on="0"/>
        <pt x="417" y="517" on="1"/>
        <pt x="417" y="-3" on="1"/>
        <pt x="325" y="-3" on="1"/>
        <pt x="325" y="517" on="1"/>
        <pt x="325" y="658" on="0"/>
        <pt x="497" y="838" on="0"/>
        <pt x="637" y="838" on="1"/>
        <pt x="759" y="838" on="0"/>
        <pt x="859" y="758" on="1"/>
        <pt x="909" y="718" on="0"/>
        <pt x="940" y="656" on="1"/>
        <pt x="961" y="590" on="1"/>
        <pt x="966" y="555" on="1"/>
        <pt x="966" y="321" on="1"/>
        <pt x="966" y="211" on="0"/>
        <pt x="1042" y="152" on="1"/>
        <pt x="1070" y="130" on="0"/>
        <pt x="1117" y="110" on="1"/>
        <pt x="1178" y="94" on="0"/>
        <pt x="1198" y="94" on="1"/>
        <pt x="1270" y="94" on="0"/>
        <pt x="1349" y="148" on="1"/>
        <pt x="1425" y="200" on="0"/>
        <pt x="1425" y="318" on="1"/>
        <pt x="1425" y="838" on="1"/>
        <pt x="1517" y="838" on="1"/>
        <pt x="1517" y="318" on="1"/>
        <pt x="1517" y="178" on="0"/>
        <pt x="1345" y="-3" on="0"/>
        <pt x="1205" y="-3" on="1"/>
        <pt x="1083" y="-3" on="0"/>
        <pt x="983" y="77" on="1"/>
        <pt x="933" y="117" on="0"/>
        <pt x="902" y="179" on="1"/>
        <pt x="881" y="245" on="1"/>
        <pt x="876" y="280" on="1"/>
        <pt x="874" y="321" on="1"/>
      </contour>
    </TTGlyph>
    <TTGlyph name="Ugrave" xMin="172" yMin="-198" xMax="1674" yMax="901">
      <contour>
        <pt x="989" y="900" on="1"/>
        <pt x="1674" y="348" on="1"/>
        <pt x="992" y="-198" on="1"/>
        <pt x="922" y="-198" on="1"/>
        <pt x="922" y="-119" on="1"/>
        <pt x="1448" y="289" on="1"/>
        <pt x="172" y="289" on="1"/>
        <pt x="172" y="401" on="1"/>
        <pt x="1448" y="401" on="1"/>
        <pt x="927" y="824" on="1"/>
        <pt x="921" y="901" on="1"/>
      </contour>
    </TTGlyph>
    <TTGlyph name="V" xMin="335" yMin="-245" xMax="1475" yMax="895">
      <contour>
        <pt x="1370" y="790" on="1"/>
        <pt x="446" y="790" on="1"/>
        <pt x="446" y="-128" on="1"/>
      </contour>
      <contour>
        <pt x="1475" y="-245" on="1"/>
        <pt x="335" y="-245" on="1"/>
        <pt x="335" y="895" on="1"/>
        <pt x="1475" y="895" on="1"/>
      </contour>
    </TTGlyph>
    <TTGlyph name="W" xMin="91" yMin="-369" xMax="1757" yMax="1012">
      <contour>
        <pt x="923" y="724" on="1"/>
        <pt x="941" y="768" on="1"/>
        <pt x="963" y="808" on="1"/>
        <pt x="1007" y="878" on="1"/>
        <pt x="1012" y="888" on="0"/>
        <pt x="1061" y="930" on="1"/>
        <pt x="1093" y="951" on="1"/>
        <pt x="1134" y="974" on="1"/>
        <pt x="1196" y="996" on="1"/>
        <pt x="1219" y="1002" on="1"/>
        <pt x="1266" y="1010" on="1"/>
        <pt x="1309" y="1012" on="1"/>
        <pt x="1372" y="1012" on="1"/>
        <pt x="1389" y="1011" on="1"/>
        <pt x="1406" y="1010" on="0"/>
        <pt x="1418" y="1007" on="1"/>
        <pt x="1431" y="1006" on="1"/>
        <pt x="1449" y="1002" on="1"/>
        <pt x="1493" y="991" on="1"/>
        <pt x="1511" y="985" on="1"/>
        <pt x="1531" y="979" on="1"/>
        <pt x="1567" y="964" on="1"/>
        <pt x="1603" y="949" on="0"/>
        <pt x="1638" y="923" on="1"/>
        <pt x="1692" y="883" on="0"/>
        <pt x="1726" y="822" on="1"/>
        <pt x="1740" y="796" on="0"/>
        <pt x="1747" y="766" on="1"/>
        <pt x="1754" y="734" on="1"/>
        <pt x="1757" y="701" on="1"/>
        <pt x="1757" y="688" on="1"/>
        <pt x="1752" y="621" on="1"/>
        <pt x="1751" y="606" on="0"/>
        <pt x="1744" y="592" on="1"/>
        <pt x="1726" y="536" on="1"/>
        <pt x="1714" y="512" on="1"/>
        <pt x="1698" y="487" on="1"/>
        <pt x="1664" y="439" on="1"/>
        <pt x="1642" y="409" on="0"/>
        <pt x="1618" y="384" on="1"/>
        <pt x="1563" y="327" on="1"/>
        <pt x="1237" y="16" on="1"/>
        <pt x="1172" y="-57" on="1"/>
        <pt x="1127" y="-115" on="1"/>
        <pt x="1112" y="-136" on="1"/>
        <pt x="1099" y="-156" on="1"/>
        <pt x="1062" y="-203" on="1"/>
        <pt x="1031" y="-245" on="1"/>
        <pt x="1023" y="-262" on="1"/>
        <pt x="1011" y="-281" on="1"/>
        <pt x="1006" y="-293" on="1"/>
        <pt x="996" y="-311" on="1"/>
        <pt x="977" y="-342" on="1"/>
        <pt x="957" y="-361" on="1"/>
        <pt x="942" y="-366" on="1"/>
        <pt x="921" y="-369" on="1"/>
        <pt x="904" y="-366" on="1"/>
        <pt x="896" y="-363" on="1"/>
        <pt x="883" y="-356" on="1"/>
        <pt x="880" y="-353" on="1"/>
        <pt x="872" y="-343" on="1"/>
        <pt x="850" y="-311" on="1"/>
        <pt x="845" y="-299" on="1"/>
        <pt x="822" y="-260" on="1"/>
        <pt x="812" y="-244" on="1"/>
        <pt x="802" y="-229" on="1"/>
        <pt x="749" y="-156" on="1"/>
        <pt x="674" y="-62" on="1"/>
        <pt x="608" y="16" on="1"/>
        <pt x="584" y="40" on="1"/>
        <pt x="575" y="51" on="1"/>
        <pt x="552" y="73" on="1"/>
        <pt x="469" y="155" on="1"/>
        <pt x="259" y="348" on="1"/>
        <pt x="233" y="376" on="1"/>
        <pt x="195" y="423" on="1"/>
        <pt x="152" y="481" on="1"/>
        <pt x="124" y="530" on="1"/>
        <pt x="113" y="555" on="1"/>
        <pt x="103" y="584" on="1"/>
        <pt x="91" y="638" on="0"/>
        <pt x="91" y="697" on="1"/>
        <pt x="91" y="844" on="0"/>
        <pt x="235" y="934" on="1"/>
        <pt x="360" y="1012" on="0"/>
        <pt x="515" y="1012" on="1"/>
        <pt x="547" y="1012" on="1"/>
        <pt x="569" y="1012" on="0"/>
        <pt x="572" y="1010" on="1"/>
        <pt x="600" y="1007" on="1"/>
        <pt x="627" y="1002" on="1"/>
        <pt x="675" y="993" on="0"/>
        <pt x="714" y="974" on="1"/>
        <pt x="789" y="937" on="0"/>
        <pt x="840" y="878" on="1"/>
        <pt x="866" y="841" on="1"/>
        <pt x="883" y="812" on="1"/>
        <pt x="906" y="766" on="1"/>
      </contour>
    </TTGlyph>
    <TTGlyph name="X" xMin="252" yMin="-327" xMax="1630" yMax="1049">
      <contour>
        <pt x="1269" y="610" on="1"/>
        <pt x="320" y="-327" on="1"/>
        <pt x="252" y="-258" on="1"/>
        <pt x="1195" y="692" on="1"/>
        <pt x="781" y="944" on="1"/>
        <pt x="837" y="1000" on="1"/>
        <pt x="1022" y="981" on="0"/>
        <pt x="1477" y="1018" on="0"/>
        <pt x="1590" y="1049" on="1"/>
        <pt x="1630" y="1009" on="1"/>
        <pt x="1589" y="862" on="0"/>
        <pt x="1561" y="446" on="0"/>
        <pt x="1579" y="259" on="1"/>
        <pt x="1523" y="202" on="1"/>
      </contour>
    </TTGlyph>
    <TTGlyph name="Y" xMin="252" yMin="-337" xMax="1630" yMax="1039">
      <contour>
        <pt x="1523" y="510" on="1"/>
        <pt x="1579" y="453" on="1"/>
        <pt x="1561" y="266" on="0"/>
        <pt x="1589" y="-150" on="0"/>
        <pt x="1630" y="-297" on="1"/>
        <pt x="1590" y="-337" on="1"/>
        <pt x="1477" y="-306" on="0"/>
        <pt x="1022" y="-269" on="0"/>
        <pt x="837" y="-288" on="1"/>
        <pt x="781" y="-232" on="1"/>
        <pt x="1195" y="20" on="1"/>
        <pt x="252" y="970" on="1"/>
        <pt x="320" y="1039" on="1"/>
        <pt x="1269" y="102" on="1"/>
      </contour>
    </TTGlyph>
    <TTGlyph name="Yacute" xMin="129" yMin="-275" xMax="1689" yMax="969">
      <contour>
        <pt x="737" y="73" on="1"/>
        <pt x="730" y="199" on="1"/>
        <pt x="573" y="328" on="1"/>
        <pt x="410" y="327" on="1"/>
        <pt x="247" y="211" on="1"/>
        <pt x="247" y="77" on="1"/>
        <pt x="437" y="-183" on="1"/>
        <pt x="542" y="-182" on="1"/>
      </contour>
      <contour>
        <pt x="1574" y="74" on="1"/>
        <pt x="1571" y="217" on="1"/>
        <pt x="1453" y="327" on="1"/>
        <pt x="1262" y="327" on="1"/>
        <pt x="1070" y="210" on="1"/>
        <pt x="1085" y="76" on="1"/>
        <pt x="1272" y="-181" on="1"/>
        <pt x="1378" y="-182" on="1"/>
      </contour>
      <contour>
        <pt x="1151" y="611" on="1"/>
        <pt x="1151" y="790" on="1"/>
        <pt x="1028" y="877" on="1"/>
        <pt x="790" y="877" on="1"/>
        <pt x="667" y="790" on="1"/>
        <pt x="667" y="610" on="1"/>
        <pt x="876" y="353" on="1"/>
        <pt x="967" y="353" on="1"/>
      </contour>
      <contour>
        <pt x="850" y="75" on="1"/>
        <pt x="605" y="-275" on="1"/>
        <pt x="358" y="-275" on="1"/>
        <pt x="132" y="79" on="1"/>
        <pt x="129" y="245" on="1"/>
        <pt x="251" y="334" on="1"/>
        <pt x="372" y="418" on="1"/>
        <pt x="606" y="418" on="1"/>
        <pt x="850" y="242" on="1"/>
      </contour>
      <contour>
        <pt x="1689" y="77" on="1"/>
        <pt x="1440" y="-275" on="1"/>
        <pt x="1211" y="-275" on="1"/>
        <pt x="955" y="77" on="1"/>
        <pt x="955" y="241" on="1"/>
        <pt x="1210" y="418" on="1"/>
        <pt x="1470" y="418" on="1"/>
        <pt x="1600" y="332" on="1"/>
        <pt x="1689" y="241" on="1"/>
      </contour>
      <contour>
        <pt x="1265" y="613" on="1"/>
        <pt x="1046" y="261" on="1"/>
        <pt x="782" y="261" on="1"/>
        <pt x="662" y="430" on="1"/>
        <pt x="549" y="609" on="1"/>
        <pt x="549" y="778" on="1"/>
        <pt x="639" y="889" on="1"/>
        <pt x="758" y="969" on="1"/>
        <pt x="1039" y="969" on="1"/>
        <pt x="1178" y="879" on="1"/>
        <pt x="1269" y="813" on="1"/>
      </contour>
    </TTGlyph>
    <TTGlyph name="Ydieresis" xMin="259" yMin="-359" xMax="1601" yMax="1055">
      <contour>
        <pt x="460" y="1055" on="1"/>
        <pt x="618" y="627" on="1"/>
        <pt x="1218" y="627" on="1"/>
        <pt x="1385" y="1055" on="1"/>
        <pt x="1601" y="1055" on="1"/>
        <pt x="1014" y="-359" on="1"/>
        <pt x="810" y="-359" on="1"/>
        <pt x="259" y="1055" on="1"/>
      </contour>
      <contour>
        <pt x="830" y="60" on="1"/>
        <pt x="880" y="-74" on="0"/>
        <pt x="908" y="-210" on="1"/>
        <pt x="938" y="-104" on="0"/>
        <pt x="1009" y="83" on="1"/>
        <pt x="1159" y="474" on="1"/>
        <pt x="673" y="474" on="1"/>
      </contour>
    </TTGlyph>
    <TTGlyph name="Z" xMin="252" yMin="-347" xMax="1630" yMax="1029">
      <contour>
        <pt x="359" y="181" on="1"/>
        <pt x="303" y="238" on="1"/>
        <pt x="321" y="425" on="0"/>
        <pt x="293" y="842" on="0"/>
        <pt x="252" y="989" on="1"/>
        <pt x="292" y="1029" on="1"/>
        <pt x="405" y="997" on="0"/>
        <pt x="860" y="961" on="0"/>
        <pt x="1045" y="980" on="1"/>
        <pt x="1101" y="923" on="1"/>
        <pt x="687" y="671" on="1"/>
        <pt x="1630" y="-278" on="1"/>
        <pt x="1562" y="-347" on="1"/>
        <pt x="613" y="589" on="1"/>
      </contour>
    </TTGlyph>
    <TTGlyph name="a" xMin="291" yMin="-155" xMax="1521" yMax="848">
      <contour>
        <pt x="1159" y="566" on="1"/>
        <pt x="1205" y="710" on="1"/>
        <pt x="1089" y="763" on="0"/>
        <pt x="990" y="760" on="1"/>
        <pt x="877" y="756" on="1"/>
        <pt x="841" y="754" on="0"/>
        <pt x="831" y="751" on="1"/>
        <pt x="818" y="748" on="0"/>
        <pt x="795" y="736" on="1"/>
        <pt x="721" y="696" on="1"/>
        <pt x="661" y="661" on="1"/>
        <pt x="612" y="628" on="1"/>
        <pt x="557" y="586" on="1"/>
        <pt x="516" y="554" on="0"/>
        <pt x="485" y="502" on="1"/>
        <pt x="442" y="429" on="0"/>
        <pt x="428" y="355" on="1"/>
        <pt x="412" y="273" on="1"/>
        <pt x="406" y="242" on="0"/>
        <pt x="406" y="200" on="1"/>
        <pt x="406" y="110" on="0"/>
        <pt x="432" y="79" on="1"/>
        <pt x="442" y="50" on="0"/>
        <pt x="495" y="4" on="1"/>
        <pt x="543" y="-38" on="0"/>
        <pt x="591" y="-56" on="1"/>
        <pt x="628" y="-61" on="1"/>
        <pt x="665" y="-63" on="1"/>
        <pt x="739" y="-67" on="0"/>
        <pt x="813" y="-23" on="1"/>
        <pt x="900" y="29" on="0"/>
        <pt x="963" y="123" on="1"/>
        <pt x="1050" y="252" on="0"/>
        <pt x="1085" y="350" on="1"/>
        <pt x="1125" y="463" on="1"/>
      </contour>
      <contour>
        <pt x="1078" y="149" on="1"/>
        <pt x="1068" y="149" on="1"/>
        <pt x="921" y="-155" on="0"/>
        <pt x="661" y="-155" on="1"/>
        <pt x="399" y="-155" on="0"/>
        <pt x="310" y="102" on="1"/>
        <pt x="301" y="138" on="1"/>
        <pt x="296" y="167" on="1"/>
        <pt x="291" y="239" on="1"/>
        <pt x="292" y="288" on="1"/>
        <pt x="299" y="335" on="1"/>
        <pt x="315" y="444" on="0"/>
        <pt x="389" y="559" on="1"/>
        <pt x="506" y="743" on="0"/>
        <pt x="742" y="813" on="1"/>
        <pt x="859" y="848" on="0"/>
        <pt x="1001" y="848" on="1"/>
        <pt x="1054" y="848" on="1"/>
        <pt x="1089" y="844" on="1"/>
        <pt x="1104" y="844" on="1"/>
        <pt x="1131" y="840" on="1"/>
        <pt x="1184" y="831" on="1"/>
        <pt x="1206" y="827" on="0"/>
        <pt x="1247" y="790" on="1"/>
        <pt x="1307" y="736" on="1"/>
        <pt x="1241" y="488" on="1"/>
        <pt x="1236" y="469" on="0"/>
        <pt x="1223" y="428" on="1"/>
        <pt x="1189" y="323" on="1"/>
        <pt x="1181" y="294" on="1"/>
        <pt x="1171" y="247" on="1"/>
        <pt x="1166" y="204" on="1"/>
        <pt x="1166" y="154" on="1"/>
        <pt x="1170" y="118" on="1"/>
        <pt x="1189" y="-53" on="0"/>
        <pt x="1261" y="-48" on="1"/>
        <pt x="1276" y="-47" on="1"/>
        <pt x="1293" y="-40" on="1"/>
        <pt x="1381" y="-4" on="0"/>
        <pt x="1429" y="78" on="1"/>
        <pt x="1467" y="130" on="0"/>
        <pt x="1497" y="130" on="1"/>
        <pt x="1521" y="124" on="0"/>
        <pt x="1521" y="78" on="1"/>
        <pt x="1521" y="67" on="1"/>
        <pt x="1521" y="59" on="0"/>
        <pt x="1519" y="57" on="1"/>
        <pt x="1510" y="32" on="1"/>
        <pt x="1503" y="11" on="0"/>
        <pt x="1477" y="-28" on="1"/>
        <pt x="1435" y="-92" on="0"/>
        <pt x="1343" y="-142" on="1"/>
        <pt x="1247" y="-142" on="1"/>
        <pt x="1236" y="-145" on="1"/>
        <pt x="1283" y="-151" on="1"/>
        <pt x="1224" y="-151" on="0"/>
        <pt x="1155" y="-91" on="1"/>
        <pt x="1078" y="-6" on="0"/>
      </contour>
    </TTGlyph>
    <TTGlyph name="aacute" xMin="183" yMin="-468" xMax="1671" yMax="265">
      <contour>
        <pt x="1671" y="-468" on="1"/>
        <pt x="183" y="-468" on="1"/>
        <pt x="187" y="-363" on="1"/>
        <pt x="190" y="-339" on="1"/>
        <pt x="195" y="-319" on="1"/>
        <pt x="201" y="-301" on="1"/>
        <pt x="210" y="-264" on="1"/>
        <pt x="223" y="-224" on="1"/>
        <pt x="235" y="-169" on="0"/>
        <pt x="255" y="-149" on="1"/>
        <pt x="276" y="-108" on="0"/>
        <pt x="331" y="-24" on="1"/>
        <pt x="370" y="25" on="0"/>
        <pt x="443" y="89" on="1"/>
        <pt x="644" y="265" on="0"/>
        <pt x="927" y="265" on="1"/>
        <pt x="1201" y="265" on="0"/>
        <pt x="1411" y="89" on="1"/>
        <pt x="1520" y="-2" on="0"/>
        <pt x="1599" y="-147" on="1"/>
        <pt x="1627" y="-220" on="1"/>
        <pt x="1652" y="-300" on="1"/>
        <pt x="1666" y="-380" on="1"/>
        <pt x="1671" y="-436" on="1"/>
      </contour>
    </TTGlyph>
    <TTGlyph name="acircumflex" xMin="305" yMin="-223" xMax="1525" yMax="897">
      <contour>
        <pt x="305" y="-123" on="1"/>
        <pt x="1104" y="897" on="1"/>
        <pt x="1335" y="897" on="1"/>
        <pt x="931" y="403" on="1"/>
        <pt x="1525" y="-123" on="1"/>
        <pt x="1525" y="-213" on="1"/>
        <pt x="1400" y="-213" on="1"/>
        <pt x="828" y="264" on="1"/>
        <pt x="447" y="-223" on="1"/>
        <pt x="305" y="-223" on="1"/>
      </contour>
    </TTGlyph>
    <TTGlyph name="acute" xMin="512" yMin="-385" xMax="1208" yMax="1071">
      <contour>
        <pt x="935" y="1071" on="1"/>
        <pt x="935" y="-385" on="1"/>
        <pt x="778" y="-385" on="1"/>
        <pt x="778" y="1071" on="1"/>
      </contour>
      <contour>
        <pt x="512" y="393" on="1"/>
        <pt x="512" y="452" on="0"/>
        <pt x="526" y="470" on="1"/>
        <pt x="526" y="497" on="0"/>
        <pt x="536" y="514" on="1"/>
        <pt x="536" y="566" on="0"/>
        <pt x="661" y="678" on="1"/>
        <pt x="694" y="697" on="1"/>
        <pt x="758" y="728" on="1"/>
        <pt x="809" y="742" on="1"/>
        <pt x="861" y="742" on="1"/>
        <pt x="935" y="742" on="0"/>
        <pt x="1018" y="707" on="1"/>
        <pt x="1066" y="687" on="0"/>
        <pt x="1084" y="665" on="1"/>
        <pt x="1146" y="593" on="1"/>
        <pt x="1170" y="552" on="1"/>
        <pt x="1192" y="499" on="1"/>
        <pt x="1203" y="443" on="1"/>
        <pt x="1208" y="393" on="1"/>
        <pt x="1208" y="354" on="1"/>
        <pt x="1208" y="332" on="0"/>
        <pt x="1201" y="313" on="1"/>
        <pt x="1194" y="283" on="1"/>
        <pt x="1192" y="272" on="0"/>
        <pt x="1174" y="238" on="1"/>
        <pt x="1132" y="164" on="0"/>
        <pt x="1065" y="113" on="1"/>
        <pt x="971" y="46" on="0"/>
        <pt x="861" y="46" on="1"/>
        <pt x="781" y="46" on="0"/>
        <pt x="705" y="83" on="1"/>
        <pt x="635" y="121" on="0"/>
        <pt x="580" y="193" on="1"/>
        <pt x="512" y="283" on="0"/>
      </contour>
    </TTGlyph>
    <TTGlyph name="adieresis" xMin="305" yMin="-318" xMax="1573" yMax="946">
      <contour>
        <pt x="1573" y="946" on="1"/>
        <pt x="1573" y="-318" on="1"/>
        <pt x="305" y="-318" on="1"/>
        <pt x="305" y="946" on="1"/>
      </contour>
      <contour>
        <pt x="1448" y="823" on="1"/>
        <pt x="430" y="823" on="1"/>
        <pt x="430" y="-195" on="1"/>
        <pt x="1448" y="-195" on="1"/>
      </contour>
    </TTGlyph>
    <TTGlyph name="ae" xMin="74" yMin="-495" xMax="1764" yMax="1189">
      <contour>
        <pt x="74" y="344" on="1"/>
        <pt x="913" y="1189" on="1"/>
        <pt x="1764" y="344" on="1"/>
        <pt x="913" y="-495" on="1"/>
      </contour>
      <contour>
        <pt x="277" y="344" on="1"/>
        <pt x="914" y="-292" on="1"/>
        <pt x="1560" y="344" on="1"/>
        <pt x="914" y="985" on="1"/>
      </contour>
      <contour>
        <pt x="920" y="604" on="1"/>
        <pt x="1017" y="604" on="0"/>
        <pt x="1161" y="458" on="0"/>
        <pt x="1161" y="360" on="1"/>
        <pt x="1161" y="263" on="0"/>
        <pt x="1016" y="118" on="0"/>
        <pt x="920" y="118" on="1"/>
        <pt x="820" y="118" on="0"/>
        <pt x="676" y="260" on="0"/>
        <pt x="676" y="360" on="1"/>
        <pt x="676" y="458" on="0"/>
        <pt x="746" y="532" on="1"/>
        <pt x="753" y="542" on="0"/>
        <pt x="761" y="547" on="1"/>
        <pt x="780" y="561" on="1"/>
        <pt x="825" y="585" on="1"/>
        <pt x="902" y="604" on="0"/>
      </contour>
    </TTGlyph>
    <TTGlyph name="agrave" xMin="57" yMin="-474" xMax="1767" yMax="1154">
      <contour>
        <pt x="1637" y="1154" on="1"/>
        <pt x="1767" y="1151" on="1"/>
        <pt x="975" y="-474" on="1"/>
        <pt x="851" y="-474" on="1"/>
        <pt x="57" y="1151" on="1"/>
        <pt x="187" y="1154" on="1"/>
        <pt x="913" y="-332" on="1"/>
      </contour>
      <contour>
        <pt x="455" y="1101" on="1"/>
        <pt x="585" y="1101" on="1"/>
        <pt x="913" y="493" on="1"/>
        <pt x="1241" y="1101" on="1"/>
        <pt x="1371" y="1101" on="1"/>
        <pt x="909" y="301" on="1"/>
      </contour>
    </TTGlyph>
    <TTGlyph name="ampersand" xMin="724" yMin="-223" xMax="1183" yMax="1021">
      <contour>
        <pt x="1101" y="-135" on="1"/>
        <pt x="1059" y="-173" on="1"/>
        <pt x="1037" y="-193" on="0"/>
        <pt x="1017" y="-203" on="1"/>
        <pt x="1003" y="-210" on="1"/>
        <pt x="982" y="-216" on="1"/>
        <pt x="962" y="-221" on="1"/>
        <pt x="946" y="-222" on="1"/>
        <pt x="932" y="-223" on="0"/>
        <pt x="885" y="-207" on="1"/>
        <pt x="862" y="-196" on="0"/>
        <pt x="803" y="-141" on="1"/>
        <pt x="766" y="-99" on="1"/>
        <pt x="741" y="-60" on="1"/>
        <pt x="724" y="-26" on="0"/>
        <pt x="724" y="6" on="1"/>
        <pt x="724" y="43" on="0"/>
        <pt x="741" y="73" on="1"/>
        <pt x="756" y="109" on="0"/>
        <pt x="803" y="151" on="1"/>
        <pt x="845" y="189" on="1"/>
        <pt x="862" y="204" on="0"/>
        <pt x="887" y="219" on="1"/>
        <pt x="918" y="231" on="1"/>
        <pt x="951" y="235" on="1"/>
        <pt x="971" y="235" on="0"/>
        <pt x="1018" y="217" on="1"/>
        <pt x="1024" y="214" on="0"/>
        <pt x="1098" y="154" on="1"/>
        <pt x="1130" y="122" on="0"/>
        <pt x="1166" y="71" on="1"/>
        <pt x="1183" y="39" on="0"/>
        <pt x="1183" y="8" on="1"/>
        <pt x="1183" y="-61" on="0"/>
      </contour>
      <contour>
        <pt x="1101" y="650" on="1"/>
        <pt x="1059" y="612" on="1"/>
        <pt x="1037" y="592" on="0"/>
        <pt x="1017" y="582" on="1"/>
        <pt x="1003" y="575" on="1"/>
        <pt x="982" y="569" on="1"/>
        <pt x="962" y="564" on="1"/>
        <pt x="946" y="563" on="1"/>
        <pt x="932" y="562" on="0"/>
        <pt x="885" y="578" on="1"/>
        <pt x="862" y="589" on="0"/>
        <pt x="803" y="644" on="1"/>
        <pt x="766" y="686" on="1"/>
        <pt x="741" y="725" on="1"/>
        <pt x="724" y="759" on="0"/>
        <pt x="724" y="792" on="1"/>
        <pt x="724" y="829" on="0"/>
        <pt x="741" y="859" on="1"/>
        <pt x="756" y="895" on="0"/>
        <pt x="803" y="937" on="1"/>
        <pt x="845" y="975" on="1"/>
        <pt x="862" y="990" on="0"/>
        <pt x="887" y="1005" on="1"/>
        <pt x="918" y="1017" on="1"/>
        <pt x="951" y="1021" on="1"/>
        <pt x="971" y="1021" on="0"/>
        <pt x="1018" y="1003" on="1"/>
        <pt x="1024" y="1000" on="0"/>
        <pt x="1098" y="940" on="1"/>
        <pt x="1130" y="908" on="0"/>
        <pt x="1166" y="857" on="1"/>
        <pt x="1183" y="825" on="0"/>
        <pt x="1183" y="794" on="1"/>
        <pt x="1183" y="724" on="0"/>
      </contour>
    </TTGlyph>
    <TTGlyph name="aring" xMin="434" yMin="-158" xMax="1404" yMax="811">
      <contour>
        <pt x="741" y="148" on="1"/>
        <pt x="1097" y="148" on="1"/>
        <pt x="1097" y="504" on="1"/>
        <pt x="741" y="504" on="1"/>
      </contour>
      <contour>
        <pt x="434" y="-158" on="1"/>
        <pt x="434" y="811" on="1"/>
        <pt x="1404" y="811" on="1"/>
        <pt x="1404" y="-158" on="1"/>
      </contour>
    </TTGlyph>
    <TTGlyph name="asciicircum" xMin="341" yMin="-230" xMax="1462" yMax="914">
      <contour>
        <pt x="964" y="914" on="1"/>
        <pt x="1462" y="-230" on="1"/>
        <pt x="1339" y="-230" on="1"/>
        <pt x="913" y="765" on="1"/>
        <pt x="470" y="-224" on="1"/>
        <pt x="341" y="-224" on="1"/>
        <pt x="847" y="914" on="1"/>
      </contour>
    </TTGlyph>
    <TTGlyph name="asciitilde" xMin="122" yMin="-413" xMax="1675" yMax="1140">
      <contour>
        <pt x="1675" y="670" on="1"/>
        <pt x="592" y="-413" on="1"/>
        <pt x="481" y="-301" on="1"/>
        <pt x="1564" y="781" on="1"/>
      </contour>
      <contour>
        <pt x="1316" y="1029" on="1"/>
        <pt x="233" y="-54" on="1"/>
        <pt x="122" y="57" on="1"/>
        <pt x="1205" y="1140" on="1"/>
      </contour>
    </TTGlyph>
    <TTGlyph name="asterisk" xMin="188" yMin="-368" xMax="1620" yMax="1062">
      <contour>
        <pt x="958" y="196" on="1"/>
        <pt x="958" y="-368" on="1"/>
        <pt x="850" y="-368" on="1"/>
        <pt x="850" y="196" on="1"/>
        <pt x="772" y="131" on="1"/>
        <pt x="736" y="99" on="1"/>
        <pt x="534" y="-81" on="1"/>
        <pt x="434" y="-187" on="1"/>
        <pt x="358" y="-110" on="1"/>
        <pt x="748" y="304" on="1"/>
        <pt x="188" y="304" on="1"/>
        <pt x="188" y="413" on="1"/>
        <pt x="741" y="413" on="1"/>
        <pt x="645" y="521" on="1"/>
        <pt x="595" y="568" on="1"/>
        <pt x="458" y="714" on="1"/>
        <pt x="360" y="824" on="1"/>
        <pt x="435" y="901" on="1"/>
        <pt x="850" y="509" on="1"/>
        <pt x="850" y="1062" on="1"/>
        <pt x="958" y="1062" on="1"/>
        <pt x="958" y="511" on="1"/>
        <pt x="1371" y="901" on="1"/>
        <pt x="1448" y="825" on="1"/>
        <pt x="1056" y="439" on="1"/>
        <pt x="1065" y="413" on="1"/>
        <pt x="1620" y="413" on="1"/>
        <pt x="1620" y="304" on="1"/>
        <pt x="1070" y="304" on="1"/>
        <pt x="1068" y="292" on="1"/>
        <pt x="1061" y="280" on="1"/>
        <pt x="1449" y="-110" on="1"/>
        <pt x="1371" y="-186" on="1"/>
      </contour>
    </TTGlyph>
    <TTGlyph name="at" xMin="148" yMin="-154" xMax="1666" yMax="843">
      <contour>
        <pt x="148" y="442" on="1"/>
        <pt x="1210" y="442" on="1"/>
        <pt x="697" y="843" on="1"/>
        <pt x="1031" y="843" on="1"/>
        <pt x="1666" y="347" on="1"/>
        <pt x="1028" y="-151" on="1"/>
        <pt x="695" y="-154" on="1"/>
        <pt x="1210" y="251" on="1"/>
        <pt x="148" y="251" on="1"/>
      </contour>
    </TTGlyph>
    <TTGlyph name="atilde" xMin="305" yMin="-223" xMax="1525" yMax="897">
      <contour>
        <pt x="305" y="897" on="1"/>
        <pt x="447" y="897" on="1"/>
        <pt x="828" y="410" on="1"/>
        <pt x="1400" y="887" on="1"/>
        <pt x="1525" y="887" on="1"/>
        <pt x="1525" y="797" on="1"/>
        <pt x="931" y="271" on="1"/>
        <pt x="1335" y="-223" on="1"/>
        <pt x="1104" y="-223" on="1"/>
        <pt x="305" y="797" on="1"/>
      </contour>
    </TTGlyph>
    <TTGlyph name="b" xMin="192" yMin="-516" xMax="1626" yMax="1189">
      <contour>
        <pt x="192" y="343" on="1"/>
        <pt x="908" y="1189" on="1"/>
        <pt x="1626" y="343" on="1"/>
        <pt x="908" y="-516" on="1"/>
      </contour>
    </TTGlyph>
    <TTGlyph name="backslash" xMin="68" yMin="-477" xMax="1784" yMax="1136">
      <contour>
        <pt x="923" y="-477" on="1"/>
        <pt x="68" y="399" on="1"/>
        <pt x="1784" y="404" on="1"/>
      </contour>
      <contour>
        <pt x="726" y="703" on="1"/>
        <pt x="690" y="739" on="0"/>
        <pt x="653" y="834" on="0"/>
        <pt x="653" y="929" on="0"/>
        <pt x="691" y="1024" on="0"/>
        <pt x="727" y="1060" on="1"/>
        <pt x="763" y="1097" on="0"/>
        <pt x="855" y="1136" on="0"/>
        <pt x="948" y="1136" on="0"/>
        <pt x="1040" y="1098" on="0"/>
        <pt x="1076" y="1062" on="1"/>
        <pt x="1112" y="1025" on="0"/>
        <pt x="1149" y="931" on="0"/>
        <pt x="1149" y="835" on="0"/>
        <pt x="1111" y="741" on="0"/>
        <pt x="1075" y="704" on="1"/>
        <pt x="1039" y="667" on="0"/>
        <pt x="947" y="629" on="0"/>
        <pt x="854" y="628" on="0"/>
        <pt x="762" y="666" on="0"/>
      </contour>
    </TTGlyph>
    <TTGlyph name="bar" xMin="248" yMin="-342" xMax="1654" yMax="1062">
      <contour>
        <pt x="455" y="-139" on="1"/>
        <pt x="248" y="68" on="0"/>
        <pt x="248" y="647" on="0"/>
        <pt x="455" y="854" on="1"/>
        <pt x="663" y="1062" on="0"/>
        <pt x="1240" y="1062" on="0"/>
        <pt x="1448" y="854" on="1"/>
        <pt x="1654" y="647" on="0"/>
        <pt x="1653" y="69" on="0"/>
        <pt x="1447" y="-137" on="1"/>
        <pt x="1242" y="-341" on="0"/>
        <pt x="659" y="-342" on="0"/>
      </contour>
      <contour>
        <pt x="1065" y="-204" on="1"/>
        <pt x="1239" y="-170" on="0"/>
        <pt x="1361" y="-37" on="1"/>
        <pt x="1511" y="126" on="0"/>
        <pt x="1512" y="589" on="0"/>
        <pt x="1362" y="753" on="1"/>
        <pt x="1243" y="882" on="0"/>
        <pt x="1063" y="912" on="1"/>
      </contour>
      <contour>
        <pt x="845" y="914" on="1"/>
        <pt x="657" y="878" on="0"/>
        <pt x="541" y="752" on="1"/>
        <pt x="390" y="589" on="0"/>
        <pt x="393" y="124" on="0"/>
        <pt x="544" y="-39" on="1"/>
        <pt x="668" y="-173" on="0"/>
        <pt x="845" y="-201" on="1"/>
      </contour>
    </TTGlyph>
    <TTGlyph name="braceleft" xMin="213" yMin="-379" xMax="1655" yMax="1063">
      <contour>
        <pt x="934" y="954" on="1"/>
        <pt x="680" y="954" on="0"/>
        <pt x="321" y="595" on="0"/>
        <pt x="321" y="341" on="1"/>
        <pt x="321" y="92" on="0"/>
        <pt x="685" y="-270" on="0"/>
        <pt x="934" y="-270" on="1"/>
        <pt x="1187" y="-270" on="0"/>
        <pt x="1547" y="88" on="0"/>
        <pt x="1547" y="341" on="1"/>
        <pt x="1547" y="593" on="0"/>
        <pt x="1186" y="954" on="0"/>
      </contour>
      <contour>
        <pt x="934" y="1063" on="1"/>
        <pt x="1234" y="1063" on="0"/>
        <pt x="1655" y="641" on="0"/>
        <pt x="1655" y="341" on="1"/>
        <pt x="1655" y="42" on="0"/>
        <pt x="1233" y="-379" on="0"/>
        <pt x="934" y="-379" on="1"/>
        <pt x="634" y="-379" on="0"/>
        <pt x="213" y="41" on="0"/>
        <pt x="213" y="341" on="1"/>
        <pt x="213" y="641" on="0"/>
        <pt x="634" y="1063" on="0"/>
      </contour>
      <contour>
        <pt x="869" y="953" on="1"/>
        <pt x="868" y="407" on="1"/>
        <pt x="325" y="407" on="1"/>
        <pt x="322" y="375" on="1"/>
        <pt x="321" y="341" on="1"/>
        <pt x="322" y="308" on="1"/>
        <pt x="325" y="276" on="1"/>
        <pt x="868" y="276" on="1"/>
        <pt x="869" y="-266" on="1"/>
        <pt x="932" y="-270" on="1"/>
        <pt x="973" y="-270" on="1"/>
        <pt x="999" y="-266" on="1"/>
        <pt x="1000" y="276" on="1"/>
        <pt x="1543" y="276" on="1"/>
        <pt x="1545" y="327" on="1"/>
        <pt x="1546" y="370" on="1"/>
        <pt x="1546" y="407" on="1"/>
        <pt x="1000" y="407" on="1"/>
        <pt x="999" y="950" on="1"/>
        <pt x="918" y="954" on="1"/>
      </contour>
    </TTGlyph>
    <TTGlyph name="braceright" xMin="485" yMin="-94" xMax="1373" yMax="792">
      <contour>
        <pt x="1211" y="229" on="1"/>
        <pt x="1277" y="229" on="0"/>
        <pt x="1373" y="133" on="0"/>
        <pt x="1373" y="67" on="1"/>
        <pt x="1373" y="3" on="0"/>
        <pt x="1275" y="-94" on="0"/>
        <pt x="1211" y="-94" on="1"/>
        <pt x="1151" y="-94" on="0"/>
        <pt x="1049" y="7" on="0"/>
        <pt x="1049" y="67" on="1"/>
        <pt x="1049" y="134" on="0"/>
        <pt x="1144" y="229" on="0"/>
      </contour>
      <contour>
        <pt x="647" y="229" on="1"/>
        <pt x="713" y="229" on="0"/>
        <pt x="809" y="133" on="0"/>
        <pt x="809" y="67" on="1"/>
        <pt x="809" y="3" on="0"/>
        <pt x="711" y="-94" on="0"/>
        <pt x="647" y="-94" on="1"/>
        <pt x="587" y="-94" on="0"/>
        <pt x="485" y="7" on="0"/>
        <pt x="485" y="67" on="1"/>
        <pt x="485" y="134" on="0"/>
        <pt x="580" y="229" on="0"/>
      </contour>
      <contour>
        <pt x="1211" y="792" on="1"/>
        <pt x="1277" y="792" on="0"/>
        <pt x="1373" y="696" on="0"/>
        <pt x="1373" y="630" on="1"/>
        <pt x="1373" y="578" on="0"/>
        <pt x="1325" y="515" on="1"/>
        <pt x="1276" y="468" on="0"/>
        <pt x="1211" y="468" on="1"/>
        <pt x="1158" y="468" on="0"/>
        <pt x="1096" y="516" on="1"/>
        <pt x="1049" y="565" on="0"/>
        <pt x="1049" y="630" on="1"/>
        <pt x="1049" y="697" on="0"/>
        <pt x="1144" y="792" on="0"/>
      </contour>
      <contour>
        <pt x="647" y="792" on="1"/>
        <pt x="713" y="792" on="0"/>
        <pt x="809" y="696" on="0"/>
        <pt x="809" y="630" on="1"/>
        <pt x="809" y="578" on="0"/>
        <pt x="761" y="515" on="1"/>
        <pt x="712" y="468" on="0"/>
        <pt x="647" y="468" on="1"/>
        <pt x="594" y="468" on="0"/>
        <pt x="532" y="516" on="1"/>
        <pt x="485" y="565" on="0"/>
        <pt x="485" y="630" on="1"/>
        <pt x="485" y="697" on="0"/>
        <pt x="580" y="792" on="0"/>
      </contour>
    </TTGlyph>
    <TTGlyph name="bracketleft" xMin="252" yMin="-337" xMax="1630" yMax="1039">
      <contour>
        <pt x="613" y="102" on="1"/>
        <pt x="1562" y="1039" on="1"/>
        <pt x="1630" y="970" on="1"/>
        <pt x="687" y="20" on="1"/>
        <pt x="1101" y="-232" on="1"/>
        <pt x="1045" y="-288" on="1"/>
        <pt x="860" y="-269" on="0"/>
        <pt x="405" y="-306" on="0"/>
        <pt x="292" y="-337" on="1"/>
        <pt x="252" y="-297" on="1"/>
        <pt x="293" y="-150" on="0"/>
        <pt x="321" y="266" on="0"/>
        <pt x="303" y="453" on="1"/>
        <pt x="359" y="510" on="1"/>
      </contour>
    </TTGlyph>
    <TTGlyph name="bracketright" xMin="68" yMin="-477" xMax="1784" yMax="1136">
      <contour>
        <pt x="1784" y="254" on="1"/>
        <pt x="68" y="260" on="1"/>
        <pt x="923" y="1136" on="1"/>
      </contour>
      <contour>
        <pt x="762" y="-7" on="0"/>
        <pt x="854" y="31" on="0"/>
        <pt x="947" y="30" on="0"/>
        <pt x="1039" y="-8" on="0"/>
        <pt x="1075" y="-44" on="1"/>
        <pt x="1111" y="-81" on="0"/>
        <pt x="1149" y="-176" on="0"/>
        <pt x="1149" y="-271" on="0"/>
        <pt x="1112" y="-366" on="0"/>
        <pt x="1076" y="-402" on="1"/>
        <pt x="1040" y="-439" on="0"/>
        <pt x="948" y="-477" on="0"/>
        <pt x="855" y="-476" on="0"/>
        <pt x="763" y="-438" on="0"/>
        <pt x="727" y="-401" on="1"/>
        <pt x="691" y="-364" on="0"/>
        <pt x="653" y="-270" on="0"/>
        <pt x="653" y="-174" on="0"/>
        <pt x="690" y="-80" on="0"/>
        <pt x="726" y="-43" on="1"/>
      </contour>
    </TTGlyph>
    <TTGlyph name="brokenbar" xMin="345" yMin="-245" xMax="1503" yMax="868">
      <contour>
        <pt x="345" y="868" on="1"/>
        <pt x="1503" y="868" on="1"/>
        <pt x="1503" y="-245" on="1"/>
        <pt x="345" y="-245" on="1"/>
      </contour>
      <contour>
        <pt x="447" y="777" on="1"/>
        <pt x="447" y="357" on="1"/>
        <pt x="880" y="357" on="1"/>
        <pt x="880" y="777" on="1"/>
      </contour>
      <contour>
        <pt x="971" y="777" on="1"/>
        <pt x="971" y="357" on="1"/>
        <pt x="1404" y="357" on="1"/>
        <pt x="1404" y="777" on="1"/>
      </contour>
      <contour>
        <pt x="971" y="266" on="1"/>
        <pt x="971" y="-153" on="1"/>
        <pt x="1404" y="-153" on="1"/>
        <pt x="1404" y="266" on="1"/>
      </contour>
      <contour>
        <pt x="447" y="266" on="1"/>
        <pt x="447" y="-153" on="1"/>
        <pt x="880" y="-153" on="1"/>
        <pt x="880" y="266" on="1"/>
      </contour>
    </TTGlyph>
    <TTGlyph name="bullet" xMin="359" yMin="-238" xMax="1499" yMax="902">
      <contour>
        <pt x="1388" y="-121" on="1"/>
        <pt x="1388" y="797" on="1"/>
        <pt x="464" y="797" on="1"/>
      </contour>
      <contour>
        <pt x="359" y="902" on="1"/>
        <pt x="1499" y="902" on="1"/>
        <pt x="1499" y="-238" on="1"/>
        <pt x="359" y="-238" on="1"/>
      </contour>
    </TTGlyph>
    <TTGlyph name="c" xMin="306" yMin="-311" xMax="1544" yMax="1034">
      <contour>
        <pt x="1544" y="764" on="1"/>
        <pt x="1444" y="687" on="1"/>
        <pt x="1361" y="795" on="0"/>
        <pt x="1130" y="908" on="0"/>
        <pt x="991" y="908" on="1"/>
        <pt x="840" y="908" on="0"/>
        <pt x="581" y="761" on="0"/>
        <pt x="439" y="513" on="0"/>
        <pt x="439" y="358" on="1"/>
        <pt x="439" y="123" on="0"/>
        <pt x="757" y="-189" on="0"/>
        <pt x="999" y="-189" on="1"/>
        <pt x="1265" y="-189" on="0"/>
        <pt x="1444" y="21" on="1"/>
        <pt x="1544" y="-55" on="1"/>
        <pt x="1449" y="-177" on="0"/>
        <pt x="1166" y="-311" on="0"/>
        <pt x="991" y="-311" on="1"/>
        <pt x="659" y="-311" on="0"/>
        <pt x="467" y="-87" on="1"/>
        <pt x="306" y="102" on="0"/>
        <pt x="306" y="369" on="1"/>
        <pt x="306" y="650" on="0"/>
        <pt x="696" y="1034" on="0"/>
        <pt x="990" y="1034" on="1"/>
        <pt x="1167" y="1034" on="0"/>
        <pt x="1453" y="892" on="0"/>
      </contour>
    </TTGlyph>
    <TTGlyph name="c129" xMin="276" yMin="-298" xMax="1600" yMax="1023">
      <contour>
        <pt x="276" y="706" on="1"/>
        <pt x="430" y="706" on="1"/>
        <pt x="1335" y="-200" on="1"/>
        <pt x="1305" y="-298" on="1"/>
        <pt x="1177" y="-298" on="1"/>
        <pt x="288" y="575" on="1"/>
      </contour>
      <contour>
        <pt x="1124" y="1002" on="1"/>
        <pt x="1187" y="1023" on="0"/>
        <pt x="1239" y="1023" on="1"/>
        <pt x="1272" y="1023" on="0"/>
        <pt x="1284" y="1021" on="1"/>
        <pt x="1315" y="1020" on="0"/>
        <pt x="1356" y="1005" on="1"/>
        <pt x="1365" y="1001" on="0"/>
        <pt x="1394" y="988" on="1"/>
        <pt x="1469" y="954" on="0"/>
        <pt x="1521" y="888" on="1"/>
        <pt x="1600" y="787" on="0"/>
        <pt x="1600" y="662" on="1"/>
        <pt x="1600" y="491" on="0"/>
        <pt x="1468" y="384" on="1"/>
        <pt x="1369" y="304" on="0"/>
        <pt x="1242" y="304" on="1"/>
        <pt x="1070" y="304" on="0"/>
        <pt x="963" y="436" on="1"/>
        <pt x="925" y="482" on="0"/>
        <pt x="902" y="544" on="1"/>
        <pt x="882" y="597" on="0"/>
        <pt x="882" y="665" on="1"/>
        <pt x="882" y="751" on="0"/>
        <pt x="914" y="816" on="1"/>
        <pt x="938" y="864" on="0"/>
        <pt x="973" y="904" on="1"/>
        <pt x="1034" y="973" on="0"/>
      </contour>
      <contour>
        <pt x="1075" y="865" on="1"/>
        <pt x="982" y="788" on="0"/>
        <pt x="982" y="664" on="1"/>
        <pt x="982" y="497" on="0"/>
        <pt x="1130" y="429" on="1"/>
        <pt x="1184" y="404" on="0"/>
        <pt x="1241" y="404" on="1"/>
        <pt x="1332" y="404" on="0"/>
        <pt x="1404" y="462" on="1"/>
        <pt x="1499" y="539" on="0"/>
        <pt x="1499" y="663" on="1"/>
        <pt x="1499" y="753" on="0"/>
        <pt x="1442" y="825" on="1"/>
        <pt x="1408" y="869" on="0"/>
        <pt x="1350" y="897" on="1"/>
        <pt x="1288" y="927" on="0"/>
        <pt x="1237" y="924" on="1"/>
        <pt x="1192" y="921" on="1"/>
        <pt x="1180" y="920" on="0"/>
        <pt x="1151" y="910" on="1"/>
        <pt x="1113" y="896" on="0"/>
      </contour>
    </TTGlyph>
    <TTGlyph name="c141" xMin="122" yMin="-433" xMax="1689" yMax="1156">
      <contour>
        <pt x="1390" y="-433" on="1"/>
        <pt x="462" y="-433" on="1"/>
        <pt x="462" y="495" on="1"/>
        <pt x="1390" y="495" on="1"/>
      </contour>
      <contour>
        <pt x="905" y="1156" on="1"/>
        <pt x="1689" y="389" on="1"/>
        <pt x="122" y="389" on="1"/>
      </contour>
      <contour>
        <pt x="1410" y="504" on="1"/>
        <pt x="904" y="1001" on="1"/>
        <pt x="394" y="502" on="1"/>
      </contour>
    </TTGlyph>
    <TTGlyph name="c142" xMin="248" yMin="20" xMax="1680" yMax="603">
      <contour>
        <pt x="1550" y="371" on="1"/>
        <pt x="1106" y="571" on="1"/>
        <pt x="1078" y="526" on="0"/>
        <pt x="1057" y="445" on="1"/>
        <pt x="259" y="445" on="1"/>
        <pt x="384" y="603" on="1"/>
        <pt x="1065" y="603" on="1"/>
        <pt x="1112" y="603" on="0"/>
        <pt x="1124" y="598" on="1"/>
        <pt x="1178" y="576" on="1"/>
        <pt x="1614" y="379" on="1"/>
        <pt x="1680" y="349" on="0"/>
        <pt x="1680" y="310" on="1"/>
        <pt x="1680" y="275" on="0"/>
        <pt x="1617" y="246" on="1"/>
        <pt x="1129" y="26" on="1"/>
        <pt x="1104" y="22" on="1"/>
        <pt x="1065" y="20" on="1"/>
        <pt x="384" y="20" on="1"/>
        <pt x="259" y="178" on="1"/>
        <pt x="1055" y="178" on="1"/>
        <pt x="1072" y="112" on="0"/>
        <pt x="1106" y="52" on="1"/>
        <pt x="1550" y="252" on="1"/>
        <pt x="1532" y="285" on="0"/>
        <pt x="1532" y="313" on="1"/>
        <pt x="1532" y="338" on="0"/>
      </contour>
      <contour>
        <pt x="1050" y="401" on="1"/>
        <pt x="1045" y="311" on="1"/>
        <pt x="1045" y="274" on="1"/>
        <pt x="1049" y="222" on="1"/>
        <pt x="248" y="222" on="1"/>
        <pt x="248" y="401" on="1"/>
      </contour>
    </TTGlyph>
    <TTGlyph name="c143" xMin="102" yMin="-373" xMax="1726" yMax="1107">
      <contour>
        <pt x="1726" y="-373" on="1"/>
        <pt x="102" y="367" on="1"/>
        <pt x="1726" y="1107" on="1"/>
        <pt x="1114" y="367" on="1"/>
      </contour>
    </TTGlyph>
    <TTGlyph name="c144" xMin="122" yMin="-433" xMax="1689" yMax="1156">
      <contour>
        <pt x="1390" y="-433" on="1"/>
        <pt x="462" y="-433" on="1"/>
        <pt x="462" y="495" on="1"/>
        <pt x="1390" y="495" on="1"/>
      </contour>
      <contour>
        <pt x="1325" y="-358" on="1"/>
        <pt x="1325" y="461" on="1"/>
        <pt x="527" y="461" on="1"/>
        <pt x="527" y="-358" on="1"/>
      </contour>
      <contour>
        <pt x="905" y="1156" on="1"/>
        <pt x="1689" y="389" on="1"/>
        <pt x="122" y="389" on="1"/>
      </contour>
    </TTGlyph>
    <TTGlyph name="c157" xMin="187" yMin="-191" xMax="1613" yMax="986">
      <contour>
        <pt x="969" y="-63" on="1"/>
        <pt x="1481" y="-63" on="1"/>
        <pt x="1481" y="840" on="1"/>
        <pt x="969" y="840" on="1"/>
      </contour>
      <contour>
        <pt x="324" y="-63" on="1"/>
        <pt x="836" y="-63" on="1"/>
        <pt x="836" y="840" on="1"/>
        <pt x="324" y="840" on="1"/>
      </contour>
      <contour>
        <pt x="187" y="-191" on="1"/>
        <pt x="187" y="986" on="1"/>
        <pt x="1613" y="986" on="1"/>
        <pt x="1613" y="-191" on="1"/>
      </contour>
    </TTGlyph>
    <TTGlyph name="ccedilla" xMin="305" yMin="-223" xMax="1525" yMax="897">
      <contour>
        <pt x="1525" y="-223" on="1"/>
        <pt x="1383" y="-223" on="1"/>
        <pt x="1002" y="264" on="1"/>
        <pt x="430" y="-213" on="1"/>
        <pt x="305" y="-213" on="1"/>
        <pt x="305" y="-123" on="1"/>
        <pt x="899" y="403" on="1"/>
        <pt x="495" y="897" on="1"/>
        <pt x="726" y="897" on="1"/>
        <pt x="1525" y="-123" on="1"/>
      </contour>
    </TTGlyph>
    <TTGlyph name="cedilla" xMin="192" yMin="-384" xMax="1579" yMax="1012">
      <contour>
        <pt x="1175" y="986" on="1"/>
        <pt x="1283" y="910" on="0"/>
        <pt x="1283" y="778" on="1"/>
        <pt x="1283" y="726" on="0"/>
        <pt x="1256" y="667" on="1"/>
        <pt x="1231" y="612" on="0"/>
        <pt x="1173" y="558" on="1"/>
        <pt x="1089" y="479" on="0"/>
        <pt x="1013" y="360" on="1"/>
        <pt x="1191" y="451" on="1"/>
        <pt x="1269" y="495" on="1"/>
        <pt x="1335" y="532" on="0"/>
        <pt x="1391" y="532" on="1"/>
        <pt x="1463" y="532" on="0"/>
        <pt x="1531" y="465" on="1"/>
        <pt x="1579" y="407" on="0"/>
        <pt x="1576" y="349" on="1"/>
        <pt x="1575" y="329" on="1"/>
        <pt x="1574" y="314" on="0"/>
        <pt x="1571" y="305" on="1"/>
        <pt x="1553" y="216" on="1"/>
        <pt x="1549" y="176" on="1"/>
        <pt x="1548" y="135" on="1"/>
        <pt x="1547" y="83" on="0"/>
        <pt x="1559" y="47" on="1"/>
        <pt x="1561" y="28" on="1"/>
        <pt x="1561" y="-4" on="0"/>
        <pt x="1509" y="-79" on="0"/>
        <pt x="1480" y="-96" on="1"/>
        <pt x="1447" y="-115" on="0"/>
        <pt x="1407" y="-115" on="1"/>
        <pt x="1333" y="-115" on="0"/>
        <pt x="1246" y="-74" on="1"/>
        <pt x="1197" y="-51" on="1"/>
        <pt x="1166" y="-33" on="1"/>
        <pt x="1117" y="-2" on="1"/>
        <pt x="959" y="115" on="1"/>
        <pt x="918" y="140" on="1"/>
        <pt x="902" y="57" on="1"/>
        <pt x="896" y="26" on="0"/>
        <pt x="896" y="-15" on="1"/>
        <pt x="896" y="-44" on="1"/>
        <pt x="896" y="-65" on="0"/>
        <pt x="899" y="-71" on="1"/>
        <pt x="902" y="-101" on="1"/>
        <pt x="909" y="-128" on="1"/>
        <pt x="923" y="-187" on="1"/>
        <pt x="942" y="-248" on="1"/>
        <pt x="984" y="-357" on="1"/>
        <pt x="998" y="-384" on="1"/>
        <pt x="877" y="-384" on="1"/>
        <pt x="857" y="-289" on="1"/>
        <pt x="847" y="-242" on="0"/>
        <pt x="847" y="-199" on="1"/>
        <pt x="847" y="-153" on="1"/>
        <pt x="845" y="-129" on="1"/>
        <pt x="839" y="-14" on="1"/>
        <pt x="839" y="75" on="1"/>
        <pt x="839" y="89" on="0"/>
        <pt x="837" y="104" on="0"/>
        <pt x="831" y="122" on="1"/>
        <pt x="711" y="78" on="0"/>
        <pt x="554" y="-46" on="1"/>
        <pt x="473" y="-110" on="0"/>
        <pt x="395" y="-110" on="1"/>
        <pt x="333" y="-110" on="0"/>
        <pt x="264" y="-60" on="1"/>
        <pt x="192" y="-8" on="0"/>
        <pt x="195" y="65" on="1"/>
        <pt x="196" y="93" on="1"/>
        <pt x="202" y="124" on="1"/>
        <pt x="212" y="170" on="1"/>
        <pt x="222" y="239" on="1"/>
        <pt x="226" y="284" on="1"/>
        <pt x="228" y="329" on="1"/>
        <pt x="221" y="358" on="1"/>
        <pt x="218" y="385" on="1"/>
        <pt x="218" y="414" on="0"/>
        <pt x="237" y="456" on="1"/>
        <pt x="262" y="499" on="0"/>
        <pt x="350" y="527" on="1"/>
        <pt x="380" y="527" on="1"/>
        <pt x="407" y="527" on="0"/>
        <pt x="410" y="525" on="1"/>
        <pt x="429" y="525" on="0"/>
        <pt x="463" y="515" on="1"/>
        <pt x="506" y="510" on="0"/>
        <pt x="562" y="476" on="1"/>
        <pt x="754" y="360" on="1"/>
        <pt x="748" y="404" on="1"/>
        <pt x="589" y="624" on="1"/>
        <pt x="529" y="707" on="0"/>
        <pt x="529" y="796" on="1"/>
        <pt x="529" y="828" on="0"/>
        <pt x="542" y="876" on="1"/>
        <pt x="589" y="974" on="0"/>
        <pt x="650" y="995" on="1"/>
        <pt x="684" y="1003" on="1"/>
        <pt x="717" y="1008" on="1"/>
        <pt x="809" y="1012" on="1"/>
        <pt x="946" y="984" on="1"/>
        <pt x="988" y="981" on="1"/>
        <pt x="1031" y="978" on="0"/>
        <pt x="1077" y="1008" on="1"/>
      </contour>
    </TTGlyph>
    <TTGlyph name="cent" xMin="260" yMin="-343" xMax="1558" yMax="998">
      <contour>
        <pt x="833" y="832" on="1"/>
        <pt x="884" y="876" on="0"/>
        <pt x="938" y="872" on="1"/>
        <pt x="974" y="869" on="1"/>
        <pt x="983" y="868" on="0"/>
        <pt x="989" y="865" on="1"/>
        <pt x="1005" y="858" on="1"/>
        <pt x="1029" y="847" on="0"/>
        <pt x="1059" y="811" on="1"/>
        <pt x="1100" y="761" on="0"/>
        <pt x="1100" y="700" on="1"/>
        <pt x="1100" y="644" on="0"/>
        <pt x="1043" y="575" on="1"/>
        <pt x="997" y="534" on="0"/>
        <pt x="938" y="534" on="1"/>
        <pt x="919" y="534" on="1"/>
        <pt x="899" y="537" on="1"/>
        <pt x="893" y="537" on="0"/>
        <pt x="888" y="541" on="1"/>
        <pt x="872" y="548" on="1"/>
        <pt x="843" y="561" on="0"/>
        <pt x="815" y="593" on="1"/>
        <pt x="797" y="619" on="1"/>
        <pt x="783" y="646" on="1"/>
        <pt x="774" y="672" on="0"/>
        <pt x="774" y="704" on="1"/>
        <pt x="777" y="737" on="1"/>
        <pt x="781" y="752" on="1"/>
        <pt x="788" y="771" on="1"/>
        <pt x="798" y="792" on="0"/>
      </contour>
      <contour>
        <pt x="842" y="-343" on="1"/>
        <pt x="260" y="998" on="1"/>
        <pt x="397" y="997" on="1"/>
        <pt x="917" y="-202" on="1"/>
        <pt x="1421" y="997" on="1"/>
        <pt x="1558" y="998" on="1"/>
        <pt x="980" y="-343" on="1"/>
      </contour>
    </TTGlyph>
    <TTGlyph name="circumflex" xMin="73" yMin="-353" xMax="1735" yMax="1080">
      <contour>
        <pt x="1735" y="-353" on="1"/>
        <pt x="73" y="312" on="1"/>
        <pt x="73" y="1080" on="1"/>
        <pt x="1735" y="415" on="1"/>
      </contour>
      <contour>
        <pt x="1631" y="-183" on="1"/>
        <pt x="1631" y="329" on="1"/>
        <pt x="177" y="910" on="1"/>
        <pt x="177" y="398" on="1"/>
      </contour>
    </TTGlyph>
    <TTGlyph name="colon" xMin="320" yMin="-224" xMax="1436" yMax="885">
      <contour>
        <pt x="697" y="-136" on="1"/>
        <pt x="655" y="-174" on="1"/>
        <pt x="633" y="-194" on="0"/>
        <pt x="613" y="-204" on="1"/>
        <pt x="599" y="-211" on="1"/>
        <pt x="578" y="-217" on="1"/>
        <pt x="558" y="-222" on="1"/>
        <pt x="542" y="-223" on="1"/>
        <pt x="528" y="-224" on="0"/>
        <pt x="481" y="-208" on="1"/>
        <pt x="458" y="-197" on="0"/>
        <pt x="399" y="-142" on="1"/>
        <pt x="362" y="-100" on="1"/>
        <pt x="337" y="-61" on="1"/>
        <pt x="320" y="-27" on="0"/>
        <pt x="320" y="6" on="1"/>
        <pt x="320" y="43" on="0"/>
        <pt x="337" y="73" on="1"/>
        <pt x="352" y="109" on="0"/>
        <pt x="399" y="151" on="1"/>
        <pt x="441" y="189" on="1"/>
        <pt x="458" y="204" on="0"/>
        <pt x="483" y="219" on="1"/>
        <pt x="514" y="231" on="1"/>
        <pt x="547" y="235" on="1"/>
        <pt x="567" y="235" on="0"/>
        <pt x="614" y="217" on="1"/>
        <pt x="620" y="214" on="0"/>
        <pt x="694" y="154" on="1"/>
        <pt x="726" y="122" on="0"/>
        <pt x="762" y="71" on="1"/>
        <pt x="779" y="39" on="0"/>
        <pt x="779" y="8" on="1"/>
        <pt x="779" y="-62" on="0"/>
      </contour>
      <contour>
        <pt x="1354" y="514" on="1"/>
        <pt x="1312" y="476" on="1"/>
        <pt x="1290" y="456" on="0"/>
        <pt x="1270" y="446" on="1"/>
        <pt x="1256" y="439" on="1"/>
        <pt x="1235" y="433" on="1"/>
        <pt x="1215" y="428" on="1"/>
        <pt x="1199" y="427" on="1"/>
        <pt x="1185" y="426" on="0"/>
        <pt x="1138" y="442" on="1"/>
        <pt x="1115" y="453" on="0"/>
        <pt x="1056" y="508" on="1"/>
        <pt x="1019" y="550" on="1"/>
        <pt x="994" y="589" on="1"/>
        <pt x="977" y="623" on="0"/>
        <pt x="977" y="656" on="1"/>
        <pt x="977" y="693" on="0"/>
        <pt x="994" y="723" on="1"/>
        <pt x="1009" y="759" on="0"/>
        <pt x="1056" y="801" on="1"/>
        <pt x="1098" y="839" on="1"/>
        <pt x="1115" y="854" on="0"/>
        <pt x="1140" y="869" on="1"/>
        <pt x="1171" y="881" on="1"/>
        <pt x="1204" y="885" on="1"/>
        <pt x="1224" y="885" on="0"/>
        <pt x="1271" y="867" on="1"/>
        <pt x="1277" y="864" on="0"/>
        <pt x="1351" y="804" on="1"/>
        <pt x="1383" y="772" on="0"/>
        <pt x="1419" y="721" on="1"/>
        <pt x="1436" y="689" on="0"/>
        <pt x="1436" y="658" on="1"/>
        <pt x="1436" y="588" on="0"/>
      </contour>
    </TTGlyph>
    <TTGlyph name="comma" xMin="337" yMin="-375" xMax="1436" yMax="1127">
      <contour>
        <pt x="1436" y="374" on="1"/>
        <pt x="1359" y="380" on="1"/>
        <pt x="936" y="901" on="1"/>
        <pt x="936" y="-375" on="1"/>
        <pt x="824" y="-375" on="1"/>
        <pt x="824" y="901" on="1"/>
        <pt x="416" y="375" on="1"/>
        <pt x="337" y="375" on="1"/>
        <pt x="337" y="445" on="1"/>
        <pt x="883" y="1127" on="1"/>
        <pt x="1435" y="442" on="1"/>
      </contour>
    </TTGlyph>
    <TTGlyph name="copyright" xMin="187" yMin="16" xMax="1643" yMax="712">
      <contour>
        <pt x="187" y="444" on="1"/>
        <pt x="1643" y="444" on="1"/>
        <pt x="1643" y="287" on="1"/>
        <pt x="187" y="287" on="1"/>
      </contour>
      <contour>
        <pt x="592" y="363" on="1"/>
        <pt x="592" y="422" on="0"/>
        <pt x="606" y="440" on="1"/>
        <pt x="606" y="467" on="0"/>
        <pt x="616" y="484" on="1"/>
        <pt x="616" y="536" on="0"/>
        <pt x="741" y="648" on="1"/>
        <pt x="774" y="667" on="1"/>
        <pt x="838" y="698" on="1"/>
        <pt x="889" y="712" on="1"/>
        <pt x="941" y="712" on="1"/>
        <pt x="1015" y="712" on="0"/>
        <pt x="1098" y="677" on="1"/>
        <pt x="1146" y="657" on="0"/>
        <pt x="1164" y="635" on="1"/>
        <pt x="1226" y="563" on="1"/>
        <pt x="1250" y="522" on="1"/>
        <pt x="1272" y="469" on="1"/>
        <pt x="1283" y="413" on="1"/>
        <pt x="1288" y="363" on="1"/>
        <pt x="1288" y="324" on="1"/>
        <pt x="1288" y="302" on="0"/>
        <pt x="1281" y="283" on="1"/>
        <pt x="1274" y="253" on="1"/>
        <pt x="1272" y="242" on="0"/>
        <pt x="1254" y="208" on="1"/>
        <pt x="1212" y="134" on="0"/>
        <pt x="1145" y="83" on="1"/>
        <pt x="1051" y="16" on="0"/>
        <pt x="941" y="16" on="1"/>
        <pt x="861" y="16" on="0"/>
        <pt x="785" y="53" on="1"/>
        <pt x="715" y="91" on="0"/>
        <pt x="660" y="163" on="1"/>
        <pt x="592" y="253" on="0"/>
      </contour>
    </TTGlyph>
    <TTGlyph name="currency" xMin="476" yMin="-266" xMax="1394" yMax="978">
      <contour>
        <pt x="476" y="-266" on="1"/>
        <pt x="939" y="-266" on="1"/>
        <pt x="1056" y="-266" on="0"/>
        <pt x="1216" y="-223" on="0"/>
        <pt x="1268" y="-183" on="1"/>
        <pt x="1321" y="-141" on="0"/>
        <pt x="1394" y="7" on="0"/>
        <pt x="1394" y="96" on="1"/>
        <pt x="1394" y="205" on="0"/>
        <pt x="1277" y="363" on="0"/>
        <pt x="1165" y="396" on="1"/>
        <pt x="1251" y="439" on="0"/>
        <pt x="1335" y="580" on="0"/>
        <pt x="1335" y="660" on="1"/>
        <pt x="1335" y="748" on="0"/>
        <pt x="1287" y="823" on="1"/>
        <pt x="1239" y="902" on="0"/>
        <pt x="1072" y="978" on="0"/>
        <pt x="932" y="978" on="1"/>
        <pt x="476" y="978" on="1"/>
      </contour>
      <contour>
        <pt x="637" y="455" on="1"/>
        <pt x="637" y="830" on="1"/>
        <pt x="880" y="830" on="1"/>
        <pt x="1019" y="830" on="0"/>
        <pt x="1065" y="814" on="1"/>
        <pt x="1120" y="796" on="0"/>
        <pt x="1177" y="702" on="0"/>
        <pt x="1177" y="639" on="1"/>
        <pt x="1177" y="507" on="0"/>
        <pt x="1053" y="469" on="1"/>
        <pt x="998" y="455" on="0"/>
        <pt x="901" y="455" on="1"/>
      </contour>
      <contour>
        <pt x="637" y="-118" on="1"/>
        <pt x="637" y="310" on="1"/>
        <pt x="917" y="310" on="1"/>
        <pt x="1035" y="310" on="0"/>
        <pt x="1095" y="289" on="1"/>
        <pt x="1158" y="267" on="0"/>
        <pt x="1227" y="165" on="0"/>
        <pt x="1227" y="96" on="1"/>
        <pt x="1227" y="0" on="0"/>
        <pt x="1126" y="-98" on="0"/>
        <pt x="1050" y="-112" on="1"/>
        <pt x="1027" y="-118" on="0"/>
        <pt x="939" y="-118" on="1"/>
      </contour>
    </TTGlyph>
    <TTGlyph name="d" xMin="480" yMin="-243" xMax="1455" yMax="965">
      <contour>
        <pt x="480" y="-243" on="1"/>
        <pt x="480" y="965" on="1"/>
        <pt x="636" y="965" on="1"/>
        <pt x="636" y="365" on="1"/>
        <pt x="1222" y="965" on="1"/>
        <pt x="1433" y="965" on="1"/>
        <pt x="939" y="476" on="1"/>
        <pt x="1455" y="-243" on="1"/>
        <pt x="1249" y="-243" on="1"/>
        <pt x="829" y="369" on="1"/>
        <pt x="636" y="175" on="1"/>
        <pt x="636" y="-243" on="1"/>
      </contour>
    </TTGlyph>
    <TTGlyph name="dagger" xMin="219" yMin="-319" xMax="1609" yMax="1013">
      <contour>
        <pt x="219" y="500" on="1"/>
        <pt x="751" y="500" on="1"/>
        <pt x="915" y="1013" on="1"/>
        <pt x="1079" y="500" on="1"/>
        <pt x="1609" y="500" on="1"/>
        <pt x="1183" y="185" on="1"/>
        <pt x="1347" y="-317" on="1"/>
        <pt x="915" y="-7" on="1"/>
        <pt x="485" y="-319" on="1"/>
        <pt x="647" y="184" on="1"/>
      </contour>
    </TTGlyph>
    <TTGlyph name="daggerdbl" xMin="256" yMin="-308" xMax="1599" yMax="1046">
      <contour>
        <pt x="259" y="1046" on="1"/>
        <pt x="378" y="1046" on="1"/>
        <pt x="1599" y="-168" on="1"/>
        <pt x="1599" y="-298" on="1"/>
        <pt x="1493" y="-298" on="1"/>
        <pt x="259" y="929" on="1"/>
      </contour>
      <contour>
        <pt x="500" y="178" on="1"/>
        <pt x="597" y="178" on="0"/>
        <pt x="741" y="32" on="0"/>
        <pt x="741" y="-66" on="1"/>
        <pt x="741" y="-163" on="0"/>
        <pt x="596" y="-308" on="0"/>
        <pt x="500" y="-308" on="1"/>
        <pt x="400" y="-308" on="0"/>
        <pt x="256" y="-166" on="0"/>
        <pt x="256" y="-66" on="1"/>
        <pt x="256" y="32" on="0"/>
        <pt x="326" y="106" on="1"/>
        <pt x="333" y="116" on="0"/>
        <pt x="341" y="121" on="1"/>
        <pt x="360" y="135" on="1"/>
        <pt x="405" y="159" on="1"/>
        <pt x="482" y="178" on="0"/>
      </contour>
    </TTGlyph>
    <TTGlyph name="degree" xMin="305" yMin="-129" xMax="1526" yMax="782">
      <contour>
        <pt x="1526" y="-129" on="1"/>
        <pt x="305" y="-129" on="1"/>
        <pt x="305" y="60" on="1"/>
        <pt x="806" y="60" on="1"/>
        <pt x="806" y="782" on="1"/>
        <pt x="1028" y="782" on="1"/>
        <pt x="1028" y="64" on="1"/>
        <pt x="1526" y="64" on="1"/>
      </contour>
    </TTGlyph>
    <TTGlyph name="dieresis" xMin="253" yMin="-368" xMax="1622" yMax="1018">
      <contour>
        <pt x="1289" y="594" on="1"/>
        <pt x="1310" y="574" on="1"/>
        <pt x="1319" y="560" on="1"/>
        <pt x="1328" y="550" on="0"/>
        <pt x="1332" y="537" on="1"/>
        <pt x="1345" y="518" on="0"/>
        <pt x="1367" y="461" on="1"/>
        <pt x="1395" y="385" on="0"/>
        <pt x="1395" y="305" on="1"/>
        <pt x="1394" y="299" on="1"/>
        <pt x="1396" y="145" on="0"/>
        <pt x="1296" y="16" on="1"/>
        <pt x="1561" y="-252" on="1"/>
        <pt x="1470" y="-344" on="1"/>
        <pt x="1205" y="-76" on="1"/>
        <pt x="1140" y="-130" on="0"/>
        <pt x="1069" y="-147" on="1"/>
        <pt x="1013" y="-161" on="0"/>
        <pt x="913" y="-158" on="1"/>
        <pt x="762" y="-153" on="0"/>
        <pt x="647" y="-56" on="1"/>
        <pt x="339" y="-368" on="1"/>
        <pt x="253" y="-282" on="1"/>
        <pt x="562" y="30" on="1"/>
        <pt x="541" y="51" on="0"/>
        <pt x="521" y="89" on="1"/>
        <pt x="491" y="143" on="0"/>
        <pt x="484" y="275" on="1"/>
        <pt x="483" y="305" on="1"/>
        <pt x="480" y="352" on="0"/>
        <pt x="500" y="432" on="1"/>
        <pt x="528" y="507" on="1"/>
        <pt x="543" y="534" on="1"/>
        <pt x="566" y="571" on="1"/>
        <pt x="262" y="879" on="1"/>
        <pt x="353" y="971" on="1"/>
        <pt x="657" y="663" on="1"/>
        <pt x="796" y="766" on="0"/>
        <pt x="963" y="759" on="1"/>
        <pt x="996" y="758" on="0"/>
        <pt x="1027" y="751" on="1"/>
        <pt x="1088" y="737" on="1"/>
        <pt x="1131" y="727" on="0"/>
        <pt x="1202" y="680" on="1"/>
        <pt x="1536" y="1018" on="1"/>
        <pt x="1622" y="931" on="1"/>
      </contour>
    </TTGlyph>
    <TTGlyph name="divide" xMin="188" yMin="-394" xMax="1616" yMax="1054">
      <contour>
        <pt x="925" y="-319" on="1"/>
        <pt x="842" y="-306" on="1"/>
        <pt x="771" y="-293" on="1"/>
        <pt x="701" y="-273" on="1"/>
        <pt x="676" y="-265" on="1"/>
        <pt x="635" y="-245" on="1"/>
        <pt x="578" y="-216" on="1"/>
        <pt x="521" y="-177" on="1"/>
        <pt x="469" y="-131" on="1"/>
        <pt x="415" y="-76" on="1"/>
        <pt x="378" y="-30" on="1"/>
        <pt x="347" y="17" on="1"/>
        <pt x="320" y="67" on="1"/>
        <pt x="294" y="124" on="1"/>
        <pt x="247" y="228" on="0"/>
        <pt x="254" y="351" on="1"/>
        <pt x="257" y="401" on="1"/>
        <pt x="264" y="450" on="1"/>
        <pt x="271" y="500" on="0"/>
        <pt x="294" y="549" on="1"/>
        <pt x="307" y="577" on="1"/>
        <pt x="318" y="603" on="1"/>
        <pt x="347" y="653" on="1"/>
        <pt x="360" y="675" on="0"/>
        <pt x="377" y="699" on="1"/>
        <pt x="404" y="737" on="0"/>
        <pt x="417" y="749" on="1"/>
        <pt x="463" y="793" on="1"/>
        <pt x="491" y="820" on="0"/>
        <pt x="521" y="834" on="1"/>
        <pt x="635" y="887" on="1"/>
        <pt x="691" y="911" on="1"/>
        <pt x="726" y="920" on="1"/>
        <pt x="763" y="928" on="1"/>
        <pt x="814" y="939" on="0"/>
        <pt x="925" y="939" on="1"/>
      </contour>
      <contour>
        <pt x="1396" y="887" on="0"/>
        <pt x="1503" y="715" on="1"/>
        <pt x="1568" y="611" on="0"/>
        <pt x="1587" y="530" on="1"/>
        <pt x="1600" y="501" on="0"/>
        <pt x="1609" y="437" on="1"/>
        <pt x="1616" y="386" on="0"/>
        <pt x="1616" y="328" on="1"/>
        <pt x="1616" y="251" on="1"/>
        <pt x="1613" y="235" on="1"/>
        <pt x="1605" y="183" on="1"/>
        <pt x="1596" y="143" on="1"/>
        <pt x="1584" y="106" on="1"/>
        <pt x="1570" y="69" on="1"/>
        <pt x="1556" y="35" on="1"/>
        <pt x="1478" y="-156" on="0"/>
        <pt x="1090" y="-394" on="0"/>
        <pt x="901" y="-384" on="1"/>
        <pt x="826" y="-380" on="1"/>
        <pt x="751" y="-368" on="1"/>
        <pt x="671" y="-345" on="1"/>
        <pt x="609" y="-320" on="1"/>
        <pt x="404" y="-214" on="0"/>
        <pt x="298" y="-51" on="1"/>
        <pt x="188" y="118" on="0"/>
        <pt x="188" y="332" on="1"/>
        <pt x="188" y="410" on="1"/>
        <pt x="199" y="482" on="1"/>
        <pt x="220" y="547" on="1"/>
        <pt x="247" y="625" on="1"/>
        <pt x="294" y="730" on="0"/>
        <pt x="361" y="800" on="1"/>
        <pt x="445" y="888" on="0"/>
        <pt x="516" y="932" on="1"/>
        <pt x="714" y="1054" on="0"/>
        <pt x="902" y="1044" on="1"/>
        <pt x="976" y="1040" on="1"/>
        <pt x="1050" y="1028" on="1"/>
        <pt x="1115" y="1017" on="0"/>
        <pt x="1196" y="980" on="1"/>
      </contour>
      <contour>
        <pt x="930" y="953" on="1"/>
        <pt x="903" y="953" on="1"/>
        <pt x="854" y="951" on="1"/>
        <pt x="835" y="949" on="1"/>
        <pt x="810" y="948" on="1"/>
        <pt x="724" y="929" on="1"/>
        <pt x="682" y="916" on="1"/>
        <pt x="644" y="902" on="1"/>
        <pt x="600" y="883" on="1"/>
        <pt x="562" y="864" on="1"/>
        <pt x="480" y="808" on="1"/>
        <pt x="431" y="766" on="0"/>
        <pt x="410" y="744" on="1"/>
        <pt x="347" y="677" on="0"/>
        <pt x="312" y="599" on="1"/>
        <pt x="285" y="538" on="1"/>
        <pt x="280" y="529" on="0"/>
        <pt x="275" y="508" on="1"/>
        <pt x="268" y="475" on="1"/>
        <pt x="263" y="466" on="0"/>
        <pt x="263" y="456" on="1"/>
        <pt x="261" y="453" on="0"/>
        <pt x="261" y="441" on="1"/>
        <pt x="257" y="421" on="1"/>
        <pt x="254" y="337" on="1"/>
        <pt x="247" y="165" on="0"/>
        <pt x="360" y="-13" on="1"/>
        <pt x="471" y="-186" on="0"/>
        <pt x="631" y="-254" on="1"/>
        <pt x="666" y="-269" on="1"/>
        <pt x="697" y="-278" on="1"/>
        <pt x="729" y="-292" on="0"/>
        <pt x="760" y="-297" on="1"/>
        <pt x="822" y="-306" on="1"/>
        <pt x="842" y="-313" on="0"/>
        <pt x="858" y="-313" on="1"/>
        <pt x="895" y="-313" on="1"/>
        <pt x="1082" y="-313" on="0"/>
        <pt x="1245" y="-210" on="1"/>
        <pt x="1413" y="-104" on="0"/>
        <pt x="1485" y="63" on="1"/>
        <pt x="1501" y="100" on="1"/>
        <pt x="1520" y="154" on="1"/>
        <pt x="1525" y="174" on="1"/>
        <pt x="1527" y="192" on="1"/>
        <pt x="1542" y="233" on="0"/>
        <pt x="1545" y="253" on="1"/>
        <pt x="1549" y="260" on="0"/>
        <pt x="1549" y="279" on="1"/>
        <pt x="1550" y="323" on="1"/>
        <pt x="1554" y="515" on="0"/>
        <pt x="1449" y="671" on="1"/>
        <pt x="1390" y="758" on="0"/>
        <pt x="1327" y="813" on="1"/>
        <pt x="1284" y="850" on="0"/>
        <pt x="1255" y="867" on="1"/>
        <pt x="1215" y="890" on="1"/>
        <pt x="1171" y="911" on="1"/>
        <pt x="1151" y="921" on="0"/>
        <pt x="1138" y="924" on="1"/>
        <pt x="1129" y="933" on="0"/>
        <pt x="1096" y="935" on="1"/>
        <pt x="1081" y="939" on="0"/>
        <pt x="1038" y="939" on="1"/>
        <pt x="956" y="939" on="1"/>
      </contour>
    </TTGlyph>
    <TTGlyph name="dollar" xMin="436" yMin="-475" xMax="1392" yMax="1149">
      <contour>
        <pt x="986" y="-69" on="1"/>
        <pt x="1261" y="-69" on="1"/>
        <pt x="1261" y="192" on="1"/>
        <pt x="986" y="192" on="1"/>
      </contour>
      <contour>
        <pt x="567" y="481" on="1"/>
        <pt x="842" y="481" on="1"/>
        <pt x="842" y="743" on="1"/>
        <pt x="567" y="743" on="1"/>
      </contour>
      <contour>
        <pt x="436" y="-67" on="1"/>
        <pt x="436" y="195" on="1"/>
        <pt x="554" y="195" on="1"/>
        <pt x="554" y="-5" on="1"/>
        <pt x="625" y="-69" on="1"/>
        <pt x="855" y="-69" on="1"/>
        <pt x="855" y="336" on="1"/>
        <pt x="571" y="336" on="1"/>
        <pt x="436" y="476" on="1"/>
        <pt x="436" y="747" on="1"/>
        <pt x="571" y="887" on="1"/>
        <pt x="855" y="887" on="1"/>
        <pt x="855" y="1149" on="1"/>
        <pt x="973" y="1149" on="1"/>
        <pt x="973" y="887" on="1"/>
        <pt x="1254" y="887" on="1"/>
        <pt x="1392" y="744" on="1"/>
        <pt x="1392" y="478" on="1"/>
        <pt x="1274" y="478" on="1"/>
        <pt x="1274" y="682" on="1"/>
        <pt x="1202" y="756" on="1"/>
        <pt x="973" y="756" on="1"/>
        <pt x="973" y="336" on="1"/>
        <pt x="1254" y="336" on="1"/>
        <pt x="1392" y="200" on="1"/>
        <pt x="1392" y="-66" on="1"/>
        <pt x="1254" y="-200" on="1"/>
        <pt x="973" y="-200" on="1"/>
        <pt x="973" y="-475" on="1"/>
        <pt x="855" y="-475" on="1"/>
        <pt x="855" y="-200" on="1"/>
        <pt x="571" y="-200" on="1"/>
      </contour>
    </TTGlyph>
    <TTGlyph name="e" xMin="305" yMin="-223" xMax="1525" yMax="897">
      <contour>
        <pt x="1525" y="797" on="1"/>
        <pt x="726" y="-223" on="1"/>
        <pt x="495" y="-223" on="1"/>
        <pt x="899" y="271" on="1"/>
        <pt x="305" y="797" on="1"/>
        <pt x="305" y="887" on="1"/>
        <pt x="430" y="887" on="1"/>
        <pt x="1002" y="410" on="1"/>
        <pt x="1383" y="897" on="1"/>
        <pt x="1525" y="897" on="1"/>
      </contour>
    </TTGlyph>
    <TTGlyph name="eacute" xMin="204" yMin="-404" xMax="1677" yMax="1069">
      <contour>
        <pt x="706" y="-309" on="1"/>
        <pt x="1553" y="-309" on="1"/>
        <pt x="1553" y="538" on="1"/>
        <pt x="706" y="538" on="1"/>
      </contour>
      <contour>
        <pt x="204" y="-404" on="1"/>
        <pt x="204" y="1069" on="1"/>
        <pt x="1677" y="1069" on="1"/>
        <pt x="1677" y="-404" on="1"/>
      </contour>
    </TTGlyph>
    <TTGlyph name="ecircumflex" xMin="80" yMin="-460" xMax="1758" yMax="1144">
      <contour>
        <pt x="1758" y="525" on="1"/>
        <pt x="1240" y="139" on="1"/>
        <pt x="1452" y="-460" on="1"/>
        <pt x="932" y="-66" on="1"/>
        <pt x="402" y="-457" on="1"/>
        <pt x="614" y="139" on="1"/>
        <pt x="80" y="525" on="1"/>
        <pt x="719" y="525" on="1"/>
        <pt x="933" y="1144" on="1"/>
        <pt x="1118" y="525" on="1"/>
      </contour>
      <contour>
        <pt x="1503" y="433" on="1"/>
        <pt x="1063" y="433" on="1"/>
        <pt x="928" y="887" on="1"/>
        <pt x="770" y="433" on="1"/>
        <pt x="341" y="433" on="1"/>
        <pt x="708" y="169" on="1"/>
        <pt x="562" y="-241" on="1"/>
        <pt x="933" y="32" on="1"/>
        <pt x="1291" y="-239" on="1"/>
        <pt x="1147" y="168" on="1"/>
      </contour>
    </TTGlyph>
    <TTGlyph name="edieresis" xMin="470" yMin="-278" xMax="1298" yMax="961">
      <contour>
        <pt x="919" y="961" on="1"/>
        <pt x="1298" y="961" on="1"/>
        <pt x="859" y="340" on="1"/>
        <pt x="1298" y="-278" on="1"/>
        <pt x="919" y="-278" on="1"/>
        <pt x="470" y="340" on="1"/>
      </contour>
    </TTGlyph>
    <TTGlyph name="egrave" xMin="365" yMin="-202" xMax="1453" yMax="885">
      <contour>
        <pt x="365" y="341" on="1"/>
        <pt x="365" y="564" on="0"/>
        <pt x="522" y="724" on="1"/>
        <pt x="567" y="770" on="0"/>
        <pt x="600" y="790" on="1"/>
        <pt x="641" y="815" on="1"/>
        <pt x="696" y="843" on="1"/>
        <pt x="778" y="885" on="0"/>
        <pt x="908" y="885" on="1"/>
        <pt x="1132" y="885" on="0"/>
        <pt x="1453" y="565" on="0"/>
        <pt x="1453" y="341" on="1"/>
        <pt x="1453" y="114" on="0"/>
        <pt x="1135" y="-202" on="0"/>
        <pt x="908" y="-202" on="1"/>
        <pt x="682" y="-202" on="0"/>
        <pt x="365" y="115" on="0"/>
      </contour>
      <contour>
        <pt x="653" y="341" on="1"/>
        <pt x="653" y="243" on="0"/>
        <pt x="810" y="86" on="0"/>
        <pt x="908" y="86" on="1"/>
        <pt x="1011" y="86" on="0"/>
        <pt x="1087" y="160" on="1"/>
        <pt x="1107" y="180" on="0"/>
        <pt x="1145" y="244" on="1"/>
        <pt x="1153" y="269" on="1"/>
        <pt x="1159" y="289" on="1"/>
        <pt x="1165" y="309" on="0"/>
        <pt x="1165" y="341" on="1"/>
        <pt x="1165" y="446" on="0"/>
        <pt x="1013" y="597" on="0"/>
        <pt x="908" y="597" on="1"/>
        <pt x="808" y="597" on="0"/>
        <pt x="653" y="448" on="0"/>
      </contour>
    </TTGlyph>
    <TTGlyph name="eight" xMin="509" yMin="-315" xMax="1346" yMax="1027">
      <contour>
        <pt x="1034" y="458" on="1"/>
        <pt x="942" y="458" on="0"/>
        <pt x="834" y="382" on="1"/>
        <pt x="744" y="320" on="0"/>
        <pt x="676" y="232" on="1"/>
        <pt x="603" y="137" on="0"/>
        <pt x="579" y="29" on="1"/>
        <pt x="573" y="1" on="0"/>
        <pt x="573" y="-25" on="1"/>
        <pt x="573" y="-95" on="0"/>
        <pt x="623" y="-157" on="1"/>
        <pt x="675" y="-224" on="0"/>
        <pt x="743" y="-224" on="1"/>
        <pt x="763" y="-224" on="1"/>
        <pt x="770" y="-222" on="1"/>
        <pt x="875" y="-192" on="0"/>
        <pt x="948" y="-147" on="1"/>
        <pt x="983" y="-125" on="0"/>
        <pt x="1029" y="-84" on="1"/>
        <pt x="1069" y="-48" on="1"/>
        <pt x="1107" y="-10" on="1"/>
        <pt x="1205" y="107" on="1"/>
        <pt x="1254" y="199" on="0"/>
        <pt x="1254" y="259" on="1"/>
        <pt x="1254" y="305" on="0"/>
        <pt x="1235" y="347" on="1"/>
        <pt x="1185" y="458" on="0"/>
      </contour>
      <contour>
        <pt x="788" y="486" on="1"/>
        <pt x="804" y="489" on="1"/>
        <pt x="827" y="499" on="1"/>
        <pt x="850" y="512" on="1"/>
        <pt x="877" y="528" on="0"/>
        <pt x="923" y="551" on="1"/>
        <pt x="1000" y="573" on="0"/>
        <pt x="1068" y="701" on="1"/>
        <pt x="1094" y="750" on="0"/>
        <pt x="1094" y="803" on="1"/>
        <pt x="1094" y="851" on="0"/>
        <pt x="1054" y="892" on="1"/>
        <pt x="990" y="947" on="0"/>
        <pt x="928" y="947" on="1"/>
        <pt x="854" y="947" on="0"/>
        <pt x="790" y="874" on="1"/>
        <pt x="739" y="814" on="0"/>
        <pt x="712" y="732" on="1"/>
        <pt x="697" y="686" on="0"/>
        <pt x="697" y="639" on="1"/>
        <pt x="697" y="606" on="0"/>
        <pt x="712" y="550" on="1"/>
        <pt x="718" y="527" on="0"/>
        <pt x="765" y="486" on="0"/>
      </contour>
      <contour>
        <pt x="742" y="-315" on="1"/>
        <pt x="636" y="-315" on="0"/>
        <pt x="560" y="-195" on="1"/>
        <pt x="509" y="-115" on="0"/>
        <pt x="509" y="-18" on="1"/>
        <pt x="509" y="52" on="0"/>
        <pt x="539" y="140" on="1"/>
        <pt x="604" y="332" on="0"/>
        <pt x="742" y="414" on="1"/>
        <pt x="624" y="432" on="0"/>
        <pt x="624" y="576" on="1"/>
        <pt x="624" y="593" on="1"/>
        <pt x="626" y="611" on="1"/>
        <pt x="647" y="801" on="0"/>
        <pt x="683" y="866" on="1"/>
        <pt x="730" y="951" on="0"/>
        <pt x="846" y="1005" on="1"/>
        <pt x="892" y="1021" on="1"/>
        <pt x="916" y="1027" on="0"/>
        <pt x="940" y="1027" on="1"/>
        <pt x="1001" y="1027" on="0"/>
        <pt x="1056" y="989" on="1"/>
        <pt x="1162" y="916" on="0"/>
        <pt x="1154" y="824" on="1"/>
        <pt x="1151" y="788" on="1"/>
        <pt x="1130" y="688" on="0"/>
        <pt x="1070" y="576" on="1"/>
        <pt x="1068" y="573" on="1"/>
        <pt x="1057" y="563" on="1"/>
        <pt x="1051" y="560" on="0"/>
        <pt x="1048" y="549" on="1"/>
        <pt x="1180" y="549" on="0"/>
        <pt x="1281" y="424" on="1"/>
        <pt x="1346" y="343" on="0"/>
        <pt x="1346" y="251" on="1"/>
        <pt x="1346" y="214" on="0"/>
        <pt x="1336" y="178" on="1"/>
        <pt x="1263" y="-82" on="0"/>
        <pt x="973" y="-240" on="1"/>
        <pt x="835" y="-315" on="0"/>
      </contour>
    </TTGlyph>
    <TTGlyph name="ellipsis" xMin="226" yMin="-370" xMax="1628" yMax="1034">
      <contour>
        <pt x="1624" y="-101" on="1"/>
        <pt x="1628" y="-227" on="0"/>
        <pt x="1542" y="-295" on="1"/>
        <pt x="1460" y="-359" on="0"/>
        <pt x="1361" y="-359" on="1"/>
        <pt x="1248" y="-359" on="0"/>
        <pt x="1099" y="-211" on="0"/>
        <pt x="1099" y="-98" on="1"/>
        <pt x="1099" y="69" on="1"/>
        <pt x="759" y="69" on="1"/>
        <pt x="759" y="-118" on="1"/>
        <pt x="759" y="-205" on="0"/>
        <pt x="681" y="-286" on="1"/>
        <pt x="598" y="-370" on="0"/>
        <pt x="509" y="-366" on="1"/>
        <pt x="486" y="-365" on="1"/>
        <pt x="402" y="-361" on="0"/>
        <pt x="323" y="-287" on="1"/>
        <pt x="253" y="-221" on="0"/>
        <pt x="232" y="-111" on="1"/>
        <pt x="231" y="-98" on="1"/>
        <pt x="231" y="-87" on="1"/>
        <pt x="231" y="-5" on="0"/>
        <pt x="312" y="83" on="1"/>
        <pt x="381" y="158" on="0"/>
        <pt x="478" y="159" on="1"/>
        <pt x="667" y="161" on="1"/>
        <pt x="667" y="502" on="1"/>
        <pt x="478" y="503" on="1"/>
        <pt x="391" y="503" on="0"/>
        <pt x="311" y="578" on="1"/>
        <pt x="226" y="657" on="0"/>
        <pt x="230" y="747" on="1"/>
        <pt x="231" y="768" on="1"/>
        <pt x="236" y="868" on="0"/>
        <pt x="387" y="1019" on="0"/>
        <pt x="483" y="1026" on="1"/>
        <pt x="510" y="1028" on="1"/>
        <pt x="592" y="1034" on="0"/>
        <pt x="681" y="947" on="1"/>
        <pt x="756" y="873" on="0"/>
        <pt x="757" y="782" on="1"/>
        <pt x="759" y="594" on="1"/>
        <pt x="1099" y="594" on="1"/>
        <pt x="1099" y="698" on="0"/>
        <pt x="1111" y="819" on="1"/>
        <pt x="1123" y="944" on="0"/>
        <pt x="1259" y="1007" on="1"/>
        <pt x="1312" y="1032" on="0"/>
        <pt x="1361" y="1028" on="1"/>
        <pt x="1400" y="1025" on="1"/>
        <pt x="1412" y="1024" on="0"/>
        <pt x="1419" y="1021" on="1"/>
        <pt x="1441" y="1014" on="1"/>
        <pt x="1522" y="988" on="0"/>
        <pt x="1574" y="914" on="1"/>
        <pt x="1623" y="844" on="0"/>
        <pt x="1623" y="751" on="1"/>
        <pt x="1623" y="657" on="0"/>
        <pt x="1475" y="501" on="0"/>
        <pt x="1382" y="501" on="1"/>
        <pt x="1191" y="502" on="1"/>
        <pt x="1191" y="161" on="1"/>
        <pt x="1378" y="158" on="1"/>
        <pt x="1471" y="157" on="0"/>
        <pt x="1543" y="85" on="1"/>
        <pt x="1579" y="49" on="0"/>
        <pt x="1604" y="-1" on="1"/>
        <pt x="1612" y="-23" on="1"/>
        <pt x="1619" y="-49" on="1"/>
        <pt x="1623" y="-72" on="1"/>
      </contour>
      <contour>
        <pt x="1532" y="766" on="1"/>
        <pt x="1532" y="856" on="0"/>
        <pt x="1456" y="905" on="1"/>
        <pt x="1413" y="924" on="1"/>
        <pt x="1384" y="931" on="1"/>
        <pt x="1361" y="933" on="1"/>
        <pt x="1334" y="935" on="0"/>
        <pt x="1327" y="931" on="1"/>
        <pt x="1296" y="922" on="1"/>
        <pt x="1262" y="912" on="0"/>
        <pt x="1219" y="868" on="1"/>
        <pt x="1194" y="832" on="0"/>
        <pt x="1193" y="779" on="1"/>
        <pt x="1191" y="594" on="1"/>
        <pt x="1370" y="594" on="0"/>
        <pt x="1415" y="606" on="1"/>
        <pt x="1532" y="638" on="0"/>
      </contour>
      <contour>
        <pt x="1099" y="161" on="1"/>
        <pt x="1099" y="502" on="1"/>
        <pt x="759" y="502" on="1"/>
        <pt x="759" y="161" on="1"/>
      </contour>
      <contour>
        <pt x="667" y="594" on="1"/>
        <pt x="667" y="774" on="0"/>
        <pt x="656" y="816" on="1"/>
        <pt x="626" y="934" on="0"/>
        <pt x="501" y="934" on="1"/>
        <pt x="430" y="934" on="0"/>
        <pt x="338" y="834" on="0"/>
        <pt x="338" y="763" on="1"/>
        <pt x="338" y="688" on="0"/>
        <pt x="424" y="594" on="0"/>
        <pt x="498" y="594" on="1"/>
      </contour>
      <contour>
        <pt x="1532" y="-100" on="1"/>
        <pt x="1532" y="41" on="0"/>
        <pt x="1416" y="53" on="1"/>
        <pt x="1301" y="65" on="1"/>
        <pt x="1191" y="69" on="1"/>
        <pt x="1193" y="-117" on="1"/>
        <pt x="1194" y="-213" on="0"/>
        <pt x="1297" y="-258" on="1"/>
        <pt x="1328" y="-267" on="1"/>
        <pt x="1360" y="-271" on="1"/>
        <pt x="1408" y="-271" on="0"/>
        <pt x="1455" y="-240" on="1"/>
        <pt x="1532" y="-189" on="0"/>
      </contour>
      <contour>
        <pt x="667" y="-100" on="1"/>
        <pt x="667" y="69" on="1"/>
        <pt x="512" y="65" on="1"/>
        <pt x="490" y="61" on="1"/>
        <pt x="436" y="52" on="1"/>
        <pt x="339" y="36" on="0"/>
        <pt x="339" y="-133" on="1"/>
        <pt x="339" y="-177" on="0"/>
        <pt x="383" y="-219" on="1"/>
        <pt x="443" y="-276" on="0"/>
        <pt x="498" y="-276" on="1"/>
        <pt x="532" y="-276" on="0"/>
        <pt x="564" y="-257" on="1"/>
        <pt x="651" y="-206" on="0"/>
      </contour>
    </TTGlyph>
    <TTGlyph name="emdash" xMin="319" yMin="-287" xMax="1519" yMax="928">
      <contour>
        <pt x="1053" y="109" on="0"/>
        <pt x="997" y="38" on="1"/>
        <pt x="952" y="-19" on="0"/>
        <pt x="894" y="-49" on="1"/>
        <pt x="832" y="-79" on="0"/>
        <pt x="766" y="-79" on="1"/>
        <pt x="676" y="-79" on="0"/>
        <pt x="599" y="-26" on="1"/>
        <pt x="544" y="14" on="0"/>
        <pt x="509" y="74" on="1"/>
        <pt x="494" y="101" on="0"/>
        <pt x="492" y="109" on="1"/>
        <pt x="487" y="133" on="1"/>
        <pt x="481" y="149" on="0"/>
        <pt x="481" y="166" on="1"/>
        <pt x="481" y="197" on="1"/>
        <pt x="485" y="236" on="1"/>
        <pt x="494" y="281" on="1"/>
        <pt x="513" y="323" on="1"/>
        <pt x="532" y="356" on="1"/>
        <pt x="583" y="413" on="1"/>
        <pt x="598" y="430" on="0"/>
        <pt x="637" y="446" on="1"/>
        <pt x="705" y="474" on="0"/>
        <pt x="766" y="474" on="1"/>
        <pt x="809" y="474" on="1"/>
        <pt x="850" y="463" on="1"/>
        <pt x="903" y="438" on="1"/>
        <pt x="931" y="423" on="1"/>
        <pt x="1033" y="334" on="0"/>
        <pt x="1033" y="293" on="1"/>
        <pt x="1042" y="279" on="0"/>
        <pt x="1042" y="258" on="1"/>
        <pt x="1053" y="244" on="0"/>
        <pt x="1053" y="197" on="1"/>
      </contour>
      <contour>
        <pt x="319" y="928" on="1"/>
        <pt x="1514" y="928" on="1"/>
        <pt x="1519" y="-287" on="1"/>
        <pt x="1352" y="-287" on="1"/>
        <pt x="1352" y="765" on="1"/>
        <pt x="319" y="765" on="1"/>
      </contour>
    </TTGlyph>
    <TTGlyph name="endash" xMin="229" yMin="-159" xMax="1539" yMax="904">
      <contour>
        <pt x="1300" y="319" on="1"/>
        <pt x="1398" y="319" on="0"/>
        <pt x="1539" y="177" on="0"/>
        <pt x="1539" y="79" on="1"/>
        <pt x="1539" y="-18" on="0"/>
        <pt x="1397" y="-159" on="0"/>
        <pt x="1300" y="-159" on="1"/>
        <pt x="1201" y="-159" on="0"/>
        <pt x="1060" y="-20" on="0"/>
        <pt x="1060" y="79" on="1"/>
        <pt x="1060" y="178" on="0"/>
        <pt x="1201" y="319" on="0"/>
      </contour>
      <contour>
        <pt x="467" y="319" on="1"/>
        <pt x="564" y="319" on="0"/>
        <pt x="707" y="176" on="0"/>
        <pt x="707" y="79" on="1"/>
        <pt x="707" y="-20" on="0"/>
        <pt x="566" y="-159" on="0"/>
        <pt x="467" y="-159" on="1"/>
        <pt x="369" y="-159" on="0"/>
        <pt x="299" y="-88" on="1"/>
        <pt x="271" y="-59" on="0"/>
        <pt x="246" y="-12" on="1"/>
        <pt x="229" y="31" on="0"/>
        <pt x="229" y="79" on="1"/>
        <pt x="229" y="178" on="0"/>
        <pt x="368" y="319" on="0"/>
      </contour>
      <contour>
        <pt x="887" y="904" on="1"/>
        <pt x="984" y="904" on="0"/>
        <pt x="1127" y="761" on="0"/>
        <pt x="1127" y="664" on="1"/>
        <pt x="1127" y="569" on="0"/>
        <pt x="982" y="426" on="0"/>
        <pt x="887" y="426" on="1"/>
        <pt x="836" y="426" on="0"/>
        <pt x="797" y="441" on="1"/>
        <pt x="776" y="449" on="1"/>
        <pt x="758" y="461" on="1"/>
        <pt x="706" y="496" on="0"/>
        <pt x="666" y="571" on="1"/>
        <pt x="649" y="614" on="0"/>
        <pt x="649" y="664" on="1"/>
        <pt x="649" y="762" on="0"/>
        <pt x="789" y="904" on="0"/>
      </contour>
    </TTGlyph>
    <TTGlyph name="equal" xMin="393" yMin="2" xMax="1395" yMax="651">
      <contour>
        <pt x="1395" y="492" on="1"/>
        <pt x="393" y="492" on="1"/>
        <pt x="393" y="651" on="1"/>
        <pt x="1395" y="651" on="1"/>
      </contour>
      <contour>
        <pt x="1395" y="2" on="1"/>
        <pt x="393" y="2" on="1"/>
        <pt x="393" y="161" on="1"/>
        <pt x="1395" y="161" on="1"/>
      </contour>
    </TTGlyph>
    <TTGlyph name="eth" xMin="172" yMin="-408" xMax="1653" yMax="1146">
      <contour>
        <pt x="172" y="1146" on="1"/>
        <pt x="1653" y="368" on="1"/>
        <pt x="172" y="-408" on="1"/>
      </contour>
    </TTGlyph>
    <TTGlyph name="exclam" xMin="259" yMin="-322" xMax="1589" yMax="1000">
      <contour>
        <pt x="1589" y="1000" on="1"/>
        <pt x="259" y="-322" on="1"/>
        <pt x="259" y="1000" on="1"/>
      </contour>
      <contour>
        <pt x="951" y="58" on="0"/>
        <pt x="994" y="157" on="0"/>
        <pt x="1066" y="229" on="0"/>
        <pt x="1166" y="272" on="0"/>
        <pt x="1222" y="272" on="1"/>
        <pt x="1277" y="272" on="0"/>
        <pt x="1378" y="229" on="0"/>
        <pt x="1450" y="157" on="0"/>
        <pt x="1493" y="58" on="0"/>
        <pt x="1493" y="3" on="1"/>
        <pt x="1493" y="-53" on="0"/>
        <pt x="1450" y="-152" on="0"/>
        <pt x="1378" y="-224" on="0"/>
        <pt x="1277" y="-267" on="0"/>
        <pt x="1222" y="-267" on="1"/>
        <pt x="1166" y="-267" on="0"/>
        <pt x="1066" y="-224" on="0"/>
        <pt x="994" y="-152" on="0"/>
        <pt x="951" y="-53" on="0"/>
        <pt x="951" y="3" on="1"/>
      </contour>
    </TTGlyph>
    <TTGlyph name="exclamdown" xMin="260" yMin="-343" xMax="1558" yMax="998">
      <contour>
        <pt x="798" y="-137" on="0"/>
        <pt x="788" y="-116" on="1"/>
        <pt x="781" y="-97" on="1"/>
        <pt x="777" y="-82" on="1"/>
        <pt x="774" y="-49" on="1"/>
        <pt x="774" y="-17" on="0"/>
        <pt x="783" y="9" on="1"/>
        <pt x="797" y="36" on="1"/>
        <pt x="815" y="62" on="1"/>
        <pt x="843" y="94" on="0"/>
        <pt x="872" y="107" on="1"/>
        <pt x="888" y="114" on="1"/>
        <pt x="893" y="118" on="0"/>
        <pt x="899" y="118" on="1"/>
        <pt x="919" y="121" on="1"/>
        <pt x="938" y="121" on="1"/>
        <pt x="997" y="121" on="0"/>
        <pt x="1043" y="80" on="1"/>
        <pt x="1100" y="11" on="0"/>
        <pt x="1100" y="-45" on="1"/>
        <pt x="1100" y="-106" on="0"/>
        <pt x="1059" y="-156" on="1"/>
        <pt x="1029" y="-192" on="0"/>
        <pt x="1005" y="-203" on="1"/>
        <pt x="989" y="-210" on="1"/>
        <pt x="983" y="-213" on="0"/>
        <pt x="974" y="-214" on="1"/>
        <pt x="938" y="-217" on="1"/>
        <pt x="884" y="-221" on="0"/>
        <pt x="833" y="-177" on="1"/>
      </contour>
      <contour>
        <pt x="980" y="998" on="1"/>
        <pt x="1558" y="-343" on="1"/>
        <pt x="1421" y="-342" on="1"/>
        <pt x="917" y="857" on="1"/>
        <pt x="397" y="-342" on="1"/>
        <pt x="260" y="-343" on="1"/>
        <pt x="842" y="998" on="1"/>
      </contour>
    </TTGlyph>
    <TTGlyph name="f" xMin="134" yMin="-412" xMax="1688" yMax="1069">
      <contour>
        <pt x="1688" y="1069" on="1"/>
        <pt x="910" y="-412" on="1"/>
        <pt x="134" y="1069" on="1"/>
      </contour>
    </TTGlyph>
    <TTGlyph name="five" xMin="381" yMin="-385" xMax="1330" yMax="1037">
      <contour>
        <pt x="381" y="40" on="1"/>
        <pt x="491" y="32" on="1"/>
        <pt x="511" y="-96" on="0"/>
        <pt x="705" y="-266" on="0"/>
        <pt x="834" y="-266" on="1"/>
        <pt x="974" y="-266" on="0"/>
        <pt x="1227" y="-27" on="0"/>
        <pt x="1227" y="112" on="1"/>
        <pt x="1227" y="263" on="0"/>
        <pt x="1125" y="384" on="1"/>
        <pt x="1017" y="512" on="0"/>
        <pt x="868" y="512" on="1"/>
        <pt x="758" y="512" on="0"/>
        <pt x="682" y="457" on="1"/>
        <pt x="619" y="413" on="0"/>
        <pt x="556" y="311" on="1"/>
        <pt x="474" y="335" on="1"/>
        <pt x="611" y="1037" on="1"/>
        <pt x="1269" y="1037" on="1"/>
        <pt x="1258" y="914" on="1"/>
        <pt x="673" y="914" on="1"/>
        <pt x="594" y="520" on="1"/>
        <pt x="726" y="612" on="0"/>
        <pt x="871" y="612" on="1"/>
        <pt x="1072" y="612" on="0"/>
        <pt x="1202" y="472" on="1"/>
        <pt x="1330" y="336" on="0"/>
        <pt x="1330" y="134" on="1"/>
        <pt x="1330" y="-89" on="0"/>
        <pt x="1048" y="-385" on="0"/>
        <pt x="826" y="-385" on="1"/>
        <pt x="662" y="-385" on="0"/>
        <pt x="528" y="-254" on="1"/>
        <pt x="397" y="-126" on="0"/>
      </contour>
    </TTGlyph>
    <TTGlyph name="florin" xMin="196" yMin="-384" xMax="1675" yMax="1130">
      <contour>
        <pt x="1675" y="-377" on="1"/>
        <pt x="196" y="-377" on="1"/>
        <pt x="940" y="1130" on="1"/>
      </contour>
      <contour>
        <pt x="1525" y="-275" on="1"/>
        <pt x="940" y="926" on="1"/>
        <pt x="347" y="-275" on="1"/>
      </contour>
      <contour>
        <pt x="1029" y="945" on="1"/>
        <pt x="1029" y="-384" on="1"/>
        <pt x="865" y="-384" on="1"/>
        <pt x="865" y="945" on="1"/>
      </contour>
    </TTGlyph>
    <TTGlyph name="four" xMin="361" yMin="-395" xMax="1485" yMax="1011">
      <contour>
        <pt x="1133" y="-395" on="1"/>
        <pt x="1133" y="-69" on="1"/>
        <pt x="361" y="-69" on="1"/>
        <pt x="361" y="40" on="1"/>
        <pt x="1133" y="1011" on="1"/>
        <pt x="1233" y="1011" on="1"/>
        <pt x="1233" y="40" on="1"/>
        <pt x="1485" y="40" on="1"/>
        <pt x="1485" y="-69" on="1"/>
        <pt x="1233" y="-68" on="1"/>
        <pt x="1233" y="-394" on="1"/>
      </contour>
      <contour>
        <pt x="1133" y="40" on="1"/>
        <pt x="1133" y="833" on="1"/>
        <pt x="493" y="40" on="1"/>
      </contour>
    </TTGlyph>
    <TTGlyph name="g" xMin="134" yMin="-402" xMax="1688" yMax="1079">
      <contour>
        <pt x="134" y="-402" on="1"/>
        <pt x="910" y="1079" on="1"/>
        <pt x="1688" y="-402" on="1"/>
      </contour>
    </TTGlyph>
    <TTGlyph name="germandbls" xMin="242" yMin="-338" xMax="1721" yMax="1071">
      <contour>
        <pt x="242" y="-338" on="1"/>
        <pt x="242" y="1071" on="1"/>
        <pt x="1721" y="362" on="1"/>
      </contour>
      <contour>
        <pt x="342" y="-195" on="1"/>
        <pt x="1521" y="362" on="1"/>
        <pt x="342" y="927" on="1"/>
      </contour>
    </TTGlyph>
    <TTGlyph name="grave" xMin="259" yMin="-322" xMax="1589" yMax="1000">
      <contour>
        <pt x="259" y="-322" on="1"/>
        <pt x="1589" y="1000" on="1"/>
        <pt x="1589" y="-322" on="1"/>
      </contour>
      <contour>
        <pt x="897" y="620" on="0"/>
        <pt x="854" y="521" on="0"/>
        <pt x="782" y="449" on="0"/>
        <pt x="682" y="406" on="0"/>
        <pt x="626" y="406" on="1"/>
        <pt x="571" y="406" on="0"/>
        <pt x="470" y="449" on="0"/>
        <pt x="398" y="521" on="0"/>
        <pt x="355" y="620" on="0"/>
        <pt x="355" y="675" on="1"/>
        <pt x="355" y="731" on="0"/>
        <pt x="398" y="830" on="0"/>
        <pt x="470" y="902" on="0"/>
        <pt x="571" y="945" on="0"/>
        <pt x="626" y="945" on="1"/>
        <pt x="682" y="945" on="0"/>
        <pt x="782" y="902" on="0"/>
        <pt x="854" y="830" on="0"/>
        <pt x="897" y="731" on="0"/>
        <pt x="897" y="675" on="1"/>
      </contour>
    </TTGlyph>
    <TTGlyph name="greater" xMin="329" yMin="-230" xMax="1473" yMax="891">
      <contour>
        <pt x="1473" y="276" on="1"/>
        <pt x="335" y="-230" on="1"/>
        <pt x="335" y="-101" on="1"/>
        <pt x="1324" y="342" on="1"/>
        <pt x="329" y="768" on="1"/>
        <pt x="329" y="891" on="1"/>
        <pt x="1473" y="393" on="1"/>
      </contour>
    </TTGlyph>
    <TTGlyph name="guillemotleft" xMin="331" yMin="-452" xMax="1507" yMax="1106">
      <contour>
        <pt x="1507" y="267" on="1"/>
        <pt x="1209" y="267" on="1"/>
        <pt x="1209" y="-452" on="1"/>
        <pt x="645" y="-452" on="1"/>
        <pt x="645" y="267" on="1"/>
        <pt x="331" y="267" on="1"/>
        <pt x="331" y="425" on="1"/>
        <pt x="645" y="425" on="1"/>
        <pt x="645" y="1106" on="1"/>
        <pt x="1209" y="1106" on="1"/>
        <pt x="1209" y="425" on="1"/>
        <pt x="1507" y="425" on="1"/>
      </contour>
      <contour>
        <pt x="1117" y="425" on="1"/>
        <pt x="1117" y="988" on="1"/>
        <pt x="737" y="988" on="1"/>
        <pt x="737" y="425" on="1"/>
      </contour>
      <contour>
        <pt x="1117" y="-335" on="1"/>
        <pt x="1117" y="267" on="1"/>
        <pt x="737" y="267" on="1"/>
        <pt x="737" y="-335" on="1"/>
      </contour>
    </TTGlyph>
    <TTGlyph name="guillemotright" xMin="216" yMin="-369" xMax="1625" yMax="1110">
      <contour>
        <pt x="1625" y="-369" on="1"/>
        <pt x="216" y="-369" on="1"/>
        <pt x="925" y="1110" on="1"/>
      </contour>
      <contour>
        <pt x="1482" y="-269" on="1"/>
        <pt x="925" y="910" on="1"/>
        <pt x="360" y="-269" on="1"/>
      </contour>
      <contour>
        <pt x="709" y="49" on="1"/>
        <pt x="709" y="134" on="0"/>
        <pt x="835" y="261" on="0"/>
        <pt x="921" y="261" on="1"/>
        <pt x="1005" y="261" on="0"/>
        <pt x="1131" y="133" on="0"/>
        <pt x="1131" y="49" on="1"/>
        <pt x="1131" y="3" on="0"/>
        <pt x="1118" y="-31" on="1"/>
        <pt x="1111" y="-50" on="1"/>
        <pt x="1100" y="-66" on="1"/>
        <pt x="1069" y="-112" on="0"/>
        <pt x="1003" y="-147" on="1"/>
        <pt x="965" y="-162" on="0"/>
        <pt x="921" y="-162" on="1"/>
        <pt x="834" y="-162" on="0"/>
        <pt x="709" y="-38" on="0"/>
      </contour>
    </TTGlyph>
    <TTGlyph name="guilsinglleft" xMin="416" yMin="-484" xMax="1452" yMax="1146">
      <contour>
        <pt x="607" y="550" on="1"/>
        <pt x="602" y="497" on="1"/>
        <pt x="600" y="437" on="1"/>
        <pt x="600" y="-484" on="1"/>
        <pt x="416" y="-484" on="1"/>
        <pt x="416" y="507" on="1"/>
        <pt x="416" y="782" on="0"/>
        <pt x="759" y="1088" on="1"/>
        <pt x="864" y="1146" on="0"/>
        <pt x="940" y="1146" on="1"/>
        <pt x="1029" y="1146" on="0"/>
        <pt x="1111" y="1088" on="1"/>
        <pt x="1452" y="788" on="0"/>
        <pt x="1452" y="507" on="1"/>
        <pt x="1452" y="-484" on="1"/>
        <pt x="1268" y="-484" on="1"/>
        <pt x="1270" y="449" on="1"/>
        <pt x="1270" y="508" on="0"/>
        <pt x="1263" y="569" on="1"/>
        <pt x="1260" y="595" on="1"/>
        <pt x="1254" y="620" on="1"/>
        <pt x="1252" y="630" on="0"/>
        <pt x="1249" y="642" on="1"/>
        <pt x="1241" y="660" on="1"/>
        <pt x="1217" y="741" on="0"/>
        <pt x="1161" y="816" on="1"/>
        <pt x="1056" y="956" on="0"/>
        <pt x="934" y="956" on="1"/>
        <pt x="813" y="956" on="0"/>
        <pt x="718" y="841" on="1"/>
        <pt x="652" y="762" on="0"/>
        <pt x="631" y="670" on="1"/>
        <pt x="616" y="606" on="1"/>
      </contour>
    </TTGlyph>
    <TTGlyph name="guilsinglright" xMin="143" yMin="-396" xMax="1663" yMax="1124">
      <contour>
        <pt x="1567" y="560" on="1"/>
        <pt x="1663" y="465" on="1"/>
        <pt x="802" y="-396" on="1"/>
        <pt x="707" y="-300" on="1"/>
      </contour>
      <contour>
        <pt x="1285" y="842" on="1"/>
        <pt x="1381" y="746" on="1"/>
        <pt x="521" y="-114" on="1"/>
        <pt x="424" y="-18" on="1"/>
      </contour>
      <contour>
        <pt x="1004" y="1124" on="1"/>
        <pt x="1100" y="1027" on="1"/>
        <pt x="239" y="167" on="1"/>
        <pt x="143" y="263" on="1"/>
      </contour>
    </TTGlyph>
    <TTGlyph name="h" xMin="79" yMin="-517" xMax="1692" yMax="1198">
      <contour>
        <pt x="961" y="1198" on="1"/>
        <pt x="955" y="-517" on="1"/>
        <pt x="79" y="337" on="1"/>
      </contour>
      <contour>
        <pt x="1222" y="176" on="0"/>
        <pt x="1184" y="268" on="0"/>
        <pt x="1185" y="361" on="0"/>
        <pt x="1223" y="453" on="0"/>
        <pt x="1259" y="489" on="1"/>
        <pt x="1296" y="525" on="0"/>
        <pt x="1391" y="563" on="0"/>
        <pt x="1486" y="563" on="0"/>
        <pt x="1581" y="526" on="0"/>
        <pt x="1617" y="490" on="1"/>
        <pt x="1654" y="454" on="0"/>
        <pt x="1692" y="362" on="0"/>
        <pt x="1691" y="269" on="0"/>
        <pt x="1653" y="177" on="0"/>
        <pt x="1616" y="141" on="1"/>
        <pt x="1579" y="105" on="0"/>
        <pt x="1485" y="67" on="0"/>
        <pt x="1389" y="67" on="0"/>
        <pt x="1295" y="104" on="0"/>
        <pt x="1258" y="140" on="1"/>
      </contour>
    </TTGlyph>
    <TTGlyph name="hyphen" xMin="353" yMin="264" xMax="1455" yMax="439">
      <contour>
        <pt x="1455" y="264" on="1"/>
        <pt x="353" y="264" on="1"/>
        <pt x="353" y="439" on="1"/>
        <pt x="1455" y="439" on="1"/>
      </contour>
    </TTGlyph>
    <TTGlyph name="i" xMin="99" yMin="-517" xMax="1712" yMax="1198">
      <contour>
        <pt x="1712" y="337" on="1"/>
        <pt x="836" y="-517" on="1"/>
        <pt x="830" y="1198" on="1"/>
      </contour>
      <contour>
        <pt x="533" y="140" on="1"/>
        <pt x="496" y="104" on="0"/>
        <pt x="402" y="67" on="0"/>
        <pt x="306" y="67" on="0"/>
        <pt x="212" y="105" on="0"/>
        <pt x="175" y="141" on="1"/>
        <pt x="138" y="177" on="0"/>
        <pt x="100" y="269" on="0"/>
        <pt x="99" y="362" on="0"/>
        <pt x="137" y="454" on="0"/>
        <pt x="174" y="490" on="1"/>
        <pt x="210" y="526" on="0"/>
        <pt x="305" y="563" on="0"/>
        <pt x="400" y="563" on="0"/>
        <pt x="495" y="525" on="0"/>
        <pt x="532" y="489" on="1"/>
        <pt x="568" y="453" on="0"/>
        <pt x="606" y="361" on="0"/>
        <pt x="607" y="268" on="0"/>
        <pt x="569" y="176" on="0"/>
      </contour>
    </TTGlyph>
    <TTGlyph name="iacute" xMin="265" yMin="-310" xMax="1562" yMax="984">
      <contour>
        <pt x="379" y="-137" on="1"/>
        <pt x="1395" y="879" on="1"/>
        <pt x="379" y="879" on="1"/>
      </contour>
      <contour>
        <pt x="456" y="-204" on="1"/>
        <pt x="1449" y="-204" on="1"/>
        <pt x="1449" y="788" on="1"/>
      </contour>
      <contour>
        <pt x="1562" y="984" on="1"/>
        <pt x="1562" y="-310" on="1"/>
        <pt x="265" y="-310" on="1"/>
        <pt x="265" y="984" on="1"/>
      </contour>
    </TTGlyph>
    <TTGlyph name="icircumflex" xMin="238" yMin="-405" xMax="1671" yMax="1054">
      <contour>
        <pt x="419" y="326" on="1"/>
        <pt x="419" y="113" on="0"/>
        <pt x="573" y="-41" on="1"/>
        <pt x="727" y="-198" on="0"/>
        <pt x="943" y="-198" on="1"/>
        <pt x="1050" y="-198" on="0"/>
        <pt x="1240" y="-119" on="0"/>
        <pt x="1314" y="-46" on="1"/>
        <pt x="1469" y="109" on="0"/>
        <pt x="1469" y="326" on="1"/>
        <pt x="1469" y="544" on="0"/>
        <pt x="1314" y="699" on="1"/>
        <pt x="1160" y="852" on="0"/>
        <pt x="943" y="852" on="1"/>
        <pt x="725" y="852" on="0"/>
        <pt x="570" y="697" on="1"/>
        <pt x="419" y="542" on="0"/>
      </contour>
      <contour>
        <pt x="1200" y="657" on="1"/>
        <pt x="610" y="67" on="1"/>
        <pt x="524" y="185" on="0"/>
        <pt x="524" y="326" on="1"/>
        <pt x="524" y="495" on="0"/>
        <pt x="647" y="622" on="1"/>
        <pt x="768" y="746" on="0"/>
        <pt x="941" y="746" on="1"/>
        <pt x="1075" y="746" on="0"/>
      </contour>
      <contour>
        <pt x="684" y="-9" on="1"/>
        <pt x="1274" y="582" on="1"/>
        <pt x="1363" y="466" on="0"/>
        <pt x="1363" y="326" on="1"/>
        <pt x="1363" y="151" on="0"/>
        <pt x="1239" y="30" on="1"/>
        <pt x="1111" y="-92" on="0"/>
        <pt x="943" y="-92" on="1"/>
        <pt x="803" y="-92" on="0"/>
      </contour>
      <contour>
        <pt x="1268" y="743" on="1"/>
        <pt x="1572" y="1054" on="1"/>
        <pt x="1671" y="1054" on="1"/>
        <pt x="1671" y="960" on="1"/>
        <pt x="1365" y="643" on="1"/>
        <pt x="1344" y="672" on="0"/>
        <pt x="1318" y="698" on="1"/>
        <pt x="1294" y="723" on="0"/>
      </contour>
      <contour>
        <pt x="1268" y="743" on="1"/>
        <pt x="1572" y="1054" on="1"/>
        <pt x="1671" y="1054" on="1"/>
        <pt x="1671" y="960" on="1"/>
        <pt x="1365" y="643" on="1"/>
        <pt x="1344" y="672" on="0"/>
        <pt x="1318" y="698" on="1"/>
        <pt x="1294" y="723" on="0"/>
      </contour>
      <contour>
        <pt x="1258" y="733" on="1"/>
        <pt x="1562" y="1044" on="1"/>
        <pt x="1661" y="1044" on="1"/>
        <pt x="1661" y="950" on="1"/>
        <pt x="1355" y="633" on="1"/>
        <pt x="1334" y="662" on="0"/>
        <pt x="1308" y="688" on="1"/>
        <pt x="1284" y="713" on="0"/>
      </contour>
      <contour>
        <pt x="641" y="-95" on="1"/>
        <pt x="337" y="-405" on="1"/>
        <pt x="238" y="-405" on="1"/>
        <pt x="238" y="-311" on="1"/>
        <pt x="544" y="6" on="1"/>
        <pt x="565" y="-23" on="0"/>
        <pt x="591" y="-50" on="1"/>
        <pt x="615" y="-74" on="0"/>
      </contour>
    </TTGlyph>
    <TTGlyph name="idieresis" xMin="260" yMin="-448" xMax="1547" yMax="1067">
      <contour>
        <pt x="1545" y="-33" on="1"/>
        <pt x="1306" y="-33" on="1"/>
        <pt x="1306" y="560" on="1"/>
        <pt x="1306" y="651" on="0"/>
        <pt x="1295" y="677" on="1"/>
        <pt x="1286" y="713" on="0"/>
        <pt x="1242" y="770" on="1"/>
        <pt x="1175" y="857" on="0"/>
        <pt x="1048" y="857" on="1"/>
        <pt x="983" y="857" on="0"/>
        <pt x="939" y="834" on="1"/>
        <pt x="893" y="816" on="0"/>
        <pt x="853" y="759" on="1"/>
        <pt x="824" y="717" on="0"/>
        <pt x="801" y="671" on="1"/>
        <pt x="790" y="629" on="0"/>
        <pt x="790" y="560" on="1"/>
        <pt x="790" y="117" on="1"/>
        <pt x="1080" y="117" on="1"/>
        <pt x="672" y="-448" on="1"/>
        <pt x="260" y="117" on="1"/>
        <pt x="550" y="117" on="1"/>
        <pt x="554" y="695" on="1"/>
        <pt x="554" y="701" on="0"/>
        <pt x="556" y="706" on="1"/>
        <pt x="562" y="721" on="1"/>
        <pt x="571" y="753" on="0"/>
        <pt x="601" y="801" on="1"/>
        <pt x="628" y="844" on="1"/>
        <pt x="677" y="943" on="0"/>
        <pt x="814" y="1011" on="1"/>
        <pt x="926" y="1067" on="0"/>
        <pt x="1048" y="1067" on="1"/>
        <pt x="1310" y="1067" on="0"/>
        <pt x="1466" y="867" on="1"/>
        <pt x="1515" y="804" on="0"/>
        <pt x="1547" y="725" on="0"/>
        <pt x="1546" y="669" on="1"/>
        <pt x="1545" y="631" on="1"/>
      </contour>
    </TTGlyph>
    <TTGlyph name="igrave" xMin="212" yMin="-364" xMax="1616" yMax="1038">
      <contour>
        <pt x="1616" y="48" on="0"/>
        <pt x="1203" y="-364" on="0"/>
        <pt x="914" y="-364" on="1"/>
        <pt x="622" y="-364" on="0"/>
        <pt x="212" y="44" on="0"/>
        <pt x="212" y="336" on="1"/>
        <pt x="212" y="630" on="0"/>
        <pt x="620" y="1038" on="0"/>
        <pt x="914" y="1038" on="1"/>
        <pt x="1207" y="1038" on="0"/>
        <pt x="1616" y="629" on="0"/>
        <pt x="1616" y="336" on="1"/>
      </contour>
      <contour>
        <pt x="472" y="678" on="1"/>
        <pt x="354" y="518" on="0"/>
        <pt x="354" y="335" on="1"/>
        <pt x="354" y="104" on="0"/>
        <pt x="682" y="-223" on="0"/>
        <pt x="914" y="-223" on="1"/>
        <pt x="1101" y="-223" on="0"/>
        <pt x="1260" y="-112" on="1"/>
      </contour>
      <contour>
        <pt x="1358" y="-10" on="1"/>
        <pt x="1474" y="145" on="0"/>
        <pt x="1474" y="335" on="1"/>
        <pt x="1474" y="566" on="0"/>
        <pt x="1147" y="897" on="0"/>
        <pt x="917" y="897" on="1"/>
        <pt x="739" y="897" on="0"/>
        <pt x="570" y="779" on="1"/>
      </contour>
    </TTGlyph>
    <TTGlyph name="j" xMin="157" yMin="-425" xMax="1703" yMax="1108">
      <contour>
        <pt x="1703" y="564" on="1"/>
        <pt x="699" y="-425" on="1"/>
        <pt x="319" y="-425" on="1"/>
        <pt x="157" y="-286" on="1"/>
        <pt x="157" y="124" on="1"/>
        <pt x="1181" y="1108" on="1"/>
        <pt x="1563" y="1108" on="1"/>
        <pt x="1703" y="976" on="1"/>
      </contour>
      <contour>
        <pt x="1626" y="620" on="1"/>
        <pt x="1625" y="912" on="1"/>
        <pt x="1504" y="1032" on="1"/>
        <pt x="1236" y="1032" on="1"/>
        <pt x="238" y="77" on="1"/>
        <pt x="238" y="-234" on="1"/>
        <pt x="362" y="-349" on="1"/>
        <pt x="663" y="-349" on="1"/>
      </contour>
    </TTGlyph>
    <TTGlyph name="k" xMin="160" yMin="-420" xMax="1668" yMax="1074">
      <contour>
        <pt x="1124" y="1074" on="1"/>
        <pt x="1528" y="1074" on="1"/>
        <pt x="1668" y="939" on="1"/>
        <pt x="1668" y="532" on="1"/>
        <pt x="702" y="-420" on="1"/>
        <pt x="298" y="-420" on="1"/>
        <pt x="160" y="-288" on="1"/>
        <pt x="160" y="116" on="1"/>
      </contour>
    </TTGlyph>
    <TTGlyph name="l" xMin="796" yMin="-317" xMax="1032" yMax="1051">
      <contour>
        <pt x="1032" y="-317" on="1"/>
        <pt x="796" y="-317" on="1"/>
        <pt x="796" y="1051" on="1"/>
        <pt x="1032" y="1051" on="1"/>
      </contour>
    </TTGlyph>
    <TTGlyph name="less" xMin="329" yMin="-230" xMax="1473" yMax="891">
      <contour>
        <pt x="329" y="393" on="1"/>
        <pt x="1473" y="891" on="1"/>
        <pt x="1473" y="768" on="1"/>
        <pt x="478" y="342" on="1"/>
        <pt x="1467" y="-101" on="1"/>
        <pt x="1467" y="-230" on="1"/>
        <pt x="329" y="276" on="1"/>
      </contour>
    </TTGlyph>
    <TTGlyph name="logicalnot" xMin="285" yMin="-328" xMax="1613" yMax="1012">
      <contour>
        <pt x="1613" y="-328" on="1"/>
        <pt x="285" y="-328" on="1"/>
        <pt x="285" y="1012" on="1"/>
        <pt x="1613" y="1012" on="1"/>
      </contour>
      <contour>
        <pt x="1520" y="-250" on="1"/>
        <pt x="1520" y="934" on="1"/>
        <pt x="378" y="934" on="1"/>
        <pt x="378" y="-250" on="1"/>
      </contour>
      <contour>
        <pt x="950" y="604" on="1"/>
        <pt x="1047" y="604" on="0"/>
        <pt x="1191" y="458" on="0"/>
        <pt x="1191" y="360" on="1"/>
        <pt x="1191" y="263" on="0"/>
        <pt x="1046" y="118" on="0"/>
        <pt x="950" y="118" on="1"/>
        <pt x="850" y="118" on="0"/>
        <pt x="706" y="260" on="0"/>
        <pt x="706" y="360" on="1"/>
        <pt x="706" y="458" on="0"/>
        <pt x="776" y="532" on="1"/>
        <pt x="783" y="542" on="0"/>
        <pt x="791" y="547" on="1"/>
        <pt x="810" y="561" on="1"/>
        <pt x="855" y="585" on="1"/>
        <pt x="932" y="604" on="0"/>
      </contour>
    </TTGlyph>
    <TTGlyph name="m" xMin="65" yMin="-402" xMax="1765" yMax="1012">
      <contour>
        <pt x="463" y="1012" on="1"/>
        <pt x="490" y="1012" on="1"/>
        <pt x="916" y="-57" on="1"/>
        <pt x="1334" y="1012" on="1"/>
        <pt x="1361" y="1012" on="1"/>
        <pt x="1765" y="-402" on="1"/>
        <pt x="1621" y="-402" on="1"/>
        <pt x="1329" y="617" on="1"/>
        <pt x="929" y="-402" on="1"/>
        <pt x="901" y="-402" on="1"/>
        <pt x="496" y="617" on="1"/>
        <pt x="210" y="-402" on="1"/>
        <pt x="65" y="-402" on="1"/>
      </contour>
    </TTGlyph>
    <TTGlyph name="macron" xMin="403" yMin="-211" xMax="1461" yMax="877">
      <contour>
        <pt x="403" y="877" on="1"/>
        <pt x="609" y="877" on="1"/>
        <pt x="609" y="436" on="1"/>
        <pt x="1461" y="436" on="1"/>
        <pt x="1461" y="230" on="1"/>
        <pt x="609" y="230" on="1"/>
        <pt x="609" y="-211" on="1"/>
        <pt x="403" y="-211" on="1"/>
      </contour>
    </TTGlyph>
    <TTGlyph name="minus" xMin="205" yMin="-318" xMax="1633" yMax="992">
      <contour>
        <pt x="978" y="992" on="1"/>
        <pt x="978" y="625" on="1"/>
        <pt x="1633" y="625" on="1"/>
        <pt x="1633" y="35" on="1"/>
        <pt x="978" y="35" on="1"/>
        <pt x="978" y="-318" on="1"/>
        <pt x="860" y="-318" on="1"/>
        <pt x="860" y="35" on="1"/>
        <pt x="205" y="35" on="1"/>
        <pt x="205" y="625" on="1"/>
        <pt x="860" y="625" on="1"/>
        <pt x="860" y="992" on="1"/>
      </contour>
      <contour>
        <pt x="965" y="153" on="1"/>
        <pt x="1515" y="153" on="1"/>
        <pt x="1515" y="507" on="1"/>
        <pt x="965" y="507" on="1"/>
      </contour>
      <contour>
        <pt x="323" y="507" on="1"/>
        <pt x="323" y="153" on="1"/>
        <pt x="847" y="153" on="1"/>
        <pt x="847" y="507" on="1"/>
      </contour>
    </TTGlyph>
    <TTGlyph name="mu" xMin="305" yMin="-129" xMax="1526" yMax="782">
      <contour>
        <pt x="1526" y="-129" on="1"/>
        <pt x="305" y="-129" on="1"/>
        <pt x="305" y="60" on="1"/>
        <pt x="806" y="60" on="1"/>
        <pt x="806" y="782" on="1"/>
        <pt x="1028" y="782" on="1"/>
        <pt x="1028" y="64" on="1"/>
        <pt x="1526" y="64" on="1"/>
      </contour>
    </TTGlyph>
    <TTGlyph name="mu1" xMin="296" yMin="-312" xMax="1557" yMax="970">
      <contour>
        <pt x="429" y="836" on="1"/>
        <pt x="429" y="302" on="1"/>
        <pt x="1419" y="302" on="1"/>
        <pt x="1419" y="836" on="1"/>
      </contour>
      <contour>
        <pt x="1557" y="-312" on="1"/>
        <pt x="296" y="-312" on="1"/>
        <pt x="296" y="970" on="1"/>
        <pt x="1557" y="970" on="1"/>
      </contour>
    </TTGlyph>
    <TTGlyph name="multiply" xMin="283" yMin="-243" xMax="1456" yMax="937">
      <contour>
        <pt x="1456" y="-243" on="1"/>
        <pt x="283" y="937" on="1"/>
        <pt x="1456" y="937" on="1"/>
      </contour>
    </TTGlyph>
    <TTGlyph name="n" xMin="412" yMin="-238" xMax="1346" yMax="970">
      <contour>
        <pt x="412" y="-238" on="1"/>
        <pt x="562" y="-238" on="1"/>
        <pt x="562" y="712" on="1"/>
        <pt x="1186" y="-238" on="1"/>
        <pt x="1346" y="-238" on="1"/>
        <pt x="1346" y="970" on="1"/>
        <pt x="1196" y="970" on="1"/>
        <pt x="1196" y="23" on="1"/>
        <pt x="572" y="970" on="1"/>
        <pt x="412" y="970" on="1"/>
      </contour>
    </TTGlyph>
    <TTGlyph name="nine" xMin="423" yMin="-383" xMax="1296" yMax="1055">
      <contour>
        <pt x="1296" y="506" on="1"/>
        <pt x="1295" y="437" on="1"/>
        <pt x="1289" y="382" on="1"/>
        <pt x="1270" y="263" on="1"/>
        <pt x="1262" y="232" on="1"/>
        <pt x="1218" y="60" on="0"/>
        <pt x="1159" y="-58" on="1"/>
        <pt x="1137" y="-103" on="0"/>
        <pt x="1122" y="-125" on="1"/>
        <pt x="1104" y="-152" on="1"/>
        <pt x="1080" y="-184" on="1"/>
        <pt x="1041" y="-235" on="0"/>
        <pt x="980" y="-287" on="1"/>
        <pt x="865" y="-383" on="0"/>
        <pt x="719" y="-378" on="1"/>
        <pt x="694" y="-377" on="1"/>
        <pt x="671" y="-376" on="0"/>
        <pt x="664" y="-372" on="1"/>
        <pt x="651" y="-370" on="0"/>
        <pt x="645" y="-367" on="1"/>
        <pt x="620" y="-355" on="1"/>
        <pt x="579" y="-335" on="0"/>
        <pt x="536" y="-287" on="1"/>
        <pt x="489" y="-234" on="0"/>
        <pt x="489" y="-195" on="1"/>
        <pt x="489" y="-180" on="0"/>
        <pt x="516" y="-145" on="1"/>
        <pt x="531" y="-136" on="1"/>
        <pt x="547" y="-131" on="1"/>
        <pt x="575" y="-131" on="0"/>
        <pt x="575" y="-196" on="1"/>
        <pt x="575" y="-238" on="0"/>
        <pt x="646" y="-265" on="1"/>
        <pt x="702" y="-286" on="0"/>
        <pt x="755" y="-286" on="1"/>
        <pt x="870" y="-286" on="0"/>
        <pt x="990" y="-143" on="1"/>
        <pt x="1116" y="7" on="0"/>
        <pt x="1168" y="211" on="1"/>
        <pt x="1184" y="274" on="1"/>
        <pt x="1199" y="352" on="1"/>
        <pt x="1206" y="422" on="1"/>
        <pt x="1209" y="494" on="1"/>
        <pt x="1213" y="589" on="0"/>
        <pt x="1198" y="639" on="1"/>
        <pt x="1184" y="610" on="1"/>
        <pt x="1181" y="604" on="0"/>
        <pt x="1154" y="556" on="1"/>
        <pt x="1128" y="510" on="1"/>
        <pt x="1093" y="454" on="1"/>
        <pt x="1064" y="409" on="0"/>
        <pt x="1024" y="355" on="1"/>
        <pt x="1002" y="326" on="1"/>
        <pt x="986" y="309" on="1"/>
        <pt x="941" y="262" on="1"/>
        <pt x="858" y="175" on="0"/>
        <pt x="753" y="138" on="1"/>
        <pt x="713" y="124" on="0"/>
        <pt x="676" y="124" on="1"/>
        <pt x="609" y="124" on="0"/>
        <pt x="547" y="166" on="1"/>
        <pt x="487" y="205" on="0"/>
        <pt x="457" y="266" on="1"/>
        <pt x="423" y="334" on="0"/>
        <pt x="423" y="424" on="1"/>
        <pt x="423" y="435" on="1"/>
        <pt x="424" y="466" on="1"/>
        <pt x="427" y="504" on="1"/>
        <pt x="427" y="519" on="1"/>
        <pt x="431" y="537" on="1"/>
        <pt x="440" y="576" on="1"/>
        <pt x="453" y="631" on="0"/>
        <pt x="485" y="706" on="1"/>
        <pt x="507" y="757" on="0"/>
        <pt x="553" y="819" on="1"/>
        <pt x="594" y="875" on="0"/>
        <pt x="643" y="923" on="1"/>
        <pt x="740" y="1019" on="0"/>
        <pt x="908" y="1055" on="1"/>
        <pt x="947" y="1054" on="1"/>
        <pt x="969" y="1054" on="1"/>
        <pt x="984" y="1050" on="1"/>
        <pt x="1068" y="1035" on="1"/>
        <pt x="1131" y="1024" on="0"/>
        <pt x="1178" y="940" on="1"/>
        <pt x="1205" y="937" on="0"/>
        <pt x="1224" y="878" on="1"/>
        <pt x="1236" y="841" on="1"/>
        <pt x="1262" y="748" on="1"/>
        <pt x="1273" y="710" on="0"/>
        <pt x="1286" y="609" on="1"/>
        <pt x="1293" y="556" on="1"/>
      </contour>
      <contour>
        <pt x="1054" y="939" on="1"/>
        <pt x="1004" y="979" on="0"/>
        <pt x="954" y="975" on="1"/>
        <pt x="940" y="974" on="1"/>
        <pt x="916" y="971" on="1"/>
        <pt x="849" y="963" on="0"/>
        <pt x="714" y="859" on="0"/>
        <pt x="657" y="784" on="1"/>
        <pt x="611" y="724" on="0"/>
        <pt x="569" y="625" on="1"/>
        <pt x="541" y="560" on="0"/>
        <pt x="515" y="447" on="1"/>
        <pt x="510" y="406" on="1"/>
        <pt x="510" y="338" on="0"/>
        <pt x="624" y="209" on="0"/>
        <pt x="692" y="209" on="1"/>
        <pt x="720" y="212" on="1"/>
        <pt x="788" y="220" on="0"/>
        <pt x="953" y="364" on="0"/>
        <pt x="1005" y="438" on="1"/>
        <pt x="1045" y="495" on="1"/>
        <pt x="1097" y="573" on="1"/>
        <pt x="1108" y="595" on="0"/>
        <pt x="1131" y="658" on="1"/>
        <pt x="1138" y="707" on="1"/>
        <pt x="1141" y="764" on="1"/>
        <pt x="1144" y="816" on="0"/>
        <pt x="1121" y="862" on="1"/>
        <pt x="1100" y="903" on="0"/>
      </contour>
    </TTGlyph>
    <TTGlyph name="ntilde" xMin="146" yMin="-426" xMax="1627" yMax="1128">
      <contour>
        <pt x="1627" y="-426" on="1"/>
        <pt x="146" y="350" on="1"/>
        <pt x="1627" y="1128" on="1"/>
      </contour>
    </TTGlyph>
    <TTGlyph name="numbersign" xMin="225" yMin="-354" xMax="1623" yMax="1048">
      <contour>
        <pt x="723" y="156" on="1"/>
        <pt x="1116" y="156" on="1"/>
        <pt x="1116" y="523" on="1"/>
        <pt x="723" y="523" on="1"/>
      </contour>
      <contour>
        <pt x="723" y="1048" on="1"/>
        <pt x="723" y="654" on="1"/>
        <pt x="1116" y="654" on="1"/>
        <pt x="1116" y="1048" on="1"/>
        <pt x="1234" y="1048" on="1"/>
        <pt x="1234" y="654" on="1"/>
        <pt x="1623" y="654" on="1"/>
        <pt x="1623" y="536" on="1"/>
        <pt x="1234" y="536" on="1"/>
        <pt x="1234" y="143" on="1"/>
        <pt x="1623" y="143" on="1"/>
        <pt x="1623" y="25" on="1"/>
        <pt x="1234" y="25" on="1"/>
        <pt x="1234" y="-354" on="1"/>
        <pt x="1116" y="-354" on="1"/>
        <pt x="1116" y="25" on="1"/>
        <pt x="723" y="25" on="1"/>
        <pt x="723" y="-354" on="1"/>
        <pt x="605" y="-354" on="1"/>
        <pt x="605" y="25" on="1"/>
        <pt x="225" y="25" on="1"/>
        <pt x="225" y="143" on="1"/>
        <pt x="605" y="143" on="1"/>
        <pt x="605" y="536" on="1"/>
        <pt x="225" y="536" on="1"/>
        <pt x="225" y="654" on="1"/>
        <pt x="605" y="654" on="1"/>
        <pt x="605" y="1048" on="1"/>
      </contour>
    </TTGlyph>
    <TTGlyph name="o" xMin="566" yMin="-18" xMax="1284" yMax="701">
      <contour>
        <pt x="808" y="680" on="1"/>
        <pt x="871" y="701" on="0"/>
        <pt x="923" y="701" on="1"/>
        <pt x="956" y="701" on="0"/>
        <pt x="968" y="699" on="1"/>
        <pt x="999" y="698" on="0"/>
        <pt x="1040" y="683" on="1"/>
        <pt x="1049" y="679" on="0"/>
        <pt x="1078" y="666" on="1"/>
        <pt x="1153" y="632" on="0"/>
        <pt x="1205" y="566" on="1"/>
        <pt x="1284" y="465" on="0"/>
        <pt x="1284" y="340" on="1"/>
        <pt x="1284" y="169" on="0"/>
        <pt x="1152" y="62" on="1"/>
        <pt x="1053" y="-18" on="0"/>
        <pt x="926" y="-18" on="1"/>
        <pt x="754" y="-18" on="0"/>
        <pt x="647" y="114" on="1"/>
        <pt x="609" y="160" on="0"/>
        <pt x="586" y="222" on="1"/>
        <pt x="566" y="275" on="0"/>
        <pt x="566" y="343" on="1"/>
        <pt x="566" y="429" on="0"/>
        <pt x="598" y="494" on="1"/>
        <pt x="622" y="542" on="0"/>
        <pt x="657" y="582" on="1"/>
        <pt x="718" y="651" on="0"/>
      </contour>
      <contour>
        <pt x="759" y="543" on="1"/>
        <pt x="666" y="466" on="0"/>
        <pt x="666" y="342" on="1"/>
        <pt x="666" y="175" on="0"/>
        <pt x="814" y="107" on="1"/>
        <pt x="868" y="82" on="0"/>
        <pt x="925" y="82" on="1"/>
        <pt x="1016" y="82" on="0"/>
        <pt x="1088" y="140" on="1"/>
        <pt x="1183" y="217" on="0"/>
        <pt x="1183" y="341" on="1"/>
        <pt x="1183" y="431" on="0"/>
        <pt x="1126" y="503" on="1"/>
        <pt x="1092" y="547" on="0"/>
        <pt x="1034" y="575" on="1"/>
        <pt x="972" y="605" on="0"/>
        <pt x="921" y="602" on="1"/>
        <pt x="876" y="599" on="1"/>
        <pt x="864" y="598" on="0"/>
        <pt x="835" y="588" on="1"/>
        <pt x="797" y="574" on="0"/>
      </contour>
    </TTGlyph>
    <TTGlyph name="oacute" xMin="126" yMin="-464" xMax="1738" yMax="1148">
      <contour>
        <pt x="936" y="-302" on="1"/>
        <pt x="1585" y="346" on="1"/>
        <pt x="932" y="1000" on="1"/>
      </contour>
      <contour>
        <pt x="932" y="1148" on="1"/>
        <pt x="1738" y="342" on="1"/>
        <pt x="932" y="-464" on="1"/>
        <pt x="126" y="342" on="1"/>
      </contour>
    </TTGlyph>
    <TTGlyph name="ocircumflex" xMin="599" yMin="-265" xMax="1219" yMax="979">
      <contour>
        <pt x="1219" y="979" on="1"/>
        <pt x="1219" y="-265" on="1"/>
        <pt x="599" y="-265" on="1"/>
        <pt x="599" y="979" on="1"/>
      </contour>
    </TTGlyph>
    <TTGlyph name="odieresis" xMin="296" yMin="-312" xMax="1557" yMax="970">
      <contour>
        <pt x="1419" y="-178" on="1"/>
        <pt x="1419" y="356" on="1"/>
        <pt x="429" y="356" on="1"/>
        <pt x="429" y="-178" on="1"/>
      </contour>
      <contour>
        <pt x="1557" y="-312" on="1"/>
        <pt x="296" y="-312" on="1"/>
        <pt x="296" y="970" on="1"/>
        <pt x="1557" y="970" on="1"/>
      </contour>
    </TTGlyph>
    <TTGlyph name="oe" xMin="285" yMin="-220" xMax="1526" yMax="998">
      <contour>
        <pt x="285" y="998" on="1"/>
        <pt x="1526" y="998" on="1"/>
        <pt x="1526" y="783" on="1"/>
        <pt x="524" y="783" on="1"/>
        <pt x="524" y="-220" on="1"/>
        <pt x="285" y="-220" on="1"/>
      </contour>
    </TTGlyph>
    <TTGlyph name="ograve" xMin="239" yMin="-291" xMax="1660" yMax="1082">
      <contour>
        <pt x="1184" y="1061" on="1"/>
        <pt x="1247" y="1082" on="0"/>
        <pt x="1299" y="1082" on="1"/>
        <pt x="1332" y="1082" on="0"/>
        <pt x="1344" y="1080" on="1"/>
        <pt x="1375" y="1079" on="0"/>
        <pt x="1416" y="1064" on="1"/>
        <pt x="1425" y="1060" on="0"/>
        <pt x="1454" y="1047" on="1"/>
        <pt x="1529" y="1013" on="0"/>
        <pt x="1581" y="947" on="1"/>
        <pt x="1660" y="846" on="0"/>
        <pt x="1660" y="721" on="1"/>
        <pt x="1660" y="550" on="0"/>
        <pt x="1528" y="443" on="1"/>
        <pt x="1429" y="363" on="0"/>
        <pt x="1302" y="363" on="1"/>
        <pt x="1130" y="363" on="0"/>
        <pt x="1023" y="495" on="1"/>
        <pt x="985" y="541" on="0"/>
        <pt x="962" y="603" on="1"/>
        <pt x="942" y="656" on="0"/>
        <pt x="942" y="724" on="1"/>
        <pt x="942" y="810" on="0"/>
        <pt x="974" y="875" on="1"/>
        <pt x="998" y="923" on="0"/>
        <pt x="1033" y="963" on="1"/>
        <pt x="1094" y="1032" on="0"/>
      </contour>
      <contour>
        <pt x="1135" y="924" on="1"/>
        <pt x="1042" y="847" on="0"/>
        <pt x="1042" y="723" on="1"/>
        <pt x="1042" y="556" on="0"/>
        <pt x="1190" y="488" on="1"/>
        <pt x="1244" y="463" on="0"/>
        <pt x="1301" y="463" on="1"/>
        <pt x="1392" y="463" on="0"/>
        <pt x="1464" y="521" on="1"/>
        <pt x="1559" y="598" on="0"/>
        <pt x="1559" y="722" on="1"/>
        <pt x="1559" y="812" on="0"/>
        <pt x="1502" y="884" on="1"/>
        <pt x="1468" y="928" on="0"/>
        <pt x="1410" y="956" on="1"/>
        <pt x="1348" y="986" on="0"/>
        <pt x="1297" y="983" on="1"/>
        <pt x="1252" y="980" on="1"/>
        <pt x="1240" y="979" on="0"/>
        <pt x="1211" y="969" on="1"/>
        <pt x="1173" y="955" on="0"/>
      </contour>
      <contour>
        <pt x="481" y="407" on="1"/>
        <pt x="544" y="428" on="0"/>
        <pt x="596" y="428" on="1"/>
        <pt x="629" y="428" on="0"/>
        <pt x="641" y="426" on="1"/>
        <pt x="672" y="425" on="0"/>
        <pt x="713" y="410" on="1"/>
        <pt x="722" y="406" on="0"/>
        <pt x="751" y="393" on="1"/>
        <pt x="826" y="359" on="0"/>
        <pt x="878" y="293" on="1"/>
        <pt x="957" y="192" on="0"/>
        <pt x="957" y="67" on="1"/>
        <pt x="957" y="-104" on="0"/>
        <pt x="825" y="-211" on="1"/>
        <pt x="726" y="-291" on="0"/>
        <pt x="599" y="-291" on="1"/>
        <pt x="427" y="-291" on="0"/>
        <pt x="320" y="-159" on="1"/>
        <pt x="282" y="-113" on="0"/>
        <pt x="259" y="-51" on="1"/>
        <pt x="239" y="2" on="0"/>
        <pt x="239" y="70" on="1"/>
        <pt x="239" y="156" on="0"/>
        <pt x="271" y="221" on="1"/>
        <pt x="295" y="269" on="0"/>
        <pt x="330" y="309" on="1"/>
        <pt x="391" y="378" on="0"/>
      </contour>
      <contour>
        <pt x="432" y="270" on="1"/>
        <pt x="339" y="193" on="0"/>
        <pt x="339" y="69" on="1"/>
        <pt x="339" y="-98" on="0"/>
        <pt x="487" y="-166" on="1"/>
        <pt x="541" y="-191" on="0"/>
        <pt x="598" y="-191" on="1"/>
        <pt x="689" y="-191" on="0"/>
        <pt x="761" y="-133" on="1"/>
        <pt x="856" y="-56" on="0"/>
        <pt x="856" y="68" on="1"/>
        <pt x="856" y="158" on="0"/>
        <pt x="799" y="230" on="1"/>
        <pt x="765" y="274" on="0"/>
        <pt x="707" y="302" on="1"/>
        <pt x="645" y="332" on="0"/>
        <pt x="594" y="329" on="1"/>
        <pt x="549" y="326" on="1"/>
        <pt x="537" y="325" on="0"/>
        <pt x="508" y="315" on="1"/>
        <pt x="470" y="301" on="0"/>
      </contour>
    </TTGlyph>
    <TTGlyph name="one" xMin="569" yMin="-292" xMax="974" yMax="1000">
      <contour>
        <pt x="974" y="-286" on="1"/>
        <pt x="872" y="-292" on="1"/>
        <pt x="870" y="742" on="1"/>
        <pt x="835" y="704" on="0"/>
        <pt x="729" y="625" on="1"/>
        <pt x="677" y="583" on="0"/>
        <pt x="569" y="521" on="1"/>
        <pt x="569" y="650" on="1"/>
        <pt x="634" y="680" on="0"/>
        <pt x="676" y="716" on="1"/>
        <pt x="721" y="757" on="0"/>
        <pt x="812" y="839" on="0"/>
        <pt x="843" y="900" on="1"/>
        <pt x="866" y="950" on="0"/>
        <pt x="889" y="1000" on="1"/>
        <pt x="974" y="1000" on="1"/>
      </contour>
    </TTGlyph>
    <TTGlyph name="onehalf" xMin="186" yMin="-80" xMax="1657" yMax="763">
      <contour>
        <pt x="186" y="-80" on="1"/>
        <pt x="186" y="763" on="1"/>
        <pt x="331" y="763" on="1"/>
        <pt x="331" y="67" on="1"/>
        <pt x="791" y="67" on="1"/>
        <pt x="791" y="757" on="1"/>
        <pt x="935" y="757" on="1"/>
        <pt x="935" y="67" on="1"/>
        <pt x="1512" y="67" on="1"/>
        <pt x="1512" y="757" on="1"/>
        <pt x="1657" y="757" on="1"/>
        <pt x="1657" y="-80" on="1"/>
      </contour>
    </TTGlyph>
    <TTGlyph name="onequarter" xMin="116" yMin="-525" xMax="1744" yMax="1185">
      <contour>
        <pt x="1744" y="-395" on="1"/>
        <pt x="1741" y="-525" on="1"/>
        <pt x="116" y="267" on="1"/>
        <pt x="116" y="391" on="1"/>
        <pt x="1741" y="1185" on="1"/>
        <pt x="1744" y="1055" on="1"/>
        <pt x="258" y="329" on="1"/>
      </contour>
      <contour>
        <pt x="1741" y="787" on="1"/>
        <pt x="1741" y="-129" on="1"/>
        <pt x="941" y="333" on="1"/>
      </contour>
    </TTGlyph>
    <TTGlyph name="onesuperior" xMin="202" yMin="-348" xMax="1681" yMax="1061">
      <contour>
        <pt x="202" y="-348" on="1"/>
        <pt x="202" y="1061" on="1"/>
        <pt x="1681" y="352" on="1"/>
      </contour>
      <contour>
        <pt x="302" y="-205" on="1"/>
        <pt x="1481" y="352" on="1"/>
        <pt x="302" y="917" on="1"/>
      </contour>
      <contour>
        <pt x="620" y="568" on="1"/>
        <pt x="705" y="568" on="0"/>
        <pt x="832" y="442" on="0"/>
        <pt x="832" y="356" on="1"/>
        <pt x="832" y="272" on="0"/>
        <pt x="704" y="146" on="0"/>
        <pt x="620" y="146" on="1"/>
        <pt x="574" y="146" on="0"/>
        <pt x="540" y="159" on="1"/>
        <pt x="521" y="166" on="1"/>
        <pt x="505" y="177" on="1"/>
        <pt x="459" y="208" on="0"/>
        <pt x="424" y="274" on="1"/>
        <pt x="409" y="312" on="0"/>
        <pt x="409" y="356" on="1"/>
        <pt x="409" y="443" on="0"/>
        <pt x="533" y="568" on="0"/>
      </contour>
    </TTGlyph>
    <TTGlyph name="ordfeminine" xMin="337" yMin="-375" xMax="1436" yMax="1127">
      <contour>
        <pt x="1435" y="310" on="1"/>
        <pt x="883" y="-375" on="1"/>
        <pt x="337" y="307" on="1"/>
        <pt x="337" y="377" on="1"/>
        <pt x="416" y="377" on="1"/>
        <pt x="824" y="-149" on="1"/>
        <pt x="824" y="1127" on="1"/>
        <pt x="936" y="1127" on="1"/>
        <pt x="936" y="-149" on="1"/>
        <pt x="1359" y="372" on="1"/>
        <pt x="1436" y="378" on="1"/>
      </contour>
    </TTGlyph>
    <TTGlyph name="ordmasculine" xMin="116" yMin="-525" xMax="1744" yMax="1185">
      <contour>
        <pt x="1602" y="329" on="1"/>
        <pt x="116" y="1055" on="1"/>
        <pt x="119" y="1185" on="1"/>
        <pt x="1744" y="391" on="1"/>
        <pt x="1744" y="267" on="1"/>
        <pt x="119" y="-525" on="1"/>
        <pt x="116" y="-395" on="1"/>
      </contour>
      <contour>
        <pt x="919" y="333" on="1"/>
        <pt x="119" y="-129" on="1"/>
        <pt x="119" y="787" on="1"/>
      </contour>
    </TTGlyph>
    <TTGlyph name="oslash" xMin="281" yMin="-275" xMax="1563" yMax="984">
      <contour>
        <pt x="379" y="984" on="1"/>
        <pt x="1423" y="-60" on="1"/>
        <pt x="1423" y="984" on="1"/>
        <pt x="1563" y="984" on="1"/>
        <pt x="1563" y="-275" on="1"/>
        <pt x="281" y="-275" on="1"/>
        <pt x="281" y="-126" on="1"/>
        <pt x="1295" y="-126" on="1"/>
        <pt x="281" y="888" on="1"/>
      </contour>
    </TTGlyph>
    <TTGlyph name="otilde" xMin="340" yMin="-266" xMax="1488" yMax="1003">
      <contour>
        <pt x="340" y="-266" on="1"/>
        <pt x="340" y="-144" on="1"/>
        <pt x="977" y="331" on="1"/>
        <pt x="387" y="924" on="1"/>
        <pt x="387" y="1003" on="1"/>
        <pt x="1448" y="1003" on="1"/>
        <pt x="1448" y="780" on="1"/>
        <pt x="1343" y="780" on="1"/>
        <pt x="1341" y="797" on="1"/>
        <pt x="1333" y="914" on="0"/>
        <pt x="1309" y="934" on="0"/>
        <pt x="1174" y="934" on="1"/>
        <pt x="597" y="934" on="1"/>
        <pt x="1147" y="382" on="1"/>
        <pt x="443" y="-144" on="1"/>
        <pt x="1166" y="-144" on="1"/>
        <pt x="1329" y="-144" on="0"/>
        <pt x="1375" y="-113" on="0"/>
        <pt x="1382" y="-2" on="1"/>
        <pt x="1383" y="14" on="1"/>
        <pt x="1488" y="14" on="1"/>
        <pt x="1488" y="-266" on="1"/>
      </contour>
    </TTGlyph>
    <TTGlyph name="p" xMin="79" yMin="-462" xMax="1789" yMax="1166">
      <contour>
        <pt x="209" y="-462" on="1"/>
        <pt x="79" y="-459" on="1"/>
        <pt x="871" y="1166" on="1"/>
        <pt x="995" y="1166" on="1"/>
        <pt x="1789" y="-459" on="1"/>
        <pt x="1659" y="-462" on="1"/>
        <pt x="933" y="1024" on="1"/>
      </contour>
      <contour>
        <pt x="1391" y="-459" on="1"/>
        <pt x="475" y="-459" on="1"/>
        <pt x="937" y="341" on="1"/>
      </contour>
    </TTGlyph>
    <TTGlyph name="paragraph" xMin="359" yMin="-238" xMax="1499" yMax="902">
      <contour>
        <pt x="470" y="785" on="1"/>
        <pt x="470" y="-133" on="1"/>
        <pt x="1394" y="-133" on="1"/>
      </contour>
      <contour>
        <pt x="1499" y="-238" on="1"/>
        <pt x="359" y="-238" on="1"/>
        <pt x="359" y="902" on="1"/>
        <pt x="1499" y="902" on="1"/>
      </contour>
    </TTGlyph>
    <TTGlyph name="parenleft" xMin="316" yMin="-354" xMax="1492" yMax="1038">
      <contour>
        <pt x="973" y="446" on="1"/>
        <pt x="975" y="-354" on="1"/>
        <pt x="814" y="-354" on="1"/>
        <pt x="814" y="446" on="1"/>
        <pt x="316" y="446" on="1"/>
        <pt x="902" y="1038" on="1"/>
        <pt x="1492" y="446" on="1"/>
      </contour>
    </TTGlyph>
    <TTGlyph name="parenright" xMin="316" yMin="-354" xMax="1492" yMax="1038">
      <contour>
        <pt x="1492" y="238" on="1"/>
        <pt x="902" y="-354" on="1"/>
        <pt x="316" y="238" on="1"/>
        <pt x="814" y="238" on="1"/>
        <pt x="814" y="1038" on="1"/>
        <pt x="975" y="1038" on="1"/>
        <pt x="973" y="238" on="1"/>
      </contour>
    </TTGlyph>
    <TTGlyph name="percent" xMin="232" yMin="-339" xMax="1605" yMax="1023">
      <contour>
        <pt x="694" y="677" on="1"/>
        <pt x="671" y="631" on="0"/>
        <pt x="629" y="591" on="1"/>
        <pt x="589" y="553" on="1"/>
        <pt x="569" y="537" on="1"/>
        <pt x="545" y="520" on="1"/>
        <pt x="509" y="499" on="0"/>
        <pt x="473" y="499" on="1"/>
        <pt x="397" y="499" on="0"/>
        <pt x="321" y="582" on="1"/>
        <pt x="299" y="606" on="0"/>
        <pt x="250" y="675" on="1"/>
        <pt x="232" y="710" on="0"/>
        <pt x="232" y="744" on="1"/>
        <pt x="232" y="814" on="0"/>
        <pt x="309" y="894" on="1"/>
        <pt x="358" y="944" on="0"/>
        <pt x="401" y="968" on="1"/>
        <pt x="433" y="986" on="0"/>
        <pt x="472" y="986" on="1"/>
        <pt x="496" y="986" on="0"/>
        <pt x="543" y="968" on="1"/>
        <pt x="572" y="953" on="0"/>
        <pt x="623" y="902" on="1"/>
        <pt x="648" y="877" on="0"/>
        <pt x="694" y="814" on="1"/>
        <pt x="711" y="777" on="0"/>
        <pt x="711" y="746" on="1"/>
        <pt x="711" y="703" on="0"/>
      </contour>
      <contour>
        <pt x="1605" y="919" on="1"/>
        <pt x="343" y="-339" on="1"/>
        <pt x="232" y="-339" on="1"/>
        <pt x="232" y="-219" on="1"/>
        <pt x="1490" y="1023" on="1"/>
        <pt x="1605" y="1023" on="1"/>
      </contour>
      <contour>
        <pt x="1523" y="-179" on="1"/>
        <pt x="1481" y="-217" on="1"/>
        <pt x="1459" y="-237" on="0"/>
        <pt x="1439" y="-247" on="1"/>
        <pt x="1425" y="-254" on="1"/>
        <pt x="1404" y="-260" on="1"/>
        <pt x="1384" y="-265" on="1"/>
        <pt x="1368" y="-266" on="1"/>
        <pt x="1354" y="-267" on="0"/>
        <pt x="1307" y="-251" on="1"/>
        <pt x="1284" y="-240" on="0"/>
        <pt x="1225" y="-185" on="1"/>
        <pt x="1188" y="-143" on="1"/>
        <pt x="1163" y="-104" on="1"/>
        <pt x="1146" y="-70" on="0"/>
        <pt x="1146" y="-37" on="1"/>
        <pt x="1146" y="0" on="0"/>
        <pt x="1163" y="30" on="1"/>
        <pt x="1178" y="66" on="0"/>
        <pt x="1225" y="108" on="1"/>
        <pt x="1267" y="146" on="1"/>
        <pt x="1284" y="161" on="0"/>
        <pt x="1309" y="176" on="1"/>
        <pt x="1340" y="188" on="1"/>
        <pt x="1373" y="192" on="1"/>
        <pt x="1393" y="192" on="0"/>
        <pt x="1440" y="174" on="1"/>
        <pt x="1446" y="171" on="0"/>
        <pt x="1520" y="111" on="1"/>
        <pt x="1552" y="79" on="0"/>
        <pt x="1588" y="28" on="1"/>
        <pt x="1605" y="-4" on="0"/>
        <pt x="1605" y="-35" on="1"/>
        <pt x="1605" y="-105" on="0"/>
      </contour>
    </TTGlyph>
    <TTGlyph name="period" xMin="676" yMin="118" xMax="1161" yMax="604">
      <contour>
        <pt x="920" y="604" on="1"/>
        <pt x="1017" y="604" on="0"/>
        <pt x="1161" y="458" on="0"/>
        <pt x="1161" y="360" on="1"/>
        <pt x="1161" y="263" on="0"/>
        <pt x="1016" y="118" on="0"/>
        <pt x="920" y="118" on="1"/>
        <pt x="820" y="118" on="0"/>
        <pt x="676" y="260" on="0"/>
        <pt x="676" y="360" on="1"/>
        <pt x="676" y="458" on="0"/>
        <pt x="746" y="532" on="1"/>
        <pt x="753" y="542" on="0"/>
        <pt x="761" y="547" on="1"/>
        <pt x="780" y="561" on="1"/>
        <pt x="825" y="585" on="1"/>
        <pt x="902" y="604" on="0"/>
      </contour>
    </TTGlyph>
    <TTGlyph name="periodcentered" xMin="122" yMin="-423" xMax="1739" yMax="1110">
      <contour>
        <pt x="843" y="122" on="1"/>
        <pt x="272" y="-423" on="1"/>
        <pt x="122" y="-423" on="1"/>
        <pt x="122" y="-299" on="1"/>
        <pt x="686" y="252" on="1"/>
        <pt x="843" y="252" on="1"/>
      </contour>
      <contour>
        <pt x="1739" y="980" on="1"/>
        <pt x="1168" y="435" on="1"/>
        <pt x="1018" y="435" on="1"/>
        <pt x="1018" y="559" on="1"/>
        <pt x="1582" y="1110" on="1"/>
        <pt x="1739" y="1110" on="1"/>
      </contour>
    </TTGlyph>
    <TTGlyph name="perthousand" xMin="73" yMin="-353" xMax="1735" yMax="1080">
      <contour>
        <pt x="73" y="415" on="1"/>
        <pt x="1735" y="1080" on="1"/>
        <pt x="1735" y="312" on="1"/>
        <pt x="73" y="-353" on="1"/>
      </contour>
      <contour>
        <pt x="1631" y="398" on="1"/>
        <pt x="1631" y="910" on="1"/>
        <pt x="177" y="329" on="1"/>
        <pt x="177" y="-183" on="1"/>
      </contour>
    </TTGlyph>
    <TTGlyph name="plus" xMin="370" yMin="-221" xMax="1457" yMax="905">
      <contour>
        <pt x="1457" y="253" on="1"/>
        <pt x="1027" y="253" on="1"/>
        <pt x="1027" y="-221" on="1"/>
        <pt x="827" y="-221" on="1"/>
        <pt x="827" y="253" on="1"/>
        <pt x="370" y="253" on="1"/>
        <pt x="370" y="432" on="1"/>
        <pt x="827" y="432" on="1"/>
        <pt x="827" y="905" on="1"/>
        <pt x="1011" y="905" on="1"/>
        <pt x="1010" y="432" on="1"/>
        <pt x="1457" y="432" on="1"/>
      </contour>
    </TTGlyph>
    <TTGlyph name="plusminus" xMin="403" yMin="-211" xMax="1461" yMax="877">
      <contour>
        <pt x="1461" y="-211" on="1"/>
        <pt x="1255" y="-211" on="1"/>
        <pt x="1255" y="230" on="1"/>
        <pt x="403" y="230" on="1"/>
        <pt x="403" y="436" on="1"/>
        <pt x="1255" y="436" on="1"/>
        <pt x="1255" y="877" on="1"/>
        <pt x="1461" y="877" on="1"/>
      </contour>
    </TTGlyph>
    <TTGlyph name="q" xMin="69" yMin="-482" xMax="1779" yMax="1146">
      <contour>
        <pt x="923" y="-340" on="1"/>
        <pt x="1649" y="1146" on="1"/>
        <pt x="1779" y="1143" on="1"/>
        <pt x="985" y="-482" on="1"/>
        <pt x="861" y="-482" on="1"/>
        <pt x="69" y="1143" on="1"/>
        <pt x="199" y="1146" on="1"/>
      </contour>
      <contour>
        <pt x="927" y="343" on="1"/>
        <pt x="465" y="1143" on="1"/>
        <pt x="1381" y="1143" on="1"/>
      </contour>
    </TTGlyph>
    <TTGlyph name="question" xMin="259" yMin="-298" xMax="1599" yMax="1046">
      <contour>
        <pt x="259" y="1046" on="1"/>
        <pt x="378" y="1046" on="1"/>
        <pt x="1599" y="-168" on="1"/>
        <pt x="1599" y="-298" on="1"/>
        <pt x="1493" y="-298" on="1"/>
        <pt x="259" y="929" on="1"/>
      </contour>
    </TTGlyph>
    <TTGlyph name="questiondown" xMin="130" yMin="-416" xMax="1618" yMax="1070">
      <contour>
        <pt x="1268" y="-416" on="1"/>
        <pt x="874" y="-19" on="1"/>
        <pt x="481" y="-416" on="1"/>
        <pt x="130" y="-65" on="1"/>
        <pt x="526" y="325" on="1"/>
        <pt x="130" y="719" on="1"/>
        <pt x="481" y="1070" on="1"/>
        <pt x="874" y="678" on="1"/>
        <pt x="1268" y="1070" on="1"/>
        <pt x="1618" y="719" on="1"/>
        <pt x="1222" y="325" on="1"/>
        <pt x="1618" y="-65" on="1"/>
      </contour>
    </TTGlyph>
    <TTGlyph name="quotedbl" xMin="259" yMin="-322" xMax="1589" yMax="1000">
      <contour>
        <pt x="1589" y="1000" on="1"/>
        <pt x="1589" y="-322" on="1"/>
        <pt x="259" y="1000" on="1"/>
      </contour>
      <contour>
        <pt x="897" y="3" on="1"/>
        <pt x="897" y="-53" on="0"/>
        <pt x="854" y="-152" on="0"/>
        <pt x="782" y="-224" on="0"/>
        <pt x="682" y="-267" on="0"/>
        <pt x="626" y="-267" on="1"/>
        <pt x="571" y="-267" on="0"/>
        <pt x="470" y="-224" on="0"/>
        <pt x="398" y="-152" on="0"/>
        <pt x="355" y="-53" on="0"/>
        <pt x="355" y="3" on="1"/>
        <pt x="355" y="58" on="0"/>
        <pt x="398" y="157" on="0"/>
        <pt x="470" y="229" on="0"/>
        <pt x="571" y="272" on="0"/>
        <pt x="626" y="272" on="1"/>
        <pt x="682" y="272" on="0"/>
        <pt x="782" y="229" on="0"/>
        <pt x="854" y="157" on="0"/>
        <pt x="897" y="58" on="0"/>
      </contour>
    </TTGlyph>
    <TTGlyph name="quotedblbase" xMin="194" yMin="-396" xMax="1644" yMax="1070">
      <contour>
        <pt x="496" y="36" on="1"/>
        <pt x="194" y="333" on="1"/>
        <pt x="486" y="625" on="1"/>
        <pt x="787" y="323" on="1"/>
      </contour>
      <contour>
        <pt x="620" y="764" on="1"/>
        <pt x="925" y="1070" on="1"/>
        <pt x="1230" y="764" on="1"/>
        <pt x="925" y="460" on="1"/>
      </contour>
      <contour>
        <pt x="1346" y="628" on="1"/>
        <pt x="1644" y="328" on="1"/>
        <pt x="1351" y="36" on="1"/>
        <pt x="1049" y="333" on="1"/>
      </contour>
      <contour>
        <pt x="1213" y="-96" on="1"/>
        <pt x="913" y="-396" on="1"/>
        <pt x="615" y="-97" on="1"/>
        <pt x="916" y="205" on="1"/>
      </contour>
    </TTGlyph>
    <TTGlyph name="quotedblleft" xMin="319" yMin="-287" xMax="1519" yMax="928">
      <contour>
        <pt x="785" y="532" on="0"/>
        <pt x="841" y="603" on="1"/>
        <pt x="886" y="660" on="0"/>
        <pt x="944" y="690" on="1"/>
        <pt x="1006" y="720" on="0"/>
        <pt x="1072" y="720" on="1"/>
        <pt x="1162" y="720" on="0"/>
        <pt x="1239" y="667" on="1"/>
        <pt x="1294" y="627" on="0"/>
        <pt x="1329" y="567" on="1"/>
        <pt x="1344" y="540" on="0"/>
        <pt x="1346" y="532" on="1"/>
        <pt x="1351" y="508" on="1"/>
        <pt x="1357" y="492" on="0"/>
        <pt x="1357" y="475" on="1"/>
        <pt x="1357" y="444" on="1"/>
        <pt x="1353" y="405" on="1"/>
        <pt x="1344" y="360" on="1"/>
        <pt x="1325" y="318" on="1"/>
        <pt x="1306" y="285" on="1"/>
        <pt x="1255" y="228" on="1"/>
        <pt x="1240" y="211" on="0"/>
        <pt x="1201" y="195" on="1"/>
        <pt x="1133" y="167" on="0"/>
        <pt x="1072" y="167" on="1"/>
        <pt x="1029" y="167" on="1"/>
        <pt x="988" y="178" on="1"/>
        <pt x="935" y="203" on="1"/>
        <pt x="907" y="218" on="1"/>
        <pt x="805" y="307" on="0"/>
        <pt x="805" y="348" on="1"/>
        <pt x="796" y="362" on="0"/>
        <pt x="796" y="383" on="1"/>
        <pt x="785" y="397" on="0"/>
        <pt x="785" y="444" on="1"/>
      </contour>
      <contour>
        <pt x="1519" y="-287" on="1"/>
        <pt x="324" y="-287" on="1"/>
        <pt x="319" y="928" on="1"/>
        <pt x="486" y="928" on="1"/>
        <pt x="486" y="-124" on="1"/>
        <pt x="1519" y="-124" on="1"/>
      </contour>
    </TTGlyph>
    <TTGlyph name="quotedblright" xMin="319" yMin="-287" xMax="1519" yMax="928">
      <contour>
        <pt x="785" y="197" on="1"/>
        <pt x="785" y="244" on="0"/>
        <pt x="796" y="258" on="1"/>
        <pt x="796" y="279" on="0"/>
        <pt x="805" y="293" on="1"/>
        <pt x="805" y="334" on="0"/>
        <pt x="907" y="423" on="1"/>
        <pt x="935" y="438" on="1"/>
        <pt x="988" y="463" on="1"/>
        <pt x="1029" y="474" on="1"/>
        <pt x="1072" y="474" on="1"/>
        <pt x="1133" y="474" on="0"/>
        <pt x="1201" y="446" on="1"/>
        <pt x="1240" y="430" on="0"/>
        <pt x="1255" y="413" on="1"/>
        <pt x="1306" y="356" on="1"/>
        <pt x="1325" y="323" on="1"/>
        <pt x="1344" y="281" on="1"/>
        <pt x="1353" y="236" on="1"/>
        <pt x="1357" y="197" on="1"/>
        <pt x="1357" y="166" on="1"/>
        <pt x="1357" y="149" on="0"/>
        <pt x="1351" y="133" on="1"/>
        <pt x="1346" y="109" on="1"/>
        <pt x="1344" y="101" on="0"/>
        <pt x="1329" y="74" on="1"/>
        <pt x="1294" y="14" on="0"/>
        <pt x="1239" y="-26" on="1"/>
        <pt x="1162" y="-79" on="0"/>
        <pt x="1072" y="-79" on="1"/>
        <pt x="1006" y="-79" on="0"/>
        <pt x="944" y="-49" on="1"/>
        <pt x="886" y="-19" on="0"/>
        <pt x="841" y="38" on="1"/>
        <pt x="785" y="109" on="0"/>
      </contour>
      <contour>
        <pt x="1519" y="765" on="1"/>
        <pt x="486" y="765" on="1"/>
        <pt x="486" y="-287" on="1"/>
        <pt x="319" y="-287" on="1"/>
        <pt x="324" y="928" on="1"/>
        <pt x="1519" y="928" on="1"/>
      </contour>
    </TTGlyph>
    <TTGlyph name="quoteleft" xMin="319" yMin="-287" xMax="1519" yMax="928">
      <contour>
        <pt x="1053" y="444" on="1"/>
        <pt x="1053" y="397" on="0"/>
        <pt x="1042" y="383" on="1"/>
        <pt x="1042" y="362" on="0"/>
        <pt x="1033" y="348" on="1"/>
        <pt x="1033" y="307" on="0"/>
        <pt x="931" y="218" on="1"/>
        <pt x="903" y="203" on="1"/>
        <pt x="850" y="178" on="1"/>
        <pt x="809" y="167" on="1"/>
        <pt x="766" y="167" on="1"/>
        <pt x="705" y="167" on="0"/>
        <pt x="637" y="195" on="1"/>
        <pt x="598" y="211" on="0"/>
        <pt x="583" y="228" on="1"/>
        <pt x="532" y="285" on="1"/>
        <pt x="513" y="318" on="1"/>
        <pt x="494" y="360" on="1"/>
        <pt x="485" y="405" on="1"/>
        <pt x="481" y="444" on="1"/>
        <pt x="481" y="475" on="1"/>
        <pt x="481" y="492" on="0"/>
        <pt x="487" y="508" on="1"/>
        <pt x="492" y="532" on="1"/>
        <pt x="494" y="540" on="0"/>
        <pt x="509" y="567" on="1"/>
        <pt x="544" y="627" on="0"/>
        <pt x="599" y="667" on="1"/>
        <pt x="676" y="720" on="0"/>
        <pt x="766" y="720" on="1"/>
        <pt x="832" y="720" on="0"/>
        <pt x="894" y="690" on="1"/>
        <pt x="952" y="660" on="0"/>
        <pt x="997" y="603" on="1"/>
        <pt x="1053" y="532" on="0"/>
      </contour>
      <contour>
        <pt x="319" y="-124" on="1"/>
        <pt x="1352" y="-124" on="1"/>
        <pt x="1352" y="928" on="1"/>
        <pt x="1519" y="928" on="1"/>
        <pt x="1514" y="-287" on="1"/>
        <pt x="319" y="-287" on="1"/>
      </contour>
    </TTGlyph>
    <TTGlyph name="quoteright" xMin="247" yMin="-418" xMax="1601" yMax="1102">
      <contour>
        <pt x="1601" y="-418" on="1"/>
        <pt x="1444" y="-418" on="1"/>
        <pt x="1444" y="488" on="1"/>
        <pt x="1027" y="902" on="1"/>
        <pt x="1027" y="-418" on="1"/>
        <pt x="844" y="-418" on="1"/>
        <pt x="844" y="902" on="1"/>
        <pt x="417" y="488" on="1"/>
        <pt x="417" y="-418" on="1"/>
        <pt x="247" y="-418" on="1"/>
        <pt x="247" y="560" on="1"/>
        <pt x="805" y="1102" on="1"/>
        <pt x="1060" y="1102" on="1"/>
        <pt x="1601" y="558" on="1"/>
      </contour>
    </TTGlyph>
    <TTGlyph name="quotesinglbase" xMin="443" yMin="-308" xMax="1453" yMax="1025">
      <contour>
        <pt x="443" y="-308" on="1"/>
        <pt x="443" y="1025" on="1"/>
        <pt x="942" y="1025" on="1"/>
        <pt x="1071" y="1025" on="0"/>
        <pt x="1143" y="1012" on="1"/>
        <pt x="1240" y="996" on="0"/>
        <pt x="1307" y="950" on="1"/>
        <pt x="1374" y="901" on="0"/>
        <pt x="1412" y="821" on="1"/>
        <pt x="1453" y="738" on="0"/>
        <pt x="1453" y="639" on="1"/>
        <pt x="1453" y="469" on="0"/>
        <pt x="1346" y="351" on="1"/>
        <pt x="1237" y="234" on="0"/>
        <pt x="957" y="234" on="1"/>
        <pt x="618" y="234" on="1"/>
        <pt x="618" y="-308" on="1"/>
      </contour>
      <contour>
        <pt x="618" y="391" on="1"/>
        <pt x="960" y="391" on="1"/>
        <pt x="1129" y="391" on="0"/>
        <pt x="1201" y="454" on="1"/>
        <pt x="1272" y="519" on="0"/>
        <pt x="1272" y="634" on="1"/>
        <pt x="1272" y="717" on="0"/>
        <pt x="1230" y="777" on="1"/>
        <pt x="1188" y="837" on="0"/>
        <pt x="1120" y="856" on="1"/>
        <pt x="1071" y="868" on="0"/>
        <pt x="957" y="868" on="1"/>
        <pt x="618" y="868" on="1"/>
      </contour>
    </TTGlyph>
    <TTGlyph name="quotesingle" xMin="311" yMin="-277" xMax="1546" yMax="963">
      <contour>
        <pt x="311" y="-277" on="1"/>
        <pt x="311" y="963" on="1"/>
        <pt x="1546" y="963" on="1"/>
        <pt x="1546" y="-277" on="1"/>
      </contour>
      <contour>
        <pt x="382" y="361" on="1"/>
        <pt x="896" y="361" on="1"/>
        <pt x="896" y="875" on="1"/>
        <pt x="382" y="875" on="1"/>
      </contour>
      <contour>
        <pt x="959" y="-207" on="1"/>
        <pt x="1473" y="-207" on="1"/>
        <pt x="1473" y="306" on="1"/>
        <pt x="959" y="306" on="1"/>
      </contour>
    </TTGlyph>
    <TTGlyph name="r" xMin="234" yMin="-275" xMax="1644" yMax="999">
      <contour>
        <pt x="910" y="-112" on="1"/>
        <pt x="1503" y="907" on="1"/>
        <pt x="372" y="907" on="1"/>
      </contour>
      <contour>
        <pt x="1644" y="999" on="1"/>
        <pt x="907" y="-275" on="1"/>
        <pt x="234" y="999" on="1"/>
      </contour>
    </TTGlyph>
</ttFont>
